<?xml version="1.0" encoding="iso-8859-1"?>
<!-- Generator: Adobe Illustrator 19.0.0, SVG Export Plug-In . SVG Version: 6.00 Build 0)  -->
<svg version="1.1" id="Capa_1" xmlns="http://www.w3.org/2000/svg" xmlns:xlink="http://www.w3.org/1999/xlink" x="0px" y="0px"
	 viewBox="0 0 512 512" style="enable-background:new 0 0 512 512;" xml:space="preserve">
<g>
	<g>
		<path d="M127.5,60c-4.143,0-7.5,3.358-7.5,7.5v20c0,4.142,3.357,7.5,7.5,7.5s7.5-3.358,7.5-7.5v-20
			C135,63.358,131.643,60,127.5,60z"/>
	</g>
</g>
<g>
	<g>
		<path d="M97.5,60c-4.143,0-7.5,3.358-7.5,7.5v20c0,4.142,3.357,7.5,7.5,7.5s7.5-3.358,7.5-7.5v-20C105,63.358,101.643,60,97.5,60z
			"/>
	</g>
</g>
<g>
	<g>
		<path d="M67.5,60c-4.143,0-7.5,3.358-7.5,7.5v20c0,4.142,3.357,7.5,7.5,7.5s7.5-3.358,7.5-7.5v-20C75,63.358,71.643,60,67.5,60z"
			/>
	</g>
</g>
<g>
	<g>
		<path d="M37.5,60c-4.143,0-7.5,3.358-7.5,7.5v20c0,4.142,3.357,7.5,7.5,7.5s7.5-3.358,7.5-7.5v-20C45,63.358,41.643,60,37.5,60z"
			/>
	</g>
</g>
<g>
	<g>
		<path d="M301,238.5c-4.143,0-7.5,3.358-7.5,7.5v20c0,4.142,3.357,7.5,7.5,7.5s7.5-3.358,7.5-7.5v-20
			C308.5,241.858,305.143,238.5,301,238.5z"/>
	</g>
</g>
<g>
	<g>
		<path d="M271,238.5c-4.143,0-7.5,3.358-7.5,7.5v20c0,4.142,3.357,7.5,7.5,7.5s7.5-3.358,7.5-7.5v-20
			C278.5,241.858,275.143,238.5,271,238.5z"/>
	</g>
</g>
<g>
	<g>
		<path d="M241,238.5c-4.143,0-7.5,3.358-7.5,7.5v20c0,4.142,3.357,7.5,7.5,7.5s7.5-3.358,7.5-7.5v-20
			C248.5,241.858,245.143,238.5,241,238.5z"/>
	</g>
</g>
<g>
	<g>
		<path d="M211,238.5c-4.143,0-7.5,3.358-7.5,7.5v20c0,4.142,3.357,7.5,7.5,7.5s7.5-3.358,7.5-7.5v-20
			C218.5,241.858,215.143,238.5,211,238.5z"/>
	</g>
</g>
<g>
	<g>
		<path d="M504.5,357H497V154.25C497,69.196,427.804,0,342.75,0S188.5,69.196,188.5,154.25v54.25H181c-4.143,0-7.5,3.358-7.5,7.5v80
			c0,4.142,3.357,7.5,7.5,7.5h7.5v54.25c0,10.963-8.456,19.55-19.25,19.55c-10.173,0-18.555-7.809-19.469-17.747
			c0.144-0.578,0.219-1.182,0.219-1.804V155h7.5c4.143,0,7.5-3.358,7.5-7.5v-95c0-9.777-6.271-18.114-15-21.21V7.5
			c0-4.142-3.357-7.5-7.5-7.5h-120C18.357,0,15,3.358,15,7.5v23.79C6.271,34.386,0,42.723,0,52.5v95c0,4.142,3.357,7.5,7.5,7.5H15
			v202.75C15,442.804,84.196,512,169.25,512S323.5,442.804,323.5,357.739l-0.08-54.239H331c4.143,0,7.5-3.358,7.5-7.5v-80
			c0-4.142-3.357-7.5-7.5-7.5h-7.72l-0.081-54.25c0-10.78,8.771-19.551,19.551-19.551c10.78,0,19.551,8.771,19.551,19.551V357H354.5
			c-4.143,0-7.5,3.358-7.5,7.5v95c0,9.777,6.271,18.114,15,21.21v23.79c0,4.142,3.357,7.5,7.5,7.5h120c4.143,0,7.5-3.358,7.5-7.5
			v-23.79c8.729-3.096,15-11.432,15-21.21v-95C512,360.358,508.643,357,504.5,357z M30,15h105v15H30V15z M15,52.5
			c0-4.136,3.364-7.5,7.5-7.5h120c4.136,0,7.5,3.364,7.5,7.5V110H15V52.5z M15,125h135v15H15V125z M169.25,497
			C92.468,497,30,434.533,30,357.75V155h105v200.64c-0.195,0.669-0.301,1.377-0.301,2.11c0,19.051,15.499,34.55,34.551,34.55
			c18.886,0,34.25-15.499,34.25-34.55V303.5h104.92l0.08,54.25C308.5,434.533,246.032,497,169.25,497z M323.5,223.5v65H196.01
			c-0.02,0-7.51,0-7.51,0v-65h127.281C315.811,223.5,323.5,223.5,323.5,223.5z M342.75,119.699c-19.052,0-34.551,15.5-34.551,34.562
			l0.081,54.239H203.5v-54.25C203.5,77.467,265.968,15,342.75,15S482,77.467,482,154.25V357H377.301V154.25
			C377.301,135.199,361.802,119.699,342.75,119.699z M482,497H377v-15h105V497z M497,459.5c0,4.136-3.364,7.5-7.5,7.5h-120
			c-4.136,0-7.5-3.364-7.5-7.5V402h135V459.5z M497,387H362v-15h135V387z"/>
	</g>
</g>
<g>
	<g>
		<path d="M474.5,417c-4.143,0-7.5,3.358-7.5,7.5v20c0,4.142,3.357,7.5,7.5,7.5s7.5-3.358,7.5-7.5v-20
			C482,420.358,478.643,417,474.5,417z"/>
	</g>
</g>
<g>
	<g>
		<path d="M444.5,417c-4.143,0-7.5,3.358-7.5,7.5v20c0,4.142,3.357,7.5,7.5,7.5s7.5-3.358,7.5-7.5v-20
			C452,420.358,448.643,417,444.5,417z"/>
	</g>
</g>
<g>
	<g>
		<path d="M414.5,417c-4.143,0-7.5,3.358-7.5,7.5v20c0,4.142,3.357,7.5,7.5,7.5s7.5-3.358,7.5-7.5v-20
			C422,420.358,418.643,417,414.5,417z"/>
	</g>
</g>
<g>
	<g>
		<path d="M384.5,417c-4.143,0-7.5,3.358-7.5,7.5v20c0,4.142,3.357,7.5,7.5,7.5s7.5-3.358,7.5-7.5v-20
			C392,420.358,388.643,417,384.5,417z"/>
	</g>
</g>
<g>
</g>
<g>
</g>
<g>
</g>
<g>
</g>
<g>
</g>
<g>
</g>
<g>
</g>
<g>
</g>
<g>
</g>
<g>
</g>
<g>
</g>
<g>
</g>
<g>
</g>
<g>
</g>
<g>
</g>
</svg>
