<?xml version="1.0" encoding="iso-8859-1"?>
<!-- Generator: Adobe Illustrator 21.0.0, SVG Export Plug-In . SVG Version: 6.00 Build 0)  -->
<svg xmlns="http://www.w3.org/2000/svg" xmlns:xlink="http://www.w3.org/1999/xlink" version="1.1" id="Capa_1" x="0px" y="0px" viewBox="0 0 512 512" style="enable-background:new 0 0 512 512;" xml:space="preserve" width="512" height="512">
<g>
	<g>
		<path d="M471.365,267.639c-4.142,0-7.5-3.357-7.5-7.5v-8.283c0-4.142,3.358-7.5,7.5-7.5c4.142,0,7.5,3.358,7.5,7.5v8.283    C478.865,264.281,475.507,267.639,471.365,267.639z"/>
	</g>
	<g>
		<path d="M40.636,267.639c-4.142,0-7.5-3.357-7.5-7.5v-8.283c0-4.142,3.358-7.5,7.5-7.5s7.5,3.358,7.5,7.5v8.283    C48.136,264.281,44.779,267.639,40.636,267.639z"/>
	</g>
</g>
<g>
	<path d="M504.499,215.365h-66.267c-4.142,0-7.5,3.357-7.5,7.5V248.5h-67.834v-88.788l22.462-22.461   c6.885,4.711,14.905,7.077,22.93,7.077c10.405,0,20.811-3.961,28.732-11.882c0,0,0,0,0-0.001c15.842-15.843,15.842-41.62,0-57.464   c-15.843-15.842-41.622-15.843-57.464,0.001c-14.03,14.031-15.625,35.848-4.804,51.661l-22.458,22.457h-88.795V81.267h25.634   c4.142,0,7.5-3.357,7.5-7.5V7.5c0-4.143-3.358-7.5-7.5-7.5h-66.267c-4.142,0-7.5,3.357-7.5,7.5v66.267c0,4.143,3.358,7.5,7.5,7.5   h25.632v67.834h-25.632c-4.142,0-7.5,3.357-7.5,7.5c0,4.143,3.358,7.5,7.5,7.5h125.03v183.797H164.101v-91.878   c0-0.007,0.001-0.013,0.001-0.019c0-0.007-0.001-0.013-0.001-0.019v-91.88h28.767c4.142,0,7.5-3.357,7.5-7.5   c0-4.143-3.358-7.5-7.5-7.5h-33.162l-22.451-22.452c4.605-6.704,7.09-14.627,7.09-22.936c0-10.854-4.227-21.058-11.901-28.732   c-15.842-15.842-41.621-15.842-57.464,0c-7.675,7.675-11.901,17.878-11.901,28.732c0,10.854,4.227,21.058,11.901,28.732   c7.921,7.921,18.327,11.882,28.732,11.882c8.025,0,16.045-2.366,22.93-7.078l22.46,22.46V248.5H81.268v-25.635   c0-4.143-3.358-7.5-7.5-7.5H7.501c-4.142,0-7.5,3.357-7.5,7.5v66.267c0,4.143,3.358,7.5,7.5,7.5h66.267c4.142,0,7.5-3.357,7.5-7.5   V263.5h67.833v88.793l-22.462,22.461c-15.813-10.82-37.632-9.225-51.662,4.804c0,0,0,0,0,0.001   c-15.842,15.843-15.842,41.62,0,57.464c7.921,7.921,18.327,11.882,28.732,11.882c10.405,0,20.811-3.961,28.732-11.882   c14.031-14.031,15.625-35.849,4.805-51.662l22.464-22.464h88.79v67.836h-25.633c-4.142,0-7.5,3.357-7.5,7.5V504.5   c0,4.143,3.358,7.5,7.5,7.5h66.267c4.142,0,7.5-3.357,7.5-7.5v-66.267c0-4.143-3.358-7.5-7.5-7.5H263.5v-67.836h88.786   l22.465,22.465c-10.82,15.814-9.226,37.631,4.805,51.661c7.674,7.675,17.878,11.902,28.732,11.902   c10.854,0,21.057-4.228,28.732-11.901c15.843-15.844,15.843-41.621,0-57.465c-7.675-7.674-17.878-11.901-28.732-11.901   c-8.309,0-16.233,2.486-22.937,7.09l-22.454-22.454V263.5h67.834v25.632c0,4.143,3.358,7.5,7.5,7.5h66.267   c4.142,0,7.5-3.357,7.5-7.5v-66.267C511.999,218.723,508.641,215.365,504.499,215.365z M230.367,15h51.267v51.267h-25.615   c-0.007,0-0.013-0.001-0.019-0.001c-0.007,0-0.013,0.001-0.019,0.001h-25.613V15z M15.001,281.632v-51.267h51.267v25.615   c0,0.007-0.001,0.013-0.001,0.019c0,0.007,0.001,0.013,0.001,0.019v25.613H15.001z M85.585,121.838   c-4.841-4.841-7.508-11.278-7.508-18.125c0-6.848,2.667-13.284,7.508-18.125c4.997-4.998,11.561-7.496,18.126-7.496   c6.564,0,13.128,2.498,18.126,7.496c4.841,4.841,7.507,11.277,7.507,18.125c0,6.847-2.666,13.284-7.507,18.125   C111.841,131.834,95.58,131.834,85.585,121.838z M121.835,426.416c-9.994,9.994-26.256,9.995-36.252,0.001   c-9.994-9.995-9.994-26.257,0-36.252v0.001c9.996-9.996,26.257-9.996,36.252,0C131.829,400.16,131.829,416.422,121.835,426.416z    M281.634,497h-51.267v-51.267h51.267V497z M390.163,85.589c4.998-4.998,11.561-7.496,18.126-7.496   c6.563,0,13.129,2.499,18.126,7.495c9.994,9.995,9.994,26.257,0,36.252v-0.001c-9.993,9.993-26.253,9.995-36.248,0.004   c-0.001-0.001-0.002-0.002-0.003-0.003c-0.001-0.001-0.002-0.002-0.004-0.003C380.17,111.841,380.171,95.582,390.163,85.589z    M426.413,390.167c9.994,9.994,9.994,26.256,0,36.25c-4.842,4.842-11.279,7.509-18.125,7.509c-6.847,0-13.284-2.667-18.125-7.508   c0-0.001,0-0.001,0-0.001c-9.994-9.994-9.994-26.256,0-36.251c4.841-4.841,11.278-7.508,18.125-7.508   C415.135,382.658,421.572,385.325,426.413,390.167z M496.999,281.632h-51.267v-51.267h51.267V281.632z"/>
	<path d="M184.432,261.302l24.848,24.851c1.465,1.465,3.384,2.197,5.304,2.197c1.919,0,3.839-0.732,5.303-2.196   c2.929-2.929,2.929-7.678,0.001-10.606l-19.545-19.548l19.545-19.545c2.929-2.93,2.929-7.678,0-10.607   c-2.929-2.928-7.678-2.928-10.606,0l-24.848,24.849C181.504,253.625,181.503,258.373,184.432,261.302z"/>
	<path d="M292.114,286.153c1.464,1.464,3.384,2.196,5.303,2.196s3.839-0.732,5.303-2.196l24.848-24.849   c2.929-2.93,2.929-7.678,0-10.606l-24.848-24.851c-2.93-2.929-7.678-2.93-10.607-0.001c-2.929,2.929-2.929,7.678-0.001,10.606   l19.545,19.548l-19.545,19.545C289.184,278.476,289.184,283.224,292.114,286.153z"/>
	<path d="M239.428,288.351c2.423,0,4.802-1.173,6.248-3.341l33.132-49.701c2.298-3.446,1.366-8.104-2.08-10.4   c-3.446-2.297-8.103-1.366-10.401,2.08l-33.132,49.701c-2.297,3.446-1.366,8.104,2.081,10.4   C236.554,287.942,237.999,288.351,239.428,288.351z"/>
	<path d="M260.142,48.133c4.142,0,7.5-3.357,7.5-7.5s-3.358-7.5-7.5-7.5h-8.284c-4.142,0-7.5,3.357-7.5,7.5s3.358,7.5,7.5,7.5   H260.142z"/>
	<path d="M251.859,478.861h8.284c4.142,0,7.5-3.357,7.5-7.5s-3.358-7.5-7.5-7.5h-8.284c-4.142,0-7.5,3.357-7.5,7.5   S247.717,478.861,251.859,478.861z"/>
	<path d="M471.365,267.639c4.142,0,7.5-3.357,7.5-7.5v-8.283c0-4.142-3.358-7.5-7.5-7.5c-4.142,0-7.5,3.358-7.5,7.5v8.283   C463.865,264.281,467.222,267.639,471.365,267.639z"/>
	<path d="M40.636,244.355c-4.142,0-7.5,3.358-7.5,7.5v8.283c0,4.143,3.358,7.5,7.5,7.5s7.5-3.357,7.5-7.5v-8.283   C48.136,247.713,44.779,244.355,40.636,244.355z"/>
</g>















</svg>
