<svg width="300" height="301" viewBox="0 0 300 301" fill="none" xmlns="http://www.w3.org/2000/svg">
<path d="M282.223 77.1508H288.535C294.822 77.1508 299.918 82.2066 300 88.4857V211.506C300 217.842 294.871 222.98 288.535 222.98H282.223C275.887 222.98 270.758 217.842 270.758 211.506V208.277H191.046C166.468 225.687 133.573 225.687 108.978 208.277H96.3467V296.852C96.3467 298.646 94.8952 300.082 93.1175 300.082H44.1572C42.3714 300.082 40.928 298.646 40.928 296.852V208.277H29.2669V211.506C29.2669 217.842 24.1377 222.98 17.8097 222.98H11.3268C5.05587 222.898 1.2123e-05 217.793 1.2123e-05 211.506V88.4857C1.2123e-05 82.1577 5.12926 77.0285 11.4654 77.0285H17.9402C24.2111 77.1182 29.2343 82.2229 29.2343 88.4857V91.7312H108.954C133.532 74.3048 166.427 74.3048 191.022 91.7312H203.653V3.23738C203.653 1.45152 205.105 0 206.882 0H255.826C257.629 0 259.072 1.45152 259.072 3.23738V91.7312H270.758V88.4857C270.831 82.2066 275.936 77.1508 282.223 77.1508ZM277.232 211.506C277.232 214.271 279.467 216.497 282.223 216.497H288.535C291.283 216.497 293.517 214.271 293.517 211.506V88.4857C293.517 85.7213 291.283 83.4869 288.535 83.4869H282.223C279.467 83.4869 277.232 85.7213 277.232 88.4857V211.506ZM22.7677 88.4857C22.7677 85.7213 20.5333 83.4869 17.7852 83.4869H11.3023C8.60313 83.5766 6.48293 85.7865 6.48293 88.4857V211.506C6.48293 214.271 8.70914 216.497 11.4654 216.497H17.9402C20.6312 216.399 22.7677 214.197 22.7677 211.506V88.4857ZM29.2343 98.1897V201.802H44.1328C45.9186 201.802 47.3701 203.246 47.3701 205.031V293.615H89.8801V205.031C89.8801 203.246 91.3317 201.802 93.1175 201.802H101.052C72.4945 174.737 71.3039 129.65 98.3609 101.109C99.2335 100.179 100.13 99.2905 101.052 98.4098L29.2343 98.1897ZM150.012 85.2483C114.23 85.2483 85.2483 114.23 85.2483 149.988C85.2483 185.754 114.23 214.744 150.012 214.744C185.762 214.744 214.752 185.754 214.752 149.988C214.752 114.23 185.762 85.2483 150.012 85.2483ZM255.826 98.1897C254.041 98.1897 252.597 96.7382 252.597 94.9604V6.48292H210.112V94.9604C210.112 96.7382 208.668 98.1897 206.882 98.1897H198.924C227.465 125.263 228.672 170.342 201.598 198.891C200.726 199.804 199.829 200.709 198.924 201.574H270.758V98.1897H255.826Z"/>
<path d="M143.106 137.046C140.52 138.408 138.408 140.536 137.047 143.105C136.492 144.157 135.399 144.809 134.201 144.809H102.577C100.791 144.842 99.3071 143.415 99.2826 141.621C99.2826 141.425 99.2989 141.221 99.3397 141.034C103.123 119.807 119.767 103.205 140.993 99.4616C142.755 99.1436 144.435 100.334 144.736 102.104C144.777 102.291 144.785 102.495 144.785 102.691V134.323C144.745 135.464 144.109 136.492 143.106 137.046ZM138.351 106.581C122.907 110.756 110.854 122.808 106.679 138.245H132.586C134.119 135.913 136.117 133.907 138.449 132.341L138.351 106.581Z" />
<path d="M141.589 200.604H141.026C119.824 196.804 103.229 180.209 99.462 158.991C99.1602 157.229 100.343 155.549 102.096 155.256C102.292 155.215 102.495 155.207 102.699 155.215H134.307C135.497 155.215 136.582 155.867 137.153 156.927C138.498 159.472 140.561 161.559 143.105 162.954C144.157 163.5 144.81 164.601 144.826 165.8V197.423C144.826 199.217 143.366 200.669 141.589 200.669V200.604ZM138.351 167.537C136.011 166.004 134.021 164.014 132.488 161.673H106.581C110.756 177.118 122.817 189.163 138.245 193.338L138.351 167.537Z" />
<path d="M197.366 144.81H165.734C164.536 144.81 163.443 144.157 162.88 143.106C161.543 140.537 159.447 138.417 156.895 137.047C155.843 136.484 155.182 135.383 155.174 134.201V102.626C155.15 100.848 156.585 99.3805 158.363 99.3479C158.567 99.3479 158.77 99.3561 158.974 99.3887C180.16 103.197 196.755 119.8 200.53 140.994C200.84 142.755 199.658 144.435 197.904 144.736C197.701 144.777 197.497 144.794 197.301 144.794L197.366 144.81ZM161.755 106.671V132.578C164.079 134.119 166.093 136.117 167.635 138.441H193.542C189.358 122.907 177.2 110.805 161.657 106.671H161.755Z" />
<path d="M156.895 162.954C159.472 161.576 161.576 159.472 162.954 156.887C163.5 155.843 164.601 155.174 165.8 155.174H197.366C199.152 155.15 200.628 156.577 200.653 158.363C200.653 158.566 200.636 158.77 200.604 158.974C196.804 180.168 180.201 196.754 158.999 200.538H158.453C156.667 200.538 155.215 199.095 155.215 197.301V165.702C155.256 164.544 155.884 163.492 156.895 162.954ZM161.657 193.321C177.094 189.146 189.146 177.086 193.322 161.657H167.414C165.881 163.973 163.892 165.963 161.551 167.52L161.657 193.321Z" />
</svg>
