<svg width="80" height="80" viewBox="0 0 80 80" fill="none" xmlns="http://www.w3.org/2000/svg">
<path d="M40 74C59.8823 74 76 57.8823 76 38C76 18.1177 59.8823 2 40 2C20.1177 2 4 18.1177 4 38C4 57.8823 20.1177 74 40 74Z" fill="#57A4FF" fill-opacity="0.22"/>
<path d="M40 73.5C59.6061 73.5 75.5 57.6061 75.5 38C75.5 18.3939 59.6061 2.5 40 2.5C20.3939 2.5 4.5 18.3939 4.5 38C4.5 57.6061 20.3939 73.5 40 73.5Z" stroke="#57A4FF"/>
<path d="M32.5469 42H31.416L27.1211 35.4258V42H25.9902V33.4688H27.1211L31.4277 40.0723V33.4688H32.5469V42ZM34.0879 38.7715C34.0879 38.1504 34.209 37.5918 34.4512 37.0957C34.6973 36.5996 35.0371 36.2168 35.4707 35.9473C35.9082 35.6777 36.4062 35.543 36.9648 35.543C37.8281 35.543 38.5254 35.8418 39.0566 36.4395C39.5918 37.0371 39.8594 37.832 39.8594 38.8242V38.9004C39.8594 39.5176 39.7402 40.0723 39.502 40.5645C39.2676 41.0527 38.9297 41.4336 38.4883 41.707C38.0508 41.9805 37.5469 42.1172 36.9766 42.1172C36.1172 42.1172 35.4199 41.8184 34.8848 41.2207C34.3535 40.623 34.0879 39.832 34.0879 38.8477V38.7715ZM35.1777 38.9004C35.1777 39.6035 35.3398 40.168 35.6641 40.5938C35.9922 41.0195 36.4297 41.2324 36.9766 41.2324C37.5273 41.2324 37.9648 41.0176 38.2891 40.5879C38.6133 40.1543 38.7754 39.5488 38.7754 38.7715C38.7754 38.0762 38.6094 37.5137 38.2773 37.084C37.9492 36.6504 37.5117 36.4336 36.9648 36.4336C36.4297 36.4336 35.998 36.6465 35.6699 37.0723C35.3418 37.498 35.1777 38.1074 35.1777 38.9004ZM40.9551 38.7773C40.9551 37.8047 41.1855 37.0234 41.6465 36.4336C42.1074 35.8398 42.7109 35.543 43.457 35.543C44.1992 35.543 44.7871 35.7969 45.2207 36.3047V33H46.3047V42H45.3086L45.2559 41.3203C44.8223 41.8516 44.2188 42.1172 43.4453 42.1172C42.7109 42.1172 42.1113 41.8164 41.6465 41.2148C41.1855 40.6133 40.9551 39.8281 40.9551 38.8594V38.7773ZM42.0391 38.9004C42.0391 39.6191 42.1875 40.1816 42.4844 40.5879C42.7812 40.9941 43.1914 41.1973 43.7148 41.1973C44.4023 41.1973 44.9043 40.8887 45.2207 40.2715V37.3594C44.8965 36.7617 44.3984 36.4629 43.7266 36.4629C43.1953 36.4629 42.7812 36.668 42.4844 37.0781C42.1875 37.4883 42.0391 38.0957 42.0391 38.9004ZM50.623 42.1172C49.7637 42.1172 49.0645 41.8359 48.5254 41.2734C47.9863 40.707 47.7168 39.9512 47.7168 39.0059V38.8066C47.7168 38.1777 47.8359 37.6172 48.0742 37.125C48.3164 36.6289 48.6523 36.2422 49.082 35.9648C49.5156 35.6836 49.9844 35.543 50.4883 35.543C51.3125 35.543 51.9531 35.8145 52.4102 36.3574C52.8672 36.9004 53.0957 37.6777 53.0957 38.6895V39.1406H48.8008C48.8164 39.7656 48.998 40.2715 49.3457 40.6582C49.6973 41.041 50.1426 41.2324 50.6816 41.2324C51.0645 41.2324 51.3887 41.1543 51.6543 40.998C51.9199 40.8418 52.1523 40.6348 52.3516 40.377L53.0137 40.8926C52.4824 41.709 51.6855 42.1172 50.623 42.1172ZM50.4883 36.4336C50.0508 36.4336 49.6836 36.5938 49.3867 36.9141C49.0898 37.2305 48.9062 37.6758 48.8359 38.25H52.0117V38.168C51.9805 37.6172 51.832 37.1914 51.5664 36.8906C51.3008 36.5859 50.9414 36.4336 50.4883 36.4336Z" fill="black" fill-opacity="0.65"/>
</svg>
