<svg xmlns="http://www.w3.org/2000/svg" height="511.99998pt" version="1.1" viewBox="1 1 511.99998 511.99998" width="511.99998pt">
<g id="surface1">
<path d="M 388.414062 476.6875 L 370.757812 476.6875 L 370.757812 512 L 512 512 L 512 476.6875 Z M 388.414062 476.6875 " style=" stroke:none;fill-rule:nonzero;fill:rgb(10.196078%,43.529412%,69.019608%);fill-opacity:1;" />
<path d="M 141.242188 35.3125 L 141.242188 0 L 0 0 L 0 35.3125 Z M 141.242188 35.3125 " style=" stroke:none;fill-rule:nonzero;fill:rgb(10.196078%,43.529412%,69.019608%);fill-opacity:1;" />
<path d="M 123.585938 256 L 123.585938 35.3125 L 70.621094 35.3125 L 70.621094 256 Z M 123.585938 256 " style=" stroke:none;fill-rule:nonzero;fill:rgb(47.058824%,72.54902%,92.156863%);fill-opacity:1;" />
<path d="M 70.621094 35.3125 L 17.65625 35.3125 L 17.65625 256 L 70.621094 256 Z M 70.621094 35.3125 " style=" stroke:none;fill-rule:nonzero;fill:rgb(35.294118%,66.666667%,90.588235%);fill-opacity:1;" />
<path d="M 388.414062 256 L 441.378906 256 L 441.378906 476.6875 L 388.414062 476.6875 Z M 388.414062 256 " style=" stroke:none;fill-rule:nonzero;fill:rgb(35.294118%,66.666667%,90.588235%);fill-opacity:1;" />
<path d="M 441.378906 256 L 494.34375 256 L 494.34375 476.6875 L 441.378906 476.6875 Z M 441.378906 256 " style=" stroke:none;fill-rule:nonzero;fill:rgb(47.058824%,72.54902%,92.156863%);fill-opacity:1;" />
<path d="M 441.378906 141.242188 C 441.378906 92.488281 401.855469 52.964844 353.101562 52.964844 C 401.835938 53.019531 441.324219 92.507812 441.378906 141.242188 Z M 441.378906 141.242188 " style=" stroke:none;fill-rule:nonzero;fill:rgb(47.058824%,72.54902%,92.156863%);fill-opacity:1;" />
<path d="M 344.277344 52.964844 C 295.523438 52.964844 256 92.488281 256 141.242188 C 256.054688 92.507812 295.542969 53.019531 344.277344 52.964844 Z M 344.277344 52.964844 " style=" stroke:none;fill-rule:nonzero;fill:rgb(47.058824%,72.54902%,92.156863%);fill-opacity:1;" />
<path d="M 158.898438 459.035156 C 110.164062 458.980469 70.675781 419.488281 70.621094 370.757812 C 70.621094 419.511719 110.144531 459.035156 158.898438 459.035156 Z M 158.898438 459.035156 " style=" stroke:none;fill-rule:nonzero;fill:rgb(47.058824%,72.54902%,92.156863%);fill-opacity:1;" />
<path d="M 256 370.757812 C 255.945312 419.488281 216.453125 458.980469 167.722656 459.035156 C 216.476562 459.035156 256 419.511719 256 370.757812 Z M 256 370.757812 " style=" stroke:none;fill-rule:nonzero;fill:rgb(47.058824%,72.54902%,92.156863%);fill-opacity:1;" />
<path d="M 353.101562 0 L 344.277344 0 C 266.269531 0 203.035156 63.234375 203.035156 141.242188 L 203.035156 361.929688 C 203.035156 381.433594 187.226562 397.242188 167.722656 397.242188 L 158.898438 397.242188 C 139.394531 397.242188 123.585938 381.433594 123.585938 361.929688 L 123.585938 256 L 70.621094 256 L 70.621094 370.757812 C 70.675781 419.488281 110.164062 458.980469 158.894531 459.035156 L 167.722656 459.035156 C 216.453125 458.980469 255.945312 419.488281 256 370.757812 L 256 141.242188 C 256 92.488281 295.519531 52.964844 344.273438 52.964844 L 353.101562 52.964844 C 401.855469 52.964844 441.378906 92.488281 441.378906 141.242188 L 441.378906 256 L 494.34375 256 L 494.34375 141.242188 C 494.34375 63.234375 431.109375 0 353.101562 0 Z M 353.101562 0 " style=" stroke:none;fill-rule:nonzero;fill:rgb(47.058824%,72.54902%,92.156863%);fill-opacity:1;" />
<path d="M 441.378906 247.171875 L 441.378906 141.242188 C 441.324219 92.511719 401.835938 53.019531 353.101562 52.964844 L 344.277344 52.964844 C 295.546875 53.019531 256.054688 92.511719 256 141.242188 L 256 370.757812 C 256 419.511719 216.476562 459.035156 167.726562 459.035156 L 158.898438 459.035156 C 110.144531 459.035156 70.621094 419.511719 70.621094 370.757812 L 70.621094 256 L 17.65625 256 L 17.65625 370.757812 C 17.65625 448.765625 80.890625 512 158.898438 512 L 167.722656 512 C 245.730469 512 308.964844 448.765625 308.964844 370.757812 L 308.964844 150.070312 C 308.964844 130.566406 324.773438 114.757812 344.277344 114.757812 L 353.101562 114.757812 C 372.605469 114.757812 388.414062 130.566406 388.414062 150.070312 L 388.414062 256 L 441.378906 256 Z M 441.378906 247.171875 " style=" stroke:none;fill-rule:nonzero;fill:rgb(35.294118%,66.666667%,90.588235%);fill-opacity:1;" />
<path d="M 264.828125 361.929688 L 247.171875 361.929688 L 247.171875 141.242188 C 247.234375 87.640625 290.671875 44.199219 344.277344 44.136719 L 353.101562 44.136719 C 406.707031 44.199219 450.144531 87.640625 450.207031 141.242188 L 450.207031 211.863281 L 432.550781 211.863281 L 432.550781 141.242188 C 432.503906 97.382812 396.960938 61.84375 353.101562 61.792969 L 344.277344 61.792969 C 300.417969 61.839844 264.875 97.382812 264.828125 141.242188 Z M 264.828125 361.929688 " style=" stroke:none;fill-rule:nonzero;fill:rgb(23.921569%,60.392157%,88.627451%);fill-opacity:1;" />
<path d="M 167.722656 467.863281 L 158.898438 467.863281 C 105.292969 467.796875 61.855469 424.359375 61.792969 370.757812 L 61.792969 300.136719 L 79.449219 300.136719 L 79.449219 370.757812 C 79.496094 414.617188 115.039062 450.15625 158.898438 450.207031 L 167.722656 450.207031 C 211.582031 450.15625 247.125 414.617188 247.171875 370.757812 L 247.171875 150.070312 L 264.828125 150.070312 L 264.828125 370.757812 C 264.765625 424.359375 221.328125 467.800781 167.722656 467.863281 Z M 167.722656 467.863281 " style=" stroke:none;fill-rule:nonzero;fill:rgb(23.921569%,60.392157%,88.627451%);fill-opacity:1;" />
<path d="M 17.65625 247.171875 L 123.585938 247.171875 L 123.585938 264.828125 L 17.65625 264.828125 Z M 17.65625 247.171875 " style=" stroke:none;fill-rule:nonzero;fill:rgb(23.921569%,60.392157%,88.627451%);fill-opacity:1;" />
<path d="M 388.414062 247.171875 L 494.34375 247.171875 L 494.34375 264.828125 L 388.414062 264.828125 Z M 388.414062 247.171875 " style=" stroke:none;fill-rule:nonzero;fill:rgb(23.921569%,60.392157%,88.627451%);fill-opacity:1;" />
<path d="M 432.550781 229.515625 L 450.207031 229.515625 L 450.207031 247.171875 L 432.550781 247.171875 Z M 432.550781 229.515625 " style=" stroke:none;fill-rule:nonzero;fill:rgb(23.921569%,60.392157%,88.627451%);fill-opacity:1;" />
<path d="M 61.792969 256 L 79.449219 256 L 79.449219 282.480469 L 61.792969 282.480469 Z M 61.792969 256 " style=" stroke:none;fill-rule:nonzero;fill:rgb(23.921569%,60.392157%,88.627451%);fill-opacity:1;" />
</g>
</svg>