<svg width="229" height="267" viewBox="0 0 229 267" fill="none" xmlns="http://www.w3.org/2000/svg">
<path d="M215.433 58.6346H220.23C225.008 58.6346 228.881 62.477 228.943 67.2491V160.745C228.943 165.56 225.045 169.465 220.23 169.465H215.433C210.617 169.465 206.719 165.56 206.719 160.745V158.29H146.138C127.459 171.522 102.458 171.522 83.7668 158.29H74.1669V225.608C74.1669 226.971 73.0637 228.062 71.7127 228.062H34.5028C33.1456 228.062 32.0486 226.971 32.0486 225.608V158.29H23.1862V160.745C23.1862 165.56 19.288 169.465 14.4787 169.465H9.55169C4.78581 169.403 0.943359 165.523 0.943359 160.745V67.2491C0.943359 62.4399 4.84159 58.5416 9.65705 58.5416H14.5779C19.3438 58.6098 23.1614 62.4894 23.1614 67.2491V69.7157H83.7482C102.427 56.4717 127.428 56.4717 146.12 69.7157H155.72V2.46041C155.72 1.10316 156.823 0 158.174 0H195.371C196.741 0 197.838 1.10316 197.838 2.46041V69.7157H206.719V67.2491C206.775 62.477 210.655 58.6346 215.433 58.6346ZM211.64 160.745C211.64 162.846 213.338 164.538 215.433 164.538H220.23C222.318 164.538 224.016 162.846 224.016 160.745V67.2491C224.016 65.1482 222.318 63.4501 220.23 63.4501H215.433C213.338 63.4501 211.64 65.1482 211.64 67.2491V160.745ZM18.2468 67.2491C18.2468 65.1482 16.5487 63.4501 14.4601 63.4501H9.5331C7.48173 63.5182 5.87038 65.1977 5.87038 67.2491V160.745C5.87038 162.846 7.56229 164.538 9.65705 164.538H14.5779C16.623 164.463 18.2468 162.79 18.2468 160.745V67.2491ZM23.1614 74.6242V153.37H34.4843C35.8415 153.37 36.9447 154.467 36.9447 155.824V223.147H69.2523V155.824C69.2523 154.467 70.3554 153.37 71.7127 153.37H77.7428C56.0392 132.8 55.1343 98.5341 75.6977 76.8429C76.3608 76.1363 77.0425 75.4608 77.7428 74.7915L23.1614 74.6242ZM114.953 64.7887C87.758 64.7887 65.7321 86.8146 65.7321 113.991C65.7321 141.173 87.758 163.205 114.953 163.205C142.123 163.205 164.155 141.173 164.155 113.991C164.155 86.8146 142.123 64.7887 114.953 64.7887ZM195.371 74.6242C194.014 74.6242 192.917 73.521 192.917 72.1699V4.92702H160.628V72.1699C160.628 73.521 159.531 74.6242 158.174 74.6242H152.125C173.817 95.1999 174.734 129.46 154.158 151.157C153.495 151.851 152.813 152.539 152.125 153.196H206.719V74.6242H195.371Z" fill="black"/>
<path d="M109.704 104.155C107.739 105.19 106.134 106.808 105.099 108.76C104.677 109.559 103.847 110.055 102.936 110.055H78.9019C77.5447 110.08 76.4167 108.995 76.3982 107.632C76.3982 107.483 76.4105 107.328 76.4415 107.186C79.3172 91.0536 91.9663 78.4355 108.098 75.5908C109.437 75.3491 110.714 76.254 110.943 77.5988C110.974 77.7414 110.98 77.8963 110.98 78.0451V102.085C110.949 102.953 110.466 103.734 109.704 104.155ZM106.09 81.0013C94.3523 84.1744 85.1924 93.3343 82.0193 105.066H101.709C102.874 103.294 104.392 101.769 106.165 100.579L106.09 81.0013Z" fill="black"/>
<path d="M108.551 152.459H108.123C92.0096 149.571 79.3976 136.959 76.5344 120.833C76.3051 119.494 77.2037 118.217 78.5362 117.994C78.6849 117.963 78.8399 117.957 78.9948 117.963H103.016C103.921 117.963 104.745 118.459 105.179 119.265C106.202 121.198 107.77 122.785 109.703 123.845C110.503 124.26 110.999 125.097 111.011 126.008V150.042C111.011 151.405 109.902 152.508 108.551 152.508V152.459ZM106.09 127.328C104.312 126.163 102.799 124.65 101.634 122.872H81.9448C85.1179 134.61 94.284 143.764 106.01 146.937L106.09 127.328Z" fill="black"/>
<path d="M150.942 110.055H126.902C125.99 110.055 125.16 109.56 124.732 108.76C123.716 106.808 122.123 105.197 120.183 104.155C119.384 103.728 118.882 102.891 118.876 101.993V77.9958C118.857 76.6447 119.948 75.5292 121.299 75.5044C121.454 75.5044 121.609 75.5106 121.764 75.5354C137.865 78.4296 150.477 91.0477 153.346 107.155C153.582 108.494 152.683 109.77 151.351 110C151.196 110.031 151.041 110.043 150.892 110.043L150.942 110.055ZM123.877 81.0698V100.759C125.643 101.931 127.174 103.449 128.346 105.215H148.035C144.856 93.409 135.615 84.2119 123.803 81.0698H123.877Z" fill="black"/>
<path d="M120.184 123.845C122.142 122.797 123.741 121.198 124.788 119.234C125.204 118.441 126.04 117.932 126.951 117.932H150.942C152.299 117.914 153.421 118.998 153.439 120.356C153.439 120.511 153.427 120.665 153.402 120.82C150.514 136.928 137.896 149.533 121.782 152.409H121.367C120.01 152.409 118.907 151.312 118.907 149.949V125.933C118.938 125.053 119.415 124.254 120.184 123.845ZM123.803 146.924C135.535 143.751 144.695 134.585 147.868 122.859H128.178C127.013 124.619 125.501 126.132 123.722 127.315L123.803 146.924Z" fill="black"/>
<path d="M219.674 223.333H132.333C128.839 223.333 126 220.508 126 217.006C126 213.512 128.831 210.673 132.333 210.673H219.674C223.169 210.673 226 213.512 226 217.006C226 220.508 223.176 223.333 219.674 223.333Z" fill="#010002"/>
<path d="M176.004 267C172.509 267 169.67 264.169 169.67 260.674V173.333C169.67 169.839 172.509 167 176.004 167C179.499 167 182.33 169.839 182.33 173.333V260.674C182.33 264.176 179.506 267 176.004 267Z" fill="#010002"/>
</svg>
