<svg width="226" height="289" viewBox="0 0 226 289" fill="none" xmlns="http://www.w3.org/2000/svg">
<path d="M202.804 105.364H181.874C181.156 93.5295 178.386 82.1477 173.764 71.7592L192.131 60.5655C195.053 58.7844 195.977 54.9719 194.196 52.0507C192.415 49.1295 188.604 48.203 185.681 49.9842L167.958 60.7872C165.487 56.8056 162.71 53.0281 159.638 49.4962C150.611 39.1221 139.725 31.6214 127.822 27.3799V19.4199C127.822 15.5452 130.974 12.3912 134.851 12.3912H141.495C144.917 12.3912 147.69 9.61669 147.69 6.1964C147.69 2.77451 144.917 0 141.495 0H134.851C124.142 0 115.431 8.71259 115.431 19.4199V24.2131C111.84 23.6423 108.19 23.3457 104.498 23.3457C100.807 23.3457 97.1587 23.6423 93.5694 24.2131V19.4199C93.5694 8.71259 84.8584 0 74.1495 0H67.505C64.0831 0 61.3102 2.77451 61.3102 6.1964C61.3102 9.61829 64.0831 12.3912 67.505 12.3912H74.1495C78.0258 12.3912 81.1782 15.5452 81.1782 19.4199V27.3783C69.2749 31.6198 58.3874 39.1221 49.3591 49.4978C46.2864 53.0281 43.5103 56.8056 41.0404 60.7856L23.3186 49.9842C20.3958 48.203 16.5848 49.1295 14.8037 52.0507C13.0226 54.9735 13.9475 58.7844 16.8703 60.5655L35.233 71.7592C30.6105 82.1477 27.8423 93.5295 27.1248 105.364H6.1964C2.77451 105.364 0 108.139 0 111.559C0 114.981 2.77451 117.755 6.1964 117.755H27.1248C27.8423 129.59 30.6105 140.972 35.233 151.362L16.8703 162.554C13.9475 164.335 13.0226 168.148 14.8037 171.069C15.9709 172.984 18.0104 174.041 20.0992 174.041C21.1979 174.041 22.3124 173.748 23.3186 173.136L41.0404 162.334C43.5119 166.314 46.288 170.092 49.3591 173.622C64.0337 190.486 83.6163 199.774 104.498 199.774H104.5C125.382 199.772 144.965 190.486 159.638 173.622C162.71 170.092 165.487 166.314 167.958 162.332L185.681 173.136C186.688 173.749 187.801 174.041 188.899 174.041C190.99 174.041 193.029 172.984 194.196 171.069C195.977 168.148 195.053 164.335 192.13 162.554L173.764 151.36C178.386 140.972 181.154 129.59 181.872 117.755H202.804C206.225 117.755 209 114.983 209 111.561C209 108.139 206.225 105.364 202.804 105.364V105.364ZM104.498 35.7369C128.994 35.7369 150.373 51.5436 161.507 74.8479H47.4919C58.6234 51.5436 80.003 35.7369 104.498 35.7369V35.7369ZM39.3246 111.559C39.3246 103.057 40.5349 94.8769 42.7641 87.2391H98.3036V187.037C65.2631 183.396 39.3246 150.938 39.3246 111.559ZM110.696 187.037V87.2391H166.233C168.462 94.8753 169.672 103.057 169.672 111.559C169.672 150.936 143.737 183.393 110.696 187.037Z" fill="black"/>
<path d="M219.674 245.333H132.333C128.839 245.333 126 242.508 126 239.006C126 235.512 128.831 232.673 132.333 232.673H219.674C223.169 232.673 226 235.512 226 239.006C226 242.508 223.176 245.333 219.674 245.333Z" fill="#010002"/>
<path d="M176.004 289C172.509 289 169.67 286.169 169.67 282.674V195.333C169.67 191.839 172.509 189 176.004 189C179.499 189 182.33 191.839 182.33 195.333V282.674C182.33 286.176 179.506 289 176.004 289Z" fill="#010002"/>
</svg>
