<svg width="300" height="347" viewBox="0 0 300 347" fill="none" xmlns="http://www.w3.org/2000/svg">
<path d="M293.274 231.88C290.355 228.953 286.704 226.865 282.701 225.834V120.343C295.02 117.159 302.426 104.592 299.243 92.2735C296.059 79.9547 283.492 72.5486 271.174 75.732C267.187 76.7626 263.549 78.8426 260.639 81.7555L172.08 29.4251C172.71 27.3667 173.046 25.2305 173.079 23.0785C173.079 10.3327 162.746 0 150 0C137.254 0 126.922 10.3327 126.922 23.0785C126.954 25.2305 127.29 27.3667 127.92 29.4251L39.3618 81.7555C30.3756 72.7434 15.785 72.7225 6.77284 81.7086C-2.23931 90.6948 -2.26023 105.285 6.72596 114.298C9.64466 117.224 13.2961 119.312 17.2988 120.343V225.834C4.97993 229.018 -2.4261 241.585 0.757288 253.904C3.94068 266.223 16.5076 273.629 28.8265 270.445C32.8133 269.415 36.451 267.335 39.3611 264.422L127.919 316.752C124.211 328.947 131.091 341.838 143.286 345.546C155.48 349.254 168.372 342.374 172.08 330.179C173.41 325.803 173.41 321.129 172.08 316.752L260.638 264.422C269.624 273.434 284.214 273.455 293.227 264.469C302.239 255.482 302.26 240.892 293.274 231.88ZM276.932 86.5443C283.305 86.5443 288.471 91.7103 288.471 98.0835C288.471 104.457 283.305 109.623 276.932 109.623C270.558 109.623 265.392 104.457 265.392 98.0835C265.392 91.7103 270.558 86.5443 276.932 86.5443ZM150 11.5392C156.373 11.5392 161.539 16.7052 161.539 23.0785C161.539 29.4517 156.373 34.6177 150 34.6177C143.627 34.6177 138.461 29.4517 138.461 23.0785C138.461 16.7052 143.627 11.5392 150 11.5392ZM45.1487 91.737L133.707 39.4065C142.702 48.4049 157.289 48.4078 166.288 39.4123C166.29 39.4101 166.292 39.4079 166.293 39.4065L254.851 91.737C253.521 95.8637 253.521 100.303 254.851 104.43L150 166.384L45.1487 104.43C46.4794 100.303 46.4794 95.8637 45.1487 91.737ZM11.5292 98.0835C11.5292 91.7103 16.6951 86.5443 23.0684 86.5443C29.4417 86.5443 34.6076 91.7103 34.6076 98.0835C34.6076 104.457 29.4417 109.623 23.0684 109.623C16.6951 109.623 11.5292 104.457 11.5292 98.0835ZM23.0684 259.633C16.6951 259.633 11.5292 254.467 11.5292 248.094C11.5292 241.72 16.6951 236.554 23.0684 236.554C29.4417 236.554 34.6076 241.72 34.6076 248.094C34.6076 254.467 29.441 259.633 23.0684 259.633ZM45.1487 254.44C48.8197 242.521 42.1334 229.883 30.2141 226.211C29.7597 226.071 29.3003 225.946 28.838 225.834V120.343C32.8104 119.339 36.4417 117.291 39.356 114.412L144.23 176.383V300.84C140.257 301.844 136.624 303.892 133.707 306.771L45.1487 254.44ZM150 334.638C143.627 334.638 138.461 329.472 138.461 323.099C138.461 316.725 143.627 311.559 150 311.559C156.373 311.559 161.539 316.725 161.539 323.099C161.539 329.472 156.373 334.638 150 334.638ZM253.853 248.094C253.886 250.246 254.222 252.382 254.851 254.44L166.293 306.771C163.376 303.892 159.743 301.844 155.77 300.84V176.383L260.638 114.412C263.556 117.29 267.189 119.337 271.162 120.343V225.834C261.003 228.457 253.892 237.602 253.853 248.094ZM276.932 259.633C270.558 259.633 265.392 254.467 265.392 248.094C265.392 241.72 270.558 236.554 276.932 236.554C283.305 236.554 288.471 241.72 288.471 248.094C288.471 254.467 283.304 259.633 276.932 259.633Z" fill="black"/>
</svg>
