<svg height="504pt" viewBox="0 0 504 504" width="504pt" xmlns="http://www.w3.org/2000/svg"><path d="m458.730469 256h-413.460938c-2.207031 0-4-1.792969-4-4s1.792969-4 4-4h413.460938c2.207031 0 4 1.792969 4 4s-1.789063 4-4 4zm0 0" fill="#690589"/><path d="m252 462.730469c-2.207031 0-4-1.792969-4-4v-413.460938c0-2.207031 1.792969-4 4-4s4 1.792969 4 4v413.460938c0 2.210937-1.792969 4-4 4zm0 0" fill="#690589"/><path d="m86.539062 421.460938c-1.023437 0-2.046874-.390626-2.828124-1.171876-1.5625-1.5625-1.5625-4.09375 0-5.65625l330.921874-330.921874c1.5625-1.5625 4.09375-1.5625 5.65625 0s1.5625 4.09375 0 5.65625l-330.921874 330.921874c-.78125.78125-1.804688 1.171876-2.828126 1.171876zm0 0" fill="#690589"/><path d="m417.460938 421.460938c-1.023438 0-2.046876-.390626-2.828126-1.171876l-330.921874-330.921874c-1.5625-1.5625-1.5625-4.09375 0-5.65625s4.09375-1.5625 5.65625 0l330.921874 330.921874c1.5625 1.5625 1.5625 4.09375 0 5.65625-.78125.78125-1.804687 1.171876-2.828124 1.171876zm0 0" fill="#690589"/><path d="m102.839844 423.742188c-8.613282-21.101563-32.699219-31.222657-53.800782-22.613282-21.101562 8.613282-31.222656 32.703125-22.609374 53.804688 8.613281 21.101562 32.703124 31.226562 53.800781 22.613281 21.101562-8.613281 31.222656-32.703125 22.609375-53.804687zm0 0" fill="#ff4397"/><path d="m86.539062 252c0 22.792969-18.476562 41.269531-41.269531 41.269531s-41.269531-18.476562-41.269531-41.269531 18.476562-41.269531 41.269531-41.269531 41.269531 18.476562 41.269531 41.269531zm0 0" fill="#7bac51"/><path d="m500 252c0 22.792969-18.476562 41.269531-41.269531 41.269531s-41.269531-18.476562-41.269531-41.269531 18.476562-41.269531 41.269531-41.269531 41.269531 18.476562 41.269531 41.269531zm0 0" fill="#7bac51"/><path d="m477.5 423.566406c-8.722656-21.058594-32.863281-31.058594-53.921875-22.339844-21.058594 8.722657-31.054687 32.867188-22.332031 53.925782s32.863281 31.058594 53.921875 22.335937c21.054687-8.722656 31.054687-32.867187 22.332031-53.921875zm0 0" fill="#ff4397"/><path d="m71.21875 23.898438c-22.5-3.628907-43.683594 11.671874-47.3125 34.175781-3.628906 22.503906 11.671875 43.6875 34.171875 47.316406 22.503906 3.628906 43.6875-11.671875 47.316406-34.175781 3.628907-22.503906-11.671875-43.6875-34.175781-47.316406zm0 0" fill="#ff4397"/><path d="m445.976562 23.902344c-22.5-3.652344-43.695312 11.628906-47.347656 34.125-3.652344 22.5 11.625 43.699218 34.125 47.351562 22.496094 3.648438 43.695313-11.628906 47.347656-34.128906 3.648438-22.5-11.628906-43.695312-34.125-47.347656zm0 0" fill="#ff4397"/><path d="m439.355469 398.085938c-1.976563 0-3.90625.1875-5.8125.457031 20.03125 2.832031 35.457031 19.996093 35.457031 40.8125 0 20.8125-15.425781 37.980469-35.457031 40.808593 1.90625.273438 3.835937.457032 5.8125.457032 22.792969 0 41.269531-18.476563 41.269531-41.269532 0-22.789062-18.476562-41.265624-41.269531-41.265624zm0 0" fill="#e12579"/><path d="m64.644531 480.625c1.976563 0 3.90625-.1875 5.8125-.457031-20.03125-2.832031-35.457031-19.996094-35.457031-40.8125 0-20.8125 15.425781-37.980469 35.457031-40.8125-1.90625-.269531-3.835937-.453125-5.8125-.453125-22.792969 0-41.269531 18.476562-41.269531 41.269531 0 22.789063 18.476562 41.265625 41.269531 41.265625zm0 0" fill="#ff61b5"/><path d="m439.355469 23.375c-1.976563 0-3.90625.1875-5.8125.457031 20.03125 2.832031 35.457031 20 35.457031 40.8125s-15.425781 37.980469-35.457031 40.8125c1.90625.269531 3.835937.453125 5.8125.453125 22.792969 0 41.269531-18.472656 41.269531-41.269531 0-22.792969-18.476562-41.265625-41.269531-41.265625zm0 0" fill="#e12579"/><path d="m64.644531 105.914062c1.976563 0 3.90625-.1875 5.8125-.457031-20.03125-2.832031-35.457031-20-35.457031-40.8125 0-20.816406 15.425781-37.980469 35.457031-40.8125-1.90625-.269531-3.835937-.457031-5.8125-.457031-22.792969 0-41.269531 18.480469-41.269531 41.269531 0 22.792969 18.476562 41.269531 41.269531 41.269531zm0 0" fill="#ff61b5"/><path d="m260.566406 4.910156c-22.292968-4.738281-44.207031 9.492188-48.945312 31.789063-4.738282 22.292969 9.492187 44.207031 31.785156 48.945312 22.296875 4.738281 44.210938-9.492187 48.949219-31.785156 4.738281-22.296875-9.492188-44.210937-31.789063-48.949219zm0 0" fill="#7bac51"/><path d="m284.453125 433.253906c-14.066406-17.933594-40.003906-21.074218-57.941406-7.011718-17.933594 14.0625-21.074219 40.003906-7.011719 57.9375 14.0625 17.9375 40.003906 21.078124 57.941406 7.011718 17.933594-14.0625 21.074219-40 7.011719-57.9375zm0 0" fill="#7bac51"/><path d="m458.730469 210.730469c-1.976563 0-3.910157.1875-5.8125.457031 20.03125 2.832031 35.457031 20 35.457031 40.8125s-15.425781 37.980469-35.457031 40.8125c1.902343.269531 3.835937.457031 5.8125.457031 22.792969 0 41.265625-18.476562 41.265625-41.269531.003906-22.792969-18.472656-41.269531-41.265625-41.269531zm0 0" fill="#5d8e33"/><path d="m252 417.460938c-1.976562 0-3.90625.1875-5.8125.457031 20.03125 2.832031 35.457031 20 35.457031 40.8125s-15.425781 37.980469-35.457031 40.8125c1.90625.269531 3.835938.457031 5.8125.457031 22.792969 0 41.269531-18.476562 41.269531-41.269531s-18.476562-41.269531-41.269531-41.269531zm0 0" fill="#5d8e33"/><path d="m252 500c1.976562 0 3.90625-.1875 5.8125-.457031-20.03125-2.832031-35.457031-19.996094-35.457031-40.8125 0-20.8125 15.425781-37.980469 35.457031-40.808594-1.90625-.273437-3.835938-.457031-5.8125-.457031-22.792969 0-41.269531 18.476562-41.269531 41.269531 0 22.789063 18.476562 41.265625 41.269531 41.265625zm0 0" fill="#99ca6f"/><path d="m252 4c-1.976562 0-3.90625.1875-5.8125.457031 20.03125 2.832031 35.457031 19.996094 35.457031 40.8125 0 20.8125-15.425781 37.980469-35.457031 40.808594 1.90625.273437 3.835938.457031 5.8125.457031 22.792969 0 41.269531-18.476562 41.269531-41.269531 0-22.789063-18.476562-41.265625-41.269531-41.265625zm0 0" fill="#5d8e33"/><path d="m252 86.539062c1.976562 0 3.90625-.1875 5.8125-.457031-20.03125-2.832031-35.457031-20-35.457031-40.8125s15.425781-37.980469 35.457031-40.8125c-1.90625-.269531-3.835938-.457031-5.8125-.457031-22.792969 0-41.269531 18.476562-41.269531 41.269531s18.476562 41.269531 41.269531 41.269531zm0 0" fill="#99ca6f"/><path d="m45.269531 293.269531c1.976563 0 3.910157-.183593 5.8125-.457031-20.03125-2.832031-35.457031-20-35.457031-40.8125s15.425781-37.980469 35.457031-40.8125c-1.902343-.269531-3.835937-.457031-5.8125-.457031-22.792969 0-41.269531 18.476562-41.269531 41.269531s18.476562 41.269531 41.269531 41.269531zm0 0" fill="#99ca6f"/><path d="m316.996094 357.003906h-129.992188c-7.558594 0-13.6875-6.128906-13.6875-13.6875v-182.632812c0-7.558594 6.128906-13.6875 13.6875-13.6875h129.992188c7.558594 0 13.6875 6.128906 13.6875 13.6875v182.632812c0 7.558594-6.128906 13.6875-13.6875 13.6875zm0 0" fill="#f4efed"/><path d="m316.445312 146.996094h-16.421874c7.558593 0 13.683593 6.128906 13.683593 13.6875v182.628906c0 7.5625-6.128906 13.6875-13.683593 13.6875h16.421874c7.558594 0 13.6875-6.125 13.6875-13.6875v-182.628906c0-7.558594-6.128906-13.6875-13.6875-13.6875zm0 0" fill="#d6d1cf"/><path d="m187.003906 357.003906h16.421875c-7.558593 0-13.6875-6.128906-13.6875-13.6875v-182.632812c0-7.558594 6.128907-13.6875 13.6875-13.6875h-16.421875c-7.558594 0-13.6875 6.128906-13.6875 13.6875v182.628906c0 7.5625 6.128906 13.691406 13.6875 13.691406zm0 0" fill="#fff"/><g fill="#690589"><path d="m316.996094 361.003906h-129.992188c-9.753906 0-17.6875-7.9375-17.6875-17.6875v-182.632812c0-9.75 7.933594-17.6875 17.6875-17.6875h129.992188c9.753906 0 17.6875 7.9375 17.6875 17.6875v182.628906c0 9.753906-7.933594 17.691406-17.6875 17.691406zm-129.992188-210.007812c-5.34375 0-9.6875 4.347656-9.6875 9.6875v182.628906c0 5.339844 4.34375 9.6875 9.6875 9.6875h129.992188c5.34375 0 9.6875-4.347656 9.6875-9.6875v-182.628906c0-5.339844-4.34375-9.6875-9.6875-9.6875zm0 0"/><path d="m188.816406 201.113281c-2.207031 0-4-1.792969-4-4v-24c0-2.210937 1.792969-4 4-4 2.207032 0 4 1.789063 4 4v24c0 2.207031-1.789062 4-4 4zm0 0"/><path d="m64.644531 109.914062c-24.960937 0-45.269531-20.308593-45.269531-45.269531 0-24.960937 20.308594-45.269531 45.269531-45.269531 24.960938 0 45.269531 20.308594 45.269531 45.269531 0 24.960938-20.308593 45.269531-45.269531 45.269531zm0-82.539062c-20.550781 0-37.269531 16.71875-37.269531 37.269531s16.71875 37.269531 37.269531 37.269531 37.269531-16.71875 37.269531-37.269531-16.71875-37.269531-37.269531-37.269531zm0 0"/><path d="m252 90.539062c-24.960938 0-45.269531-20.308593-45.269531-45.269531 0-24.960937 20.308593-45.269531 45.269531-45.269531s45.269531 20.308594 45.269531 45.269531c0 24.960938-20.308593 45.269531-45.269531 45.269531zm0-82.539062c-20.550781 0-37.269531 16.71875-37.269531 37.269531 0 20.546875 16.71875 37.269531 37.269531 37.269531s37.269531-16.71875 37.269531-37.269531-16.71875-37.269531-37.269531-37.269531zm0 0"/><path d="m252 504c-24.960938 0-45.269531-20.308594-45.269531-45.269531 0-24.960938 20.308593-45.269531 45.269531-45.269531s45.269531 20.308593 45.269531 45.269531c0 24.960937-20.308593 45.269531-45.269531 45.269531zm0-82.539062c-20.550781 0-37.269531 16.71875-37.269531 37.269531s16.71875 37.269531 37.269531 37.269531 37.269531-16.71875 37.269531-37.269531-16.71875-37.269531-37.269531-37.269531zm0 0"/><path d="m439.355469 109.914062c-24.960938 0-45.269531-20.308593-45.269531-45.269531 0-24.960937 20.308593-45.269531 45.269531-45.269531 24.960937 0 45.269531 20.308594 45.269531 45.269531 0 24.960938-20.308594 45.269531-45.269531 45.269531zm0-82.539062c-20.550781 0-37.269531 16.71875-37.269531 37.269531s16.71875 37.269531 37.269531 37.269531 37.269531-16.71875 37.269531-37.269531-16.71875-37.269531-37.269531-37.269531zm0 0"/><path d="m458.730469 297.269531c-24.960938 0-45.269531-20.308593-45.269531-45.269531s20.308593-45.269531 45.269531-45.269531c24.960937 0 45.269531 20.308593 45.269531 45.269531s-20.308594 45.269531-45.269531 45.269531zm0-82.539062c-20.550781 0-37.269531 16.71875-37.269531 37.269531s16.71875 37.269531 37.269531 37.269531 37.269531-16.71875 37.269531-37.269531-16.71875-37.269531-37.269531-37.269531zm0 0"/><path d="m439.355469 484.625c-24.960938 0-45.269531-20.308594-45.269531-45.269531 0-24.960938 20.308593-45.269531 45.269531-45.269531 24.960937 0 45.269531 20.308593 45.269531 45.269531 0 24.960937-20.308594 45.269531-45.269531 45.269531zm0-82.539062c-20.550781 0-37.269531 16.71875-37.269531 37.269531s16.71875 37.269531 37.269531 37.269531 37.269531-16.71875 37.269531-37.269531-16.71875-37.269531-37.269531-37.269531zm0 0"/><path d="m45.269531 297.269531c-24.960937 0-45.269531-20.308593-45.269531-45.269531s20.308594-45.269531 45.269531-45.269531c24.960938 0 45.269531 20.308593 45.269531 45.269531s-20.308593 45.269531-45.269531 45.269531zm0-82.539062c-20.550781 0-37.269531 16.71875-37.269531 37.269531s16.71875 37.269531 37.269531 37.269531 37.269531-16.71875 37.269531-37.269531-16.71875-37.269531-37.269531-37.269531zm0 0"/><path d="m64.644531 484.625c-24.960937 0-45.269531-20.308594-45.269531-45.269531 0-24.960938 20.308594-45.269531 45.269531-45.269531 24.960938 0 45.269531 20.308593 45.269531 45.269531 0 24.960937-20.308593 45.269531-45.269531 45.269531zm0-82.539062c-20.550781 0-37.269531 16.71875-37.269531 37.269531s16.71875 37.269531 37.269531 37.269531 37.269531-16.71875 37.269531-37.269531-16.71875-37.269531-37.269531-37.269531zm0 0"/></g><path d="m228.242188 304.25-39.714844 11.226562 11.226562-39.714843 81.332032-81.335938c7.867187-7.867187 20.625-7.867187 28.488281 0 7.871093 7.867188 7.871093 20.625 0 28.488281zm0 0" fill="#fcc24c"/><path d="m188.527344 319.476562c-1.046875 0-2.070313-.414062-2.828125-1.171874-1.027344-1.023438-1.417969-2.523438-1.023438-3.917969l11.222657-39.714844c.1875-.65625.539062-1.257813 1.023437-1.738281l81.335937-81.335938c4.558594-4.558594 10.621094-7.070312 17.070313-7.070312 6.453125 0 12.515625 2.511718 17.074219 7.070312 9.414062 9.417969 9.414062 24.734375 0 34.148438l-81.335938 81.332031c-.480468.484375-1.082031.835937-1.738281 1.023437l-39.714844 11.226563c-.359375.097656-.726562.148437-1.085937.148437zm14.789062-41.625-8.996094 31.828126 31.828126-8.996094 80.597656-80.59375c6.292968-6.296875 6.292968-16.542969 0-22.835938-6.296875-6.296875-16.539063-6.292968-22.835938 0zm24.921875 26.398438h.023438zm0 0" fill="#690589"/><path d="m228.238281 308.25c-1.023437 0-2.042969-.390625-2.828125-1.171875l-28.488281-28.492187c-1.5625-1.5625-1.5625-4.09375 0-5.65625s4.09375-1.5625 5.65625 0l28.488281 28.492187c1.5625 1.5625 1.5625 4.09375 0 5.65625-.777344.78125-1.800781 1.171875-2.828125 1.171875zm0 0" fill="#690589"/><path d="m303.410156 233.082031c-1.023437 0-2.046875-.390625-2.828125-1.171875l-28.488281-28.492187c-1.5625-1.5625-1.5625-4.09375 0-5.65625 1.558594-1.5625 4.09375-1.5625 5.652344 0l28.492187 28.492187c1.5625 1.5625 1.5625 4.09375 0 5.65625-.78125.78125-1.804687 1.171875-2.828125 1.171875zm0 0" fill="#690589"/><path d="m213.996094 294.003906c-1.023438 0-2.046875-.390625-2.828125-1.171875-1.5625-1.5625-1.5625-4.09375 0-5.65625l75.167969-75.167969c1.5625-1.5625 4.09375-1.5625 5.65625 0s1.5625 4.09375 0 5.65625l-75.167969 75.167969c-.78125.78125-1.804688 1.171875-2.828125 1.171875zm0 0" fill="#690589"/></svg>