<svg width="221" height="292" viewBox="0 0 221 292" fill="none" xmlns="http://www.w3.org/2000/svg">
<path d="M195.516 154.586C193.57 152.635 191.136 151.243 188.468 150.556V80.2285C196.68 78.1062 201.617 69.7283 199.495 61.5157C197.373 53.3031 188.995 48.3658 180.782 50.488C178.125 51.1751 175.699 52.5617 173.759 54.5037L114.72 19.6167C115.14 18.2445 115.364 16.8204 115.386 15.3857C115.386 6.88845 108.497 0 100 0C91.5028 0 84.6144 6.88845 84.6144 15.3857C84.636 16.8204 84.8601 18.2445 85.2798 19.6167L26.2412 54.5037C20.2504 48.4956 10.5233 48.4816 4.51522 54.4724C-1.49287 60.4632 -1.50682 70.1903 4.48397 76.1984C6.42978 78.1495 8.86407 79.5414 11.5325 80.2285V150.556C3.31995 152.679 -1.6174 161.057 0.504858 169.269C2.62712 177.482 11.0051 182.419 19.2177 180.297C21.8755 179.61 24.3007 178.223 26.2407 176.281L85.2793 211.168C82.8075 219.298 87.3939 227.892 95.5238 230.364C103.654 232.836 112.248 228.25 114.72 220.12C115.607 217.202 115.607 214.086 114.72 211.168L173.758 176.281C179.749 182.289 189.476 182.303 195.484 176.312C201.493 170.322 201.507 160.594 195.516 154.586ZM184.621 57.6962C188.87 57.6962 192.314 61.1402 192.314 65.389C192.314 69.6379 188.87 73.0819 184.621 73.0819C180.372 73.0819 176.928 69.6379 176.928 65.389C176.928 61.1402 180.372 57.6962 184.621 57.6962ZM100 7.69283C104.249 7.69283 107.693 11.1368 107.693 15.3857C107.693 19.6345 104.249 23.0785 100 23.0785C95.7512 23.0785 92.3072 19.6345 92.3072 15.3857C92.3072 11.1368 95.7512 7.69283 100 7.69283ZM30.0992 61.158L89.1378 26.271C95.1348 32.27 104.859 32.2719 110.858 26.2748C110.86 26.2734 110.861 26.272 110.862 26.271L169.901 61.158C169.014 63.9091 169.014 66.8689 169.901 69.6201L100 110.923L30.0992 69.6201C30.9862 66.8689 30.9862 63.9091 30.0992 61.158ZM7.68611 65.389C7.68611 61.1402 11.1301 57.6962 15.3789 57.6962C19.6278 57.6962 23.0718 61.1402 23.0718 65.389C23.0718 69.6379 19.6278 73.0819 15.3789 73.0819C11.1301 73.0819 7.68611 69.6379 7.68611 65.389ZM15.3789 173.089C11.1301 173.089 7.68611 169.645 7.68611 165.396C7.68611 161.147 11.1301 157.703 15.3789 157.703C19.6278 157.703 23.0718 161.147 23.0718 165.396C23.0718 169.645 19.6273 173.089 15.3789 173.089ZM30.0992 169.627C32.5464 161.681 28.0889 153.255 20.1427 150.807C19.8398 150.714 19.5335 150.63 19.2254 150.556V80.2285C21.8736 79.5592 24.2944 78.1942 26.2374 76.2744L96.1536 117.589V200.56C93.5049 201.229 91.0826 202.595 89.1378 204.514L30.0992 169.627ZM100 223.092C95.7512 223.092 92.3072 219.648 92.3072 215.399C92.3072 211.15 95.7512 207.706 100 207.706C104.249 207.706 107.693 211.15 107.693 215.399C107.693 219.648 104.248 223.092 100 223.092ZM169.235 165.396C169.257 166.83 169.481 168.255 169.901 169.627L110.862 204.514C108.917 202.595 106.495 201.229 103.846 200.56V117.589L173.759 76.2744C175.704 78.1933 178.126 79.5583 180.775 80.2285V150.556C174.002 152.305 169.261 158.402 169.235 165.396ZM184.621 173.089C180.372 173.089 176.928 169.645 176.928 165.396C176.928 161.147 180.372 157.703 184.621 157.703C188.87 157.703 192.314 161.147 192.314 165.396C192.314 169.645 188.869 173.089 184.621 173.089Z" fill="black"/>
<path d="M214.674 248.333H127.333C123.839 248.333 121 245.508 121 242.006C121 238.512 123.831 235.673 127.333 235.673H214.674C218.169 235.673 221 238.512 221 242.006C221 245.508 218.176 248.333 214.674 248.333Z" fill="#010002"/>
<path d="M171.004 292C167.509 292 164.67 289.169 164.67 285.674V198.333C164.67 194.839 167.509 192 171.004 192C174.499 192 177.33 194.839 177.33 198.333V285.674C177.33 289.176 174.506 292 171.004 292Z" fill="#010002"/>
</svg>
