<svg width="300" height="287" viewBox="0 0 300 287" fill="none" xmlns="http://www.w3.org/2000/svg">
<path d="M291.106 151.241H261.063C260.033 134.253 256.057 117.915 249.422 103.004L275.787 86.9362C279.98 84.3796 281.307 78.907 278.751 74.7139C276.194 70.5208 270.724 69.191 266.528 71.7476L241.088 87.2543C237.54 81.5392 233.556 76.1169 229.145 71.0472C216.188 56.1562 200.562 45.3896 183.476 39.3013V27.8755C183.476 22.3137 188.001 17.7864 193.565 17.7864H203.103C208.015 17.7864 211.995 13.8039 211.995 8.89435C211.995 3.98254 208.015 0 203.103 0H193.565C178.194 0 165.69 12.5061 165.69 27.8755V34.7557C160.535 33.9363 155.296 33.5106 149.998 33.5106C144.699 33.5106 139.462 33.9363 134.31 34.7557V27.8755C134.31 12.5061 121.806 0 106.435 0H96.8971C91.9853 0 88.0051 3.98254 88.0051 8.89435C88.0051 13.8062 91.9853 17.7864 96.8971 17.7864H106.435C111.999 17.7864 116.524 22.3137 116.524 27.8755V39.299C99.4377 45.3873 83.8097 56.1562 70.8504 71.0495C66.4398 76.1169 62.455 81.5392 58.9096 87.252L33.4717 71.7476C29.2763 69.191 23.806 70.5208 21.2494 74.7139C18.6928 78.9093 20.0203 84.3796 24.2157 86.9362L50.5737 103.004C43.9384 117.915 39.9651 134.253 38.9351 151.241H8.89435C3.98254 151.241 0 155.223 0 160.133C0 165.044 3.98254 169.027 8.89435 169.027H38.9351C39.9651 186.015 43.9384 202.352 50.5737 217.266L24.2157 233.331C20.0203 235.888 18.6928 241.36 21.2494 245.554C22.9248 248.302 25.8522 249.82 28.8506 249.82C30.4276 249.82 32.0274 249.399 33.4717 248.52L58.9096 233.015C62.4573 238.728 66.4421 244.151 70.8504 249.218C91.9144 273.425 120.023 286.757 149.998 286.757H150C179.974 286.755 208.083 273.425 229.145 249.218C233.556 244.151 237.54 238.728 241.088 233.013L266.528 248.52C267.973 249.401 269.57 249.82 271.147 249.82C274.148 249.82 277.075 248.302 278.751 245.554C281.307 241.36 279.98 235.888 275.784 233.331L249.422 217.264C256.057 202.352 260.03 186.015 261.06 169.027H291.106C296.017 169.027 300 165.047 300 160.135C300 155.223 296.017 151.241 291.106 151.241V151.241ZM149.998 51.297C185.159 51.297 215.847 73.9861 231.828 107.437H68.1702C84.1484 73.9861 114.837 51.297 149.998 51.297V51.297ZM56.4468 160.133C56.4468 147.929 58.1841 136.187 61.3838 125.224H141.106V268.474C93.679 263.248 56.4468 216.657 56.4468 160.133ZM158.894 268.474V125.224H238.612C241.811 136.185 243.549 147.929 243.549 160.133C243.549 216.655 206.321 263.244 158.894 268.474Z" fill="black"/>
</svg>
