<svg height="512pt" viewBox="0 -3 512 511" width="512pt" xmlns="http://www.w3.org/2000/svg"><path d="m179.503906 94.011719-54-67.503907c-5.527344-6.902343-4.40625-16.976562 2.496094-22.496093 6.902344-5.527344 16.972656-4.410157 22.496094 2.496093l54 67.503907zm0 0" fill="#3c3c47"/><path d="m332.496094 94.011719-24.992188-20 54-67.503907c5.523438-6.90625 15.59375-8.023437 22.496094-2.496093 6.902344 5.519531 8.023438 15.59375 2.496094 22.496093zm0 0" fill="#3c3c47"/><path d="m176 38.332031 28.480469 35.679688-24.960938 20-26.078125-32.480469c6.515625-8.648438 14.09375-16.445312 22.558594-23.199219zm0 0" fill="#31313b"/><path d="m358.558594 61.53125-26.078125 32.480469-24.960938-20 28.480469-35.679688c8.464844 6.753907 16.042969 14.550781 22.558594 23.199219zm0 0" fill="#31313b"/><path d="m352 138.011719c0 53.019531-42.980469 96-96 96s-96-42.980469-96-96 42.980469-96 96-96 96 42.980469 96 96zm0 0" fill="#708299"/><g fill="#3c3c47"><path d="m96 330.011719h-80c-8.835938 0-16-7.164063-16-16 0-8.835938 7.164062-16 16-16h80zm0 0"/><path d="m496 330.011719h-80v-32h80c8.835938 0 16 7.164062 16 16 0 8.835937-7.164062 16-16 16zm0 0"/><path d="m144 234.011719h-86.625l-41.375-41.378907c-6.246094-6.246093-6.246094-16.375 0-22.621093 6.246094-6.246094 16.375-6.246094 22.625 0l32 32h73.375zm0 0"/><path d="m454.625 234.011719h-86.625v-32h73.375l32-32c6.25-6.246094 16.378906-6.246094 22.625 0 6.246094 6.246093 6.246094 16.375 0 22.621093zm0 0"/><path d="m32 474.011719c-7.90625-3.953125-11.109375-13.570313-7.152344-21.472657l29.265625-58.527343h57.886719v32h-38.113281l-20.414063 40.847656c-3.953125 7.90625-13.570312 11.105469-21.472656 7.152344zm0 0"/><path d="m458.527344 466.859375-20.414063-40.847656h-38.113281v-32h57.886719l29.265625 58.527343c3.957031 7.902344.753906 17.519532-7.152344 21.472657-7.902344 3.953125-17.519531.753906-21.472656-7.152344zm0 0"/></g><path d="m256 122.011719c-33.300781 0-66.105469 8.058593-95.617188 23.488281 3.878907 49.933594 45.53125 88.476562 95.617188 88.476562s91.738281-38.542968 95.617188-88.476562c-29.511719-15.429688-62.316407-23.488281-95.617188-23.488281zm0 0" fill="#68788e"/><path d="m432 330.011719c0 97.199219-78.796875 176-176 176s-176-78.800781-176-176c0-97.203125 78.796875-176 176-176s176 78.796875 176 176zm0 0" fill="#ff6853"/><path d="m160 250.011719h32v32h-32zm0 0" fill="#fff"/><path d="m128 314.011719h32v32h-32zm0 0" fill="#fff"/><path d="m160 378.011719h32v32h-32zm0 0" fill="#fff"/><path d="m320 250.011719h32v32h-32zm0 0" fill="#fff"/><path d="m352 314.011719h32v32h-32zm0 0" fill="#fff"/><path d="m320 378.011719h32v32h-32zm0 0" fill="#fff"/><path d="m240 505.195312c5.28125.480469 10.59375.816407 16 .816407s10.71875-.335938 16-.816407v-350.402343c-5.28125-.476563-10.59375-.8125-16-.8125s-10.71875.335937-16 .8125zm0 0" fill="#f45747"/></svg>