<svg  viewBox="0 0 512 512"  xmlns="http://www.w3.org/2000/svg"><path d="m457 373.128906v-67.636718h-186v-31.503907l100-60v-144.988281l-115-69-115 69v144.988281l100 60v31.503907h-186v67.636718c-31.410156 6.886719-55 34.914063-55 68.363282 0 38.601562 31.402344 70 70 70s70-31.398438 70-70c0-33.445313-23.589844-61.476563-55-68.363282v-37.636718h156v37.636718c-31.410156 6.886719-55 34.914063-55 68.363282 0 38.601562 31.402344 70 70 70s70-31.398438 70-70c0-33.445313-23.589844-61.476563-55-68.363282v-37.636718h156v37.636718c-31.410156 6.886719-55 34.914063-55 68.363282 0 38.601562 31.402344 70 70 70s70-31.398438 70-70c0-33.449219-23.589844-61.476563-55-68.363282zm-186-134.128906v-75.011719l70-42v75.011719zm-15-204.011719 85 51v1.011719l-85 51-85-51v-1.011719zm-85 86.996094 70 42v75.015625l-70-42zm-61 319.507813c0 22.058593-17.945312 40-40 40s-40-17.941407-40-40c0-22.054688 17.945312-40 40-40s40 17.945312 40 40zm186 0c0 22.058593-17.945312 40-40 40s-40-17.941407-40-40c0-22.054688 17.945312-40 40-40s40 17.945312 40 40zm146 40c-22.054688 0-40-17.941407-40-40 0-22.054688 17.945312-40 40-40s40 17.945312 40 40c0 22.058593-17.945312 40-40 40zm0 0"/></svg>