<?xml version="1.0" encoding="iso-8859-1"?>
<!-- Generator: Adobe Illustrator 19.0.0, SVG Export Plug-In . SVG Version: 6.00 Build 0)  -->
<svg xmlns="http://www.w3.org/2000/svg" xmlns:xlink="http://www.w3.org/1999/xlink" version="1.1" id="Layer_1" x="0px" y="0px" viewBox="0 0 512.204 512.204" style="enable-background:new 0 0 512.204 512.204;" xml:space="preserve" width="512" height="512">
<g id="XMLID_1062_">
	<g id="XMLID_727_">
		<path id="XMLID_728_" d="M328.945,285.952c-1.86,1.86-2.92,4.44-2.92,7.07c0,2.64,1.06,5.21,2.92,7.07    c1.87,1.869,4.44,2.93,7.07,2.93c2.64,0,5.21-1.061,7.08-2.93c1.86-1.86,2.92-4.44,2.92-7.07s-1.06-5.2-2.92-7.07    c-1.86-1.859-4.44-2.92-7.08-2.92C333.385,283.032,330.805,284.092,328.945,285.952z"/>
		<path id="XMLID_1327_" d="M505.875,475.27l-0.631-0.631l-26.41-110.984c-11.297-47.474-53.27-80.63-102.069-80.63h-0.746    c-5.523,0-10,4.478-10,10s4.477,10,10,10h0.746c39.497,0,73.468,26.836,82.612,65.261l18.888,79.374l-85.167-85.167    c-1.875-1.875-4.419-2.929-7.071-2.929h-44.52c-1.266,0-2.494,0.249-3.637,0.696c-24.768-14.305-53-21.875-81.768-21.875    c-28.828,0-56.987,7.551-81.782,21.87c-1.139-0.443-2.362-0.691-3.623-0.691h-44.52c-2.652,0-5.196,1.054-7.071,2.929    l-85.228,85.228l18.769-79.329c9.106-38.487,43.088-65.367,82.638-65.367h76.719c12.165,10.718,27.614,16.587,43.972,16.587    c17.798,0,34.53-6.931,47.116-19.516c1.875-1.876,2.929-4.419,2.929-7.071v-51.309c21.825-13.673,37.694-36.002,42.762-62.142    h7.776c18.748,0,34-15.252,34-34v-5.393c0-18.748-15.252-34-34-34h-6.044V94.64c0-52.129-42.41-94.538-94.538-94.538    s-94.538,42.409-94.538,94.538v11.542h-6.044c-18.748,0-34,15.252-34,34v5.393c0,18.748,15.252,34,34,34h7.776    c5.068,26.14,20.937,48.469,42.762,62.142v41.309h-70.646c-23.524,0-46.64,8.037-65.09,22.631    c-18.45,14.595-31.594,35.239-37.01,58.131L6.956,474.644L6.33,475.27c-6.192,6.192-8.028,15.422-4.677,23.513    c3.352,8.092,11.176,13.319,19.933,13.319h67.707c3.534,0,6.806-1.865,8.606-4.907l33.561-56.713l3.071,1.975    c2.992,1.923,6.246,3.177,9.576,3.817c-5.809,14.143-9.021,29.616-9.021,45.828c0,5.522,4.477,10,10,10s10-4.478,10-10    c0-24.257,8.596-46.542,22.899-63.975l42.451,42.452c-3.808,6.286-6.003,13.653-6.003,21.523c0,5.522,4.477,10,10,10    s10-4.478,10-10c0-11.947,9.72-21.668,21.668-21.668s21.668,9.721,21.668,21.668c0,5.522,4.477,10,10,10s10-4.478,10-10    c0-7.87-2.195-15.237-6.003-21.523l42.451-42.451c14.303,17.433,22.899,39.718,22.899,63.975c0,5.522,4.477,10,10,10    s10-4.478,10-10c0-16.212-3.212-31.685-9.021-45.828c3.33-0.64,6.584-1.894,9.576-3.817l3.071-1.975l33.561,56.713    c1.8,3.042,5.072,4.907,8.606,4.907h67.707c8.757,0,16.582-5.228,19.933-13.319C513.903,490.692,512.067,481.463,505.875,475.27z     M370.557,140.182v5.393c0,7.72-6.28,14-14,14h-6.044v-33.393h6.044C364.277,126.182,370.557,132.463,370.557,140.182z     M181.437,94.64c0-41.101,33.438-74.538,74.538-74.538s74.538,33.438,74.538,74.538v11.542h-26.261    c-5.24,0-10.267-1.396-14.652-4.013c5.533-3.999,10.785-8.469,15.706-13.39c3.905-3.905,3.905-10.237,0-14.143    c-3.905-3.904-10.237-3.904-14.142,0c-20.341,20.342-47.387,31.545-76.155,31.545h-33.571V94.64z M141.393,145.575v-5.393    c0-7.72,6.28-14,14-14h6.044v33.393h-6.044C147.673,159.575,141.393,153.295,141.393,145.575z M181.438,161.567v-35.385h33.571    c19.801,0,38.914-4.476,56.183-12.95c9.022,8.366,20.688,12.95,33.061,12.95h26.261v35.365c0,41.101-33.438,74.538-74.538,74.538    C214.881,236.086,181.448,202.658,181.438,161.567z M255.975,256.086c10.498,0,20.601-1.723,30.044-4.896v37.457    c-17.297,14.594-42.792,14.594-60.089,0V251.19C235.374,254.363,245.477,256.086,255.975,256.086z M325.895,376.458l-8.111,13.877    c-1.15,1.968-2.022,4.041-2.639,6.165c-17.476-9.81-37.616-15.415-59.043-15.415c-21.427,0-41.567,5.605-59.043,15.415    c-0.617-2.124-1.489-4.196-2.639-6.164l-8.109-13.874c21.268-11.834,45.247-18.076,69.791-18.076    C280.597,358.386,304.644,364.633,325.895,376.458z M83.591,492.102H21.586c-0.288,0-1.053,0-1.456-0.973s0.138-1.514,0.342-1.717    l56.839-56.839l26.076,26.076L83.591,492.102z M133.547,428.048c-2.284-1.469-5.067-1.947-7.712-1.319    c-2.643,0.626-4.918,2.3-6.301,4.638l-5.63,9.514l-22.449-22.449l38.866-38.866h34.64l12.194,20.864    c1.58,2.702,1.28,6.121-0.745,8.508l-21.433,25.261c-2.387,2.813-6.527,3.428-9.63,1.436L133.547,428.048z M234.579,466.437    l-42.451-42.452c17.433-14.303,39.718-22.899,63.975-22.899s46.542,8.596,63.975,22.899l-42.452,42.452    c-6.286-3.808-13.653-6.002-21.523-6.002C248.232,460.434,240.865,462.629,234.579,466.437z M378.658,428.047l-11.8,7.586    c-3.103,1.996-7.243,1.378-9.629-1.435l-21.433-25.261c-2.025-2.387-2.325-5.806-0.745-8.509l12.194-20.863h34.64l38.866,38.866    l-22.449,22.449l-5.63-9.514c-1.383-2.338-3.658-4.012-6.301-4.638C383.726,426.102,380.943,426.579,378.658,428.047z     M492.074,491.13c-0.403,0.973-1.167,0.973-1.456,0.973h-62.005l-19.796-33.452l26.076-26.076l56.839,56.839    C491.936,489.616,492.477,490.157,492.074,491.13z"/>
	</g>
</g>















</svg>
