<?xml version="1.0" encoding="iso-8859-1"?>
<!-- Generator: Adobe Illustrator 19.0.0, SVG Export Plug-In . SVG Version: 6.00 Build 0)  -->
<svg xmlns="http://www.w3.org/2000/svg" xmlns:xlink="http://www.w3.org/1999/xlink" version="1.1" id="Layer_1" x="0px" y="0px" viewBox="0 0 512 512" style="enable-background:new 0 0 512 512;" xml:space="preserve" width="512" height="512">
<g>
	<path d="M256,512c140.959,0,256-115.049,256-256C512,115.041,396.951,0,256,0C115.041,0,0,115.049,0,256   C0,396.959,115.049,512,256,512z M31.264,232.1l29.312,5.168l5.209-29.544l-29.38-5.18c10.329-42.427,32.656-80.206,63.183-109.516   l19.797,23.593l22.98-19.284l-19.812-23.611C156.193,49.031,196.885,33.415,241,30.51V61h30V30.51   c44.503,2.931,85.527,18.792,119.337,43.866l-19.266,22.962l22.981,19.283l19.149-22.822c30.138,29.218,52.18,66.73,62.412,108.819   l-28.964,5.107l5.209,29.544l28.886-5.093C481.569,240.007,482,247.954,482,256c0,35.676-8.322,69.441-23.107,99.475l-25.3-14.607   l-15,25.98l25.296,14.605c-23.802,35.532-57.407,63.962-96.913,81.404l-9.969-27.39l-28.191,10.261l9.969,27.39   C298.843,478.894,277.778,482,256,482c-21.635,0-42.567-3.062-62.392-8.765l10.011-27.507l-28.191-10.261l-10.029,27.554   c-39.549-17.375-73.21-45.751-97.075-81.245L94.7,366.929l-14.715-26.143L53.279,355.82C38.387,325.699,30,291.813,30,256   C30,247.928,30.434,239.956,31.264,232.1z"/>
	<path d="M256,406c40.043,0,77.854-15.599,106.469-43.923C391.186,333.651,407,295.979,407,256s-15.814-77.651-44.531-106.077   C333.854,121.599,296.043,106,256,106c-82.71,0-150,67.29-150,150S173.29,406,256,406z M256,211c24.813,0,45,20.187,45,45   s-20.187,45-45,45s-45-20.187-45-45S231.187,211,256,211z M214.67,318.542c7.869,5.218,16.768,9,26.33,10.948v45.573   c-21.879-2.74-41.944-11.396-58.543-24.309L214.67,318.542z M271,329.491c9.562-1.948,18.46-5.731,26.33-10.948l32.478,32.478   c-16.701,12.789-36.849,21.353-58.807,24.058V329.491z M297.33,193.458c-7.869-5.218-16.768-9-26.33-10.948v-45.588   c21.958,2.705,42.106,11.269,58.808,24.058L297.33,193.458z M241,182.509c-9.562,1.948-18.46,5.731-26.33,10.948l-32.213-32.213   c16.599-12.912,36.663-21.568,58.542-24.308V182.509z M193.458,214.67c-5.218,7.869-9,16.768-10.948,26.33h-45.573   c2.74-21.88,11.396-41.944,24.309-58.543L193.458,214.67z M182.509,271c1.948,9.562,5.731,18.46,10.948,26.33l-32.213,32.213   c-12.912-16.599-21.568-36.663-24.309-58.543H182.509z M351.201,329.988l-32.658-32.659c5.218-7.869,9-16.778,10.948-26.34h46.566   C373.269,293.064,364.413,313.304,351.201,329.988z M376.056,241h-46.566c-1.948-9.562-5.731-18.46-10.948-26.33l32.658-32.658   C364.414,198.696,373.269,218.926,376.056,241z"/>
	<path d="M256,286c16.542,0,30-13.458,30-30s-13.458-30-30-30s-30,13.458-30,30S239.458,286,256,286z"/>
</g>















</svg>
