<svg width="705" height="684" viewBox="0 0 705 684" fill="none" xmlns="http://www.w3.org/2000/svg">
<path d="M61.9679 153.667L61.9679 153.667L1.68667 415.917C0.279555 422.025 0.122075 428.35 1.22356 434.52C2.32494 440.689 4.66263 446.576 8.09811 451.832C8.93126 453.117 9.8273 454.361 10.783 455.559L10.7843 455.561L179.909 665.842L180.299 665.529L179.909 665.842C184.334 671.342 189.951 675.782 196.343 678.833C202.735 681.884 209.737 683.468 216.83 683.466L488.049 683.404C495.139 683.409 502.14 681.83 508.531 678.785C514.923 675.74 520.541 671.305 524.969 665.811L524.97 665.811L694.032 455.498C698.459 449.996 701.579 443.574 703.16 436.711C704.741 429.847 704.741 422.718 703.161 415.854L642.786 153.604C641.207 146.743 638.089 140.324 633.665 134.823C629.241 129.322 623.625 124.88 617.233 121.828L372.858 5.14016C365.733 1.73597 357.86 0.161382 349.961 0.560745C343.682 0.877065 337.529 2.43395 331.865 5.1402L332.08 5.59136L331.865 5.14022L87.5209 121.89C87.5209 121.89 87.5209 121.89 87.5209 121.89C81.1293 124.943 75.5129 129.384 71.089 134.885C66.6651 140.387 63.5474 146.806 61.9679 153.667Z" fill="#2F8EE6" stroke="black" stroke-linejoin="round"/>
<circle cx="351" cy="349" r="18.5" fill="white" stroke="white" stroke-width="3"/>
<path d="M169.5 210C169.5 227.376 155.194 241.5 137.5 241.5C119.806 241.5 105.5 227.376 105.5 210C105.5 192.624 119.806 178.5 137.5 178.5C155.194 178.5 169.5 192.624 169.5 210Z" fill="white" stroke="white" stroke-width="3"/>
<path d="M278.5 383.559C278.5 390.729 272.498 396.618 265 396.618C257.502 396.618 251.5 390.729 251.5 383.559C251.5 376.389 257.502 370.5 265 370.5C272.498 370.5 278.5 376.389 278.5 383.559Z" fill="white" stroke="white" stroke-width="3"/>
<circle cx="575.5" cy="156.5" r="21" fill="white" stroke="white" stroke-width="3"/>
<circle cx="580" cy="409" r="18.5" fill="white" stroke="white" stroke-width="3"/>
<circle cx="349" cy="201" r="18.5" fill="white" stroke="white" stroke-width="3"/>
<circle cx="231" cy="594" r="23.5" fill="white" stroke="white" stroke-width="3"/>
<path d="M467.5 506.552C467.5 522.024 454.761 534.604 439 534.604C423.239 534.604 410.5 522.024 410.5 506.552C410.5 491.081 423.239 478.5 439 478.5C454.761 478.5 467.5 491.081 467.5 506.552Z" fill="white" stroke="white" stroke-width="3"/>
<line x1="349.922" y1="348.452" x2="573.374" y2="153.983" stroke="white" stroke-width="8"/>
<line x1="350.659" y1="351.563" x2="346.001" y2="201.093" stroke="white" stroke-width="6"/>
<line x1="353.231" y1="354.027" x2="580.231" y2="408.027" stroke="white" stroke-width="2"/>
<line x1="351.303" y1="348.924" x2="443.303" y2="504.454" stroke="white" stroke-width="10"/>
<line x1="352.896" y1="352.407" x2="265.348" y2="384.937" stroke="white" stroke-width="2"/>
<line x1="354.336" y1="352.366" x2="232.788" y2="594.896" stroke="white" stroke-width="4"/>
<line x1="357.967" y1="355.877" x2="134.542" y2="215.504" stroke="white" stroke-width="13"/>
<circle cx="351" cy="349" r="91.5" stroke="white" stroke-width="7"/>
<circle cx="354" cy="349" r="173.5" stroke="white" stroke-width="3"/>
</svg>
