<svg width="20" height="20" xmlns="http://www.w3.org/2000/svg">


  <g stroke="null" id="svg_6">
   <path stroke="null" class="st0" d="m3.02052,7.54297c2.52876,0 4.91895,0.60519 6.99739,1.62444l7.41307,-8.18592l-14.68759,0l0,16.24444l0,-9.68297l0.27712,0l0,0.00001z" fill="#e9478b" id="svg_1"/>
   <path stroke="null" class="st1" d="m10.01791,9.16741l-7.27451,8.05852l0,1.27408l14.65294,0c-0.83137,-4.01333 -3.60261,-7.42148 -7.37844,-9.33259l0.00001,0z" fill="#3ebeb0" id="svg_2"/>
   <path stroke="null" class="st2" d="m10.01791,9.16741l-7.27451,8.05852l0,1.27408l2.59804,0l7.06666,-7.83556s-0.48496,-0.35037 -1.14314,-0.7963c-0.48496,-0.31852 -1.24706,-0.70074 -1.24706,-0.70074l0.00001,0z" fill="#37a595" id="svg_3"/>
   <path stroke="null" class="st3" d="m3.02052,7.54297l-0.27712,0l0,9.68297l7.27451,-8.05852c-2.07844,-1.01926 -4.46863,-1.62444 -6.99739,-1.62444l0,-0.00001z" fill="#353535" id="svg_4"/>
   <path stroke="null" class="st4" d="m13.89764,-3l10.04575,0l0,10.51111l-10.04575,0l0,-10.51111z" fill="none" id="svg_5"/>
  </g>


</svg>