<svg width="300" height="291" viewBox="0 0 300 291" fill="none" xmlns="http://www.w3.org/2000/svg">
<path d="M247.286 115.304L300 85.1855L150.003 0L0 85.1855L52.7141 115.304L0 145.237L52.7141 175.355L0 205.288L150.003 290.987L300 205.288L247.286 175.355L300 145.237L247.286 115.304ZM150.003 12.5562L277.939 85.2128L150.003 158.312L22.0607 85.2128L150.003 12.5562ZM63.7363 121.598L150.003 170.884L236.269 121.598L277.939 145.264L150.003 218.363L22.0607 145.264L63.7363 121.598ZM277.939 205.315L150.003 278.414L22.0607 205.315L63.7363 181.65L150.003 230.936L236.269 181.65L277.939 205.315Z" fill="black"/>
</svg>
