<svg width="703" height="682" viewBox="0 0 703 682" fill="none" xmlns="http://www.w3.org/2000/svg">
<path d="M348.986 0.060112C342.773 0.373111 336.685 1.91365 331.08 4.59136L86.7364 121.341C80.4123 124.362 74.8554 128.756 70.4787 134.199C66.1019 139.641 63.0177 145.992 61.4552 152.779L1.17391 415.029C-0.218076 421.071 -0.373858 427.329 0.71578 433.432C1.80542 439.535 4.11834 445.359 7.51766 450.56C8.34191 451.832 9.22839 453.062 10.1739 454.248L179.299 664.529C183.677 669.97 189.234 674.363 195.558 677.382C201.883 680.401 208.812 681.968 215.83 681.966L487.049 681.904C494.065 681.909 500.992 680.347 507.316 677.334C513.641 674.32 519.199 669.933 523.58 664.498L692.643 454.185C697.023 448.741 700.109 442.388 701.673 435.598C703.236 428.808 703.237 421.756 701.674 414.966L641.299 152.716C639.736 145.929 636.652 139.579 632.275 134.136C627.899 128.694 622.342 124.299 616.018 121.279L371.643 4.59136C364.592 1.22302 356.802 -0.335065 348.986 0.060112V0.060112Z" fill="#2F8EE6"/>
<circle cx="350" cy="358" r="18.5" fill="white" stroke="white" stroke-width="3"/>
<path d="M168.5 219C168.5 236.376 154.194 250.5 136.5 250.5C118.806 250.5 104.5 236.376 104.5 219C104.5 201.624 118.806 187.5 136.5 187.5C154.194 187.5 168.5 201.624 168.5 219Z" fill="white" stroke="white" stroke-width="3"/>
<path d="M277.5 392.559C277.5 399.729 271.498 405.618 264 405.618C256.502 405.618 250.5 399.729 250.5 392.559C250.5 385.389 256.502 379.5 264 379.5C271.498 379.5 277.5 385.389 277.5 392.559Z" fill="white" stroke="white" stroke-width="3"/>
<circle cx="574.5" cy="165.5" r="21" fill="white" stroke="white" stroke-width="3"/>
<circle cx="579" cy="418" r="18.5" fill="white" stroke="white" stroke-width="3"/>
<circle cx="348" cy="210" r="18.5" fill="white" stroke="white" stroke-width="3"/>
<circle cx="230" cy="603" r="23.5" fill="white" stroke="white" stroke-width="3"/>
<path d="M466.5 515.552C466.5 531.024 453.761 543.604 438 543.604C422.239 543.604 409.5 531.024 409.5 515.552C409.5 500.081 422.239 487.5 438 487.5C453.761 487.5 466.5 500.081 466.5 515.552Z" fill="white" stroke="white" stroke-width="3"/>
<line x1="348.922" y1="357.452" x2="572.374" y2="162.983" stroke="white" stroke-width="8"/>
<line x1="349.659" y1="360.563" x2="345.001" y2="210.093" stroke="white" stroke-width="6"/>
<line x1="352.231" y1="363.027" x2="579.231" y2="417.027" stroke="white" stroke-width="2"/>
<line x1="350.303" y1="357.924" x2="442.303" y2="513.454" stroke="white" stroke-width="10"/>
<line x1="351.896" y1="361.407" x2="264.348" y2="393.937" stroke="white" stroke-width="2"/>
<line x1="353.336" y1="361.366" x2="231.788" y2="603.896" stroke="white" stroke-width="4"/>
<line x1="356.967" y1="364.877" x2="133.542" y2="224.504" stroke="white" stroke-width="13"/>
<circle cx="350" cy="358" r="91.5" stroke="white" stroke-width="7"/>
<circle cx="353" cy="358" r="173.5" stroke="white" stroke-width="3"/>
</svg>
