<svg width="862" height="916" viewBox="0 0 862 916" fill="none" xmlns="http://www.w3.org/2000/svg">
<path d="M606.077 123.462L757.903 234.411C758.564 234.894 759.493 234.422 759.493 233.604L759.493 89.9121C759.493 81.3377 757.451 72.8866 753.536 65.258L749.796 57.969C742.824 44.3831 728.837 35.8397 713.567 35.8397C703.191 35.8397 693.207 39.8003 685.653 46.9128L605.981 121.926C605.526 122.355 605.572 123.092 606.077 123.462Z" fill="#50CBE5" stroke="black" stroke-width="6"/>
<path d="M3 499.012C3 727.016 194.446 912.027 430.83 912.027C667.213 912.027 858.659 727.016 858.659 499.012C858.659 271.008 667.213 85.9963 430.83 85.9963C194.446 85.9963 3 271.008 3 499.012Z" fill="#30A8FF" stroke="black" stroke-width="6"/>
<ellipse rx="162.758" ry="157.161" transform="matrix(-1 0 0 1 547.621 351.128)" fill="#7ECEF0"/>
<path d="M405.021 351.109C405.021 427.11 468.837 488.781 547.631 488.781C626.426 488.781 690.241 427.11 690.241 351.109C690.241 275.108 626.426 213.437 547.631 213.437C468.837 213.437 405.021 275.108 405.021 351.109Z" fill="white" stroke="black" stroke-width="2"/>
<ellipse rx="124.462" ry="120.182" transform="matrix(-1 0 0 1 547.632 351.118)" fill="#B6B4B1"/>
<ellipse rx="95.7399" ry="92.4478" transform="matrix(-1 0 0 1 547.625 351.109)" fill="black"/>
<ellipse rx="28.722" ry="27.7344" transform="matrix(-1 0 0 1 620.392 314.122)" fill="white"/>
<ellipse rx="19.148" ry="18.4896" transform="matrix(-1 0 0 1 476.788 402.911)" fill="white"/>
<path d="M8.58215 461.707C-10.4513 635.087 111.582 909 429.159 909C660.393 909 855.659 728.517 855.659 502C740.493 815.227 625.113 707.793 571.819 667.71C518.525 627.628 459.522 568.901 354.838 473.823C250.154 378.744 130.396 405.778 8.58215 461.707Z" fill="url(#paint0_linear)" fill-opacity="0.52"/>
<path d="M8.07574 512.225C-1.44312 649.309 152.477 911 440.003 911C659.889 911 843.296 724.34 853.659 535.624C729.07 836.242 627.302 727.608 576.668 693.524C526.034 659.441 469.975 609.503 370.515 528.655C271.056 447.807 108.976 423.635 8.07574 512.225Z" fill="url(#paint1_linear)" fill-opacity="0.52"/>
<path d="M684.97 489.479C673.031 490.991 663.484 496.068 657.777 507.976C656.424 517.721 658.356 530.814 662.959 545.166C667.602 559.64 674.886 575.161 683.91 589.414C692.94 603.676 703.656 616.578 715.117 625.888C726.537 635.164 738.492 640.712 750.138 640.773C800.159 632.819 831.972 595.412 840.947 559.043C845.33 541.285 847.499 525.864 847.654 513.182C847.81 500.457 845.936 490.701 842.434 484.11C839.001 477.647 834.047 474.256 827.634 473.86C821.104 473.457 812.667 476.135 802.361 482.844C795.06 494.063 783.331 497.772 770.161 498.124C758.161 498.446 744.465 495.996 730.98 493.583C729.567 493.33 728.155 493.078 726.748 492.829C711.735 490.174 697.218 487.928 684.97 489.479Z" fill="#E15C5C" stroke="black" stroke-width="5"/>
<path d="M702.885 574.989C700.689 584.843 699.672 595.919 703.473 606.194C707.272 616.463 715.895 625.965 733.049 632.643C753.261 636.791 768.574 635.342 780.491 631.056C792.413 626.767 800.954 619.633 807.611 612.383C813.994 605.431 816.623 599.386 816.454 594.067C816.286 588.752 813.323 584.11 808.401 579.97C803.479 575.83 796.618 572.207 788.704 568.934C780.794 565.662 771.844 562.742 762.747 560.001C743.478 556.234 730.614 555.371 721.516 557.753C712.451 560.127 707.104 565.73 702.885 574.989Z" fill="url(#paint2_linear)" stroke="black" stroke-width="0.4"/>
<path d="M58.3906 249.73C55.6128 272.204 48.5586 300.072 42.78 322.898L42.7638 322.962C39.8677 334.402 37.2993 344.548 35.7079 352.225C34.9092 356.077 34.3773 359.212 34.1647 361.53C34.058 362.693 34.0407 363.56 34.0856 364.164C34.0988 364.341 34.1159 364.472 34.131 364.564C34.2602 364.646 34.5041 364.783 34.924 364.95C35.7704 365.287 37.0104 365.622 38.6886 365.922C42.0332 366.519 46.7112 366.903 52.5602 367.046C64.2319 367.332 80.1884 366.651 98.6486 364.992C135.562 361.675 182.215 354.475 224.151 343.46C280.452 328.671 307.82 303.397 325.084 287.455C326.686 285.975 328.201 284.576 329.644 283.273C334.476 278.911 337.167 271.976 337.598 262.558C338.029 253.147 336.178 241.604 332.301 228.562C324.552 202.497 308.899 171.067 288.476 139.966C268.065 108.883 242.983 78.2709 216.483 53.8128C189.934 29.3095 162.196 11.2007 136.489 4.75666C124.348 1.71322 116.772 2.85322 111.537 6.40569C106.175 10.0452 102.542 16.6804 99.4263 26.3662C97.2654 33.0828 95.4636 40.8673 93.4392 49.6138C92.5448 53.4779 91.607 57.5298 90.5755 61.7604C87.2387 75.4466 82.9825 90.699 76.1693 106.546C62.9185 137.367 59.8458 161.844 59.3982 184.172C59.2399 192.07 59.4091 199.654 59.5777 207.214C59.6492 210.418 59.7206 213.617 59.7669 216.834C59.9216 227.584 59.7908 238.401 58.3906 249.73Z" fill="#50CBE5" stroke="black" stroke-width="6"/>
<path d="M277.63 151.359C245.21 109.637 174.991 49.2567 163.518 49.2567C165.159 53.0009 221.326 100.565 266.961 149.188L277.63 151.359Z" fill="#060B1E"/>
<path d="M266.961 189.125C266.961 185.502 151.659 90.5009 126.004 84.698C127.659 95.5009 199.159 141.653 245.034 177.001C263.644 191.341 266.961 191.225 266.961 189.125Z" fill="#060B1E"/>
<path d="M214.415 190.574C191.624 176.279 181.69 171.727 163.518 163.001C163.518 163.001 111.392 141.098 109.074 141.135C109.074 141.135 109.164 143.291 121.306 149.188C141.118 158.813 161.095 168.976 167.508 172.69C170.092 174.187 178.55 178.763 186.302 182.857C194.055 186.95 209.826 195.481 221.35 201.806C241.224 212.721 245.034 214.433 245.034 212.462C245.034 210.904 226.581 198.205 214.415 190.574Z" fill="#060B1E"/>
<path d="M205.096 225.338C178.777 214.787 107.659 201.806 89.9821 199.838C89.9821 207.001 154.896 220.703 161.357 222.001C169.54 224.052 222.606 236.758 226.78 238.127C243.221 243.527 237.477 238.045 219.192 230.884C213.162 228.525 206.819 226.027 205.096 225.338Z" fill="#060B1E"/>
<path d="M225.962 271.891C222.078 269.802 202.159 266.501 144.015 268.286C113.408 270.506 76.5834 277.132 75.166 280.677C74.6139 282.061 110.37 279.263 114.659 279.001C139.159 277.501 133.283 276.985 172.207 275.774C209.736 274.607 228.491 273.253 225.962 271.891Z" fill="#060B1E"/>
<path d="M130.159 336.001C135.758 335.493 214.415 326.001 221.553 318.71C217.159 314.501 59.6592 333.501 66.1592 339.001C72.6592 344.501 130.159 336.001 130.159 336.001Z" fill="#060B1E"/>
<path d="M708.159 68.0329C710.713 65.3769 712.638 62.8839 712.636 62.1619C712.629 59.724 710.941 60.423 704.348 65.5895C702.68 67.2215 672.526 91.3072 663.81 98.6611C655.094 106.015 647.922 112.811 647.876 113.758C647.719 116.831 705.097 70.8496 708.159 68.0329Z" fill="#060B1E"/>
<path d="M740.659 94.4991C765.659 82.999 680.862 135.676 676.827 134.389C670.093 132.239 715.659 105.999 740.659 94.4991Z" fill="#060B1E"/>
<path d="M722.07 160.776C738.742 159.852 743.803 160.6 741.659 157.999C739.515 155.398 721.159 155.999 698.159 157.999C703.159 160.776 708.159 160.776 722.07 160.776Z" fill="#060B1E"/>
<defs>
<linearGradient id="paint0_linear" x1="465.232" y1="426.282" x2="263.955" y2="893.567" gradientUnits="userSpaceOnUse">
<stop offset="0.0267148" stop-color="white"/>
<stop offset="0.984415" stop-color="#FBFF30" stop-opacity="0"/>
</linearGradient>
<linearGradient id="paint1_linear" x1="471.7" y1="499.756" x2="313.596" y2="909.875" gradientUnits="userSpaceOnUse">
<stop offset="0.0267148" stop-color="#FEFEFE"/>
<stop offset="0.984415" stop-color="#FBFF30" stop-opacity="0"/>
</linearGradient>
<linearGradient id="paint2_linear" x1="760.644" y1="564.701" x2="742.385" y2="633.083" gradientUnits="userSpaceOnUse">
<stop stop-color="#E2A0A0"/>
<stop offset="1" stop-color="#E2A0A0" stop-opacity="0"/>
</linearGradient>
</defs>
</svg>
