<svg viewBox="0 0 1032 709" fill="none" xmlns="http://www.w3.org/2000/svg">
<circle r="68.9999" transform="matrix(0.0815399 -0.99667 -0.99667 -0.0815399 278.617 236.891)" fill="#CDE0ED" stroke="#57A4FF" stroke-width="6"/>
<circle r="62.3999" transform="matrix(0.0815399 -0.99667 -0.99667 -0.0815399 278.627 236.888)" fill="#A4E0F7"/>
<ellipse rx="62.1599" ry="60.2398" transform="matrix(0.0815399 -0.99667 -0.99667 -0.0815399 283.537 235.125)" fill="#CDE0ED"/>
<path d="M329.112 246.931C329.602 246.916 330.089 246.842 330.632 246.766C336.534 245.636 340.488 239.505 339.529 232.986C337.055 217.763 328.595 204.506 316.38 196.72C311.161 193.425 304.465 195.294 301.477 200.979C298.49 206.664 300.236 213.992 305.455 217.287C312.118 221.551 316.691 228.734 318.031 237.027C318.972 242.951 323.78 247.092 329.112 246.931Z" fill="white"/>
<circle r="80.5713" transform="matrix(0.0815399 -0.99667 -0.99667 -0.0815399 447.41 116.682)" fill="#CDE0ED" stroke="#57A4FF" stroke-width="6"/>
<circle r="72.4285" transform="matrix(0.0815399 -0.99667 -0.99667 -0.0815399 447.413 116.68)" fill="#A4E0F7"/>
<ellipse rx="72.1499" ry="69.9213" transform="matrix(0.0815399 -0.99667 -0.99667 -0.0815399 452.747 116.325)" fill="#CDE0ED"/>
<ellipse rx="11.1428" ry="10.7987" transform="matrix(0.0815399 -0.99667 -0.99667 -0.0815399 498.759 81.9688)" fill="white"/>
<path d="M482.355 72.0625C482.65 71.7964 482.913 71.494 483.209 71.1621C486.265 67.3588 485.46 61.4457 481.405 57.8668C471.791 49.6319 459.512 45.7676 447.811 47.2989C442.829 47.9726 439.672 52.655 440.84 57.7818C442.007 62.9086 446.979 66.5819 451.961 65.9081C458.353 65.0828 465 67.1824 470.232 71.6729C473.96 74.8888 479.137 74.9598 482.355 72.0625Z" fill="white"/>
<circle r="62" transform="matrix(0.0815399 -0.99667 -0.99667 -0.0815399 135.504 109.797)" fill="#CDE0ED" stroke="#57A4FF" stroke-width="6"/>
<circle r="56.3334" transform="matrix(0.0815399 -0.99667 -0.99667 -0.0815399 135.513 109.798)" fill="#A4E0F7"/>
<ellipse rx="56.1167" ry="54.3833" transform="matrix(0.0815399 -0.99667 -0.99667 -0.0815399 138.287 107.901)" fill="#CDE0ED"/>
<path d="M178.493 93.8372C178.784 93.7477 179.064 93.6228 179.376 93.4879C182.727 91.8379 184.087 87.5137 182.438 83.7671C178.447 75.0566 171.194 68.5106 162.59 65.8604C158.92 64.747 155.214 66.9702 154.361 70.868C153.507 74.7659 155.761 78.8676 159.431 79.981C164.127 81.4362 168.051 84.9851 170.22 89.7317C171.76 93.125 175.324 94.8125 178.493 93.8372Z" fill="white"/>
<ellipse rx="8.66667" ry="8.39897" transform="matrix(0.0815399 -0.99667 -0.99667 -0.0815399 141.737 65.4918)" fill="white"/>
<circle r="53.5" transform="matrix(-0.976071 0.21745 0.21745 0.976071 81.0239 269.213)" fill="#CDE0ED" stroke="#57A4FF" stroke-width="6"/>
<circle r="48.9667" transform="matrix(-0.976071 0.21745 0.21745 0.976071 81.0207 269.206)" fill="#A4E0F7"/>
<ellipse rx="48.7784" ry="47.2717" transform="matrix(-0.976071 0.21745 0.21745 0.976071 80.1868 267.355)" fill="#CDE0ED"/>
<ellipse rx="7.53334" ry="7.30065" transform="matrix(-0.976071 0.21745 0.21745 0.976071 46.8939 247.645)" fill="white"/>
<path d="M52.6733 270.929C53.2059 266.996 50.3939 264.01 46.4469 264.426L46.2097 264.451C41.8983 264.905 38.4076 269.384 38.5707 273.716V273.716C38.5736 273.793 38.5805 274.024 38.5817 274.1C38.593 274.848 38.7146 279.207 40.0223 285.077V285.077C40.9156 289.087 45.3711 293.324 49.4566 292.894V292.894C53.1397 292.506 55.4917 288.704 54.3803 285.172C54.0778 284.21 53.7636 283.176 53.4484 282.086C52.011 277.118 52.4044 275.109 52.455 273.469C52.4716 272.933 52.4769 272.393 52.5479 271.862C52.5907 271.542 52.6325 271.231 52.6733 270.929Z" fill="white"/>
<path d="M179.837 156.57L219.84 194.96" stroke="#57A4FF" stroke-width="4"/>
<path d="M335.273 194.369L378.909 163.825" stroke="#57A4FF" stroke-width="4"/>
<path d="M167.386 372.945C167.386 363.185 173.385 358.305 185.381 358.305C197.581 358.305 203.681 363.185 203.681 372.945V589.19C203.681 598.95 197.581 603.83 185.381 603.83C173.385 603.83 167.386 598.95 167.386 589.19V372.945ZM74.6662 589.19C74.6662 598.95 68.5662 603.83 56.3662 603.83C44.3695 603.83 38.3712 598.95 38.3712 589.19V372.945C38.3712 363.185 44.3695 358.305 56.3662 358.305C68.5662 358.305 74.6662 363.185 74.6662 372.945V589.19ZM146.036 476.035C146.036 483.152 143.596 489.15 138.716 494.03C133.836 498.91 127.838 501.35 120.721 501.35C113.808 501.35 107.911 498.91 103.031 494.03C98.1512 489.15 95.7112 483.152 95.7112 476.035C95.7112 468.918 98.1512 462.92 103.031 458.04C107.911 453.16 113.808 450.72 120.721 450.72C127.838 450.72 133.836 453.16 138.716 458.04C143.596 462.92 146.036 468.918 146.036 476.035ZM377.372 363.49C380.422 359.83 383.878 358 387.742 358C392.012 358 396.383 359.932 400.857 363.795C403.093 366.032 404.923 368.268 406.347 370.505C407.973 372.742 408.787 374.978 408.787 377.215C408.787 380.875 407.465 384.027 404.822 386.67L363.952 434.25L284.347 527.885V589.19C284.347 598.95 278.247 603.83 266.047 603.83C254.05 603.83 248.052 598.95 248.052 589.19V372.945C248.052 363.185 254.05 358.305 266.047 358.305C278.247 358.305 284.347 363.185 284.347 372.945V472.68L377.372 363.49ZM334.062 508.365C332.028 505.518 331.012 502.062 331.012 497.995C331.012 491.895 333.553 487.015 338.637 483.355H338.332C342.398 480.508 346.465 479.085 350.532 479.085C354.395 479.085 357.648 481.322 360.292 485.795L419.157 571.805L418.852 571.5C420.682 574.347 421.597 577.397 421.597 580.65C421.597 585.937 418.953 590.613 413.667 594.68H413.972C411.735 596.103 409.6 597.222 407.567 598.035C405.533 598.848 403.703 599.255 402.077 599.255C400.45 599.255 398.722 598.645 396.892 597.425C395.265 596.205 393.638 594.68 392.012 592.85L334.062 508.365ZM611.419 553.2C611.419 569.67 605.929 581.972 594.949 590.105C589.662 593.968 584.172 597.018 578.479 599.255C572.989 601.288 567.6 602.305 562.314 602.305H495.824C490.537 602.305 485.047 601.288 479.354 599.255C473.864 597.018 468.475 593.968 463.189 590.105C457.902 586.038 453.835 581.057 450.989 575.16C448.142 569.06 446.719 561.74 446.719 553.2V372.945C446.719 363.185 452.717 358.305 464.714 358.305C476.914 358.305 483.014 363.185 483.014 372.945V550.76C483.014 556.047 484.539 560.825 487.589 565.095C490.639 569.365 495.925 571.5 503.449 571.5H554.689C562.212 571.5 567.499 569.365 570.549 565.095C573.599 560.825 575.124 556.047 575.124 550.76V372.945C575.124 363.185 581.122 358.305 593.119 358.305C605.319 358.305 611.419 363.185 611.419 372.945V553.2ZM784.775 512.025C784.775 507.348 783.047 502.875 779.59 498.605C776.134 494.132 770.034 491.59 761.29 490.98C755.597 497.893 748.684 501.35 740.55 501.35C733.637 501.35 727.74 498.91 722.86 494.03C717.98 489.15 715.54 483.152 715.54 476.035C715.54 468.918 717.98 462.92 722.86 458.04C727.74 453.16 733.637 450.72 740.55 450.72C744.21 450.72 747.769 451.737 751.225 453.77C754.885 455.803 758.139 458.243 760.985 461.09C765.459 460.887 768.915 460.175 771.355 458.955C773.795 457.735 775.524 456.312 776.54 454.685C777.76 452.855 778.472 450.822 778.675 448.585C778.879 446.348 778.98 444.112 778.98 441.875V411.07C778.98 405.987 777.354 401.31 774.1 397.04C771.05 392.77 765.764 390.635 758.24 390.635H694.495L694.19 591.935C694.19 596.002 692.259 599.153 688.395 601.39C684.735 603.423 680.669 604.44 676.195 604.44C664.199 604.44 658.2 599.56 658.2 589.8V378.13C658.2 370.81 660.03 365.93 663.69 363.49C667.554 361.05 672.129 359.83 677.415 359.83H765.865C771.152 359.83 776.744 360.847 782.64 362.88C788.74 364.913 794.434 367.658 799.72 371.115H799.415C804.702 374.978 808.565 380.062 811.005 386.365C813.649 392.668 814.97 399.988 814.97 408.325V442.79C814.97 450.923 813.242 457.633 809.785 462.92C806.329 468.003 802.669 472.07 798.805 475.12C801.449 476.747 803.99 478.475 806.43 480.305C808.87 481.932 810.904 483.762 812.53 485.795C815.174 488.642 817.207 491.997 818.63 495.86C820.257 499.723 821.07 504.298 821.07 509.585V553.2C821.07 569.873 814.564 582.175 801.55 590.105C795.044 594.172 788.842 597.222 782.945 599.255C777.252 601.288 771.559 602.305 765.865 602.305H720.725C717.269 602.305 714.524 600.882 712.49 598.035C710.66 595.188 709.745 591.427 709.745 586.75C709.745 576.583 714.015 571.5 722.555 571.5H764.34C771.864 571.5 777.15 569.365 780.2 565.095C783.25 560.825 784.775 556.047 784.775 550.76V512.025ZM886.216 602.305C878.693 602.305 873.61 600.373 870.966 596.51C868.323 592.647 867.001 588.377 867.001 583.7V378.13C867.001 373.453 868.323 369.285 870.966 365.625C873.61 361.762 878.693 359.83 886.216 359.83H992.356C999.88 359.83 1003.84 364.913 1004.25 375.08C1004.66 385.45 1000.69 390.635 992.356 390.635H902.991V571.5H997.846C1005.37 571.5 1009.23 576.482 1009.44 586.445C1009.84 597.018 1005.98 602.305 997.846 602.305H886.216ZM981.071 476.035C981.071 483.152 978.53 489.15 973.446 494.03C968.566 498.91 962.568 501.35 955.451 501.35C948.538 501.35 942.641 498.91 937.761 494.03C932.881 489.15 930.441 483.152 930.441 476.035C930.441 468.918 932.881 462.92 937.761 458.04C942.641 453.16 948.538 450.72 955.451 450.72C962.568 450.72 968.566 453.16 973.446 458.04C978.53 462.92 981.071 468.918 981.071 476.035Z" fill="#30A8FF"/>
</svg>
