<svg width="1233" height="1007" viewBox="0 0 1233 1007" fill="none" xmlns="http://www.w3.org/2000/svg">
<path d="M430 272.982L472.522 235.059L516.496 200.656L576.981 165.478L540.031 124.97L504.457 93.4817L482.63 80.6826L465.632 80.4505L450.517 88.7449L438.718 110.586L434.507 126.03L434.213 147.528L433.503 199.523L430.464 238.985L430 272.982Z" fill="#50CBE5" stroke="black" stroke-width="6"/>
<circle cx="85.9999" cy="357" r="68.9999" fill="#CDE0ED" stroke="#57A4FF" stroke-width="6"/>
<circle cx="86.0044" cy="356.99" r="62.3999" fill="#A4E0F7"/>
<ellipse cx="88.1599" cy="352.24" rx="62.1599" ry="60.2398" fill="#CDE0ED"/>
<path d="M80.1095 305.855C80.1642 305.369 80.2779 304.888 80.3978 304.354C82.0056 298.564 88.4386 295.123 94.8573 296.61C109.828 300.317 122.35 309.83 129.115 322.64C131.973 328.109 129.565 334.631 123.655 337.145C117.745 339.658 110.584 337.321 107.725 331.851C104.019 324.862 97.2329 319.718 89.0768 317.707C83.2494 316.287 79.5145 311.157 80.1095 305.855Z" fill="white"/>
<circle cx="219.571" cy="198.571" r="80.5713" fill="#CDE0ED" stroke="#57A4FF" stroke-width="6"/>
<circle cx="219.573" cy="198.567" r="72.4285" fill="#A4E0F7"/>
<ellipse cx="220.362" cy="193.281" rx="72.1499" ry="69.9213" fill="#CDE0ED"/>
<ellipse cx="258.356" cy="150.222" rx="11.1428" ry="10.7987" fill="white"/>
<path d="M266.891 167.382C267.18 167.109 267.503 166.871 267.858 166.604C271.898 163.868 277.726 165.153 280.962 169.486C288.386 179.739 291.236 192.292 288.756 203.829C287.678 208.74 282.754 211.504 277.739 209.923C272.725 208.341 269.469 203.086 270.547 198.176C271.891 191.873 270.34 185.077 266.291 179.496C263.39 175.518 263.741 170.353 266.891 167.382Z" fill="white"/>
<circle cx="201" cy="510" r="62" fill="#CDE0ED" stroke="#57A4FF" stroke-width="6"/>
<circle cx="201" cy="509.992" r="56.3334" fill="#A4E0F7"/>
<ellipse cx="203.116" cy="507.381" rx="56.1167" ry="54.3833" fill="#CDE0ED"/>
<path d="M220.412 468.457C220.525 468.174 220.673 467.905 220.832 467.604C222.75 464.399 227.171 463.397 230.771 465.345C239.127 470.033 245.059 477.796 246.999 486.587C247.81 490.336 245.292 493.848 241.337 494.381C237.383 494.914 233.479 492.333 232.668 488.585C231.601 483.786 228.384 479.585 223.83 477.037C220.573 475.225 219.182 471.536 220.412 468.457Z" fill="white"/>
<ellipse cx="245.666" cy="507.401" rx="8.66667" ry="8.39897" fill="white"/>
<circle cx="68.7267" cy="68.7263" r="53.5" transform="rotate(-104.331 68.7267 68.7263)" fill="#CDE0ED" stroke="#57A4FF" stroke-width="6"/>
<circle cx="68.7185" cy="68.7277" r="48.9667" transform="rotate(-104.331 68.7185 68.7277)" fill="#A4E0F7"/>
<ellipse cx="66.6907" cy="68.82" rx="48.7784" ry="47.2717" transform="rotate(-104.331 66.6907 68.82)" fill="#CDE0ED"/>
<ellipse cx="34.0548" cy="48.0405" rx="7.53334" ry="7.30065" transform="rotate(-104.331 34.0548 48.0405)" fill="white"/>
<path d="M51.0962 40.542C47.8294 42.7958 43.8946 41.6383 42.4801 37.9301L42.3951 37.7072C40.8501 33.6567 43.2661 28.5176 47.2036 26.7037V26.7037C47.2731 26.6717 47.4822 26.5734 47.551 26.5399C48.2229 26.2118 52.1657 24.3487 57.9927 22.86V22.86C61.973 21.8432 67.7672 23.9005 69.2313 27.7389V27.7389C70.5511 31.1991 68.224 35.0164 64.5706 35.6229C63.5763 35.788 62.5117 35.9755 61.3974 36.1872C56.3162 37.1523 54.7023 38.4118 53.2624 39.1988C52.792 39.4559 52.313 39.7048 51.8712 40.0084C51.605 40.1914 51.3466 40.3693 51.0962 40.542Z" fill="white"/>
<path d="M158 462L123 419" stroke="#57A4FF" stroke-width="4"/>
<path d="M133 304L167 263" stroke="#57A4FF" stroke-width="4"/>
<path d="M1182.8 543.011C1182.8 771.015 991.356 956.027 754.972 956.027C518.589 956.027 327.143 771.015 327.143 543.011C327.143 315.007 518.589 129.996 754.972 129.996C991.356 129.996 1182.8 315.007 1182.8 543.011Z" fill="#30A8FF" stroke="black" stroke-width="6"/>
<ellipse cx="638.181" cy="395.128" rx="162.758" ry="157.161" fill="#7ECEF0"/>
<path d="M780.78 395.109C780.78 471.111 716.965 532.781 638.17 532.781C559.376 532.781 495.561 471.111 495.561 395.109C495.561 319.108 559.376 257.438 638.17 257.438C716.965 257.438 780.78 319.108 780.78 395.109Z" fill="white" stroke="black" stroke-width="2"/>
<ellipse cx="638.17" cy="395.118" rx="124.462" ry="120.182" fill="#B6B4B1"/>
<ellipse cx="638.176" cy="395.108" rx="95.7399" ry="92.4478" fill="black"/>
<ellipse cx="565.41" cy="358.121" rx="28.722" ry="27.7344" fill="white"/>
<ellipse cx="709.014" cy="446.911" rx="19.148" ry="18.4896" fill="white"/>
<path d="M1177.22 505.706C1196.25 679.086 1074.22 953 756.643 953C525.408 953 330.143 772.517 330.143 546C445.308 859.227 560.689 751.792 613.983 711.71C667.276 671.628 726.28 612.901 830.964 517.822C935.648 422.744 1055.41 449.778 1177.22 505.706Z" fill="url(#paint0_linear)" fill-opacity="0.52"/>
<path d="M1177.73 556.225C1187.24 693.309 1033.33 955 745.799 955C525.913 955 342.506 768.339 332.143 579.623C456.732 880.241 558.5 771.608 609.134 737.524C659.768 703.441 715.827 653.503 815.286 572.655C914.746 491.807 1076.83 467.635 1177.73 556.225Z" fill="url(#paint1_linear)" fill-opacity="0.52"/>
<path d="M1138.75 700.527C1137.57 697.398 1136.99 671.877 1138.06 670.303C1138.75 669.288 1140.05 671.225 1140.94 674.605C1144.45 687.944 1153.21 711.553 1161.59 730.241C1175.79 761.91 1174.92 770.611 1158.07 765.199C1142.16 760.084 1112.64 758.272 1082.79 760.577C1057.04 762.566 1098.02 751.199 1128.45 747.908L1150.08 745.575L1144.61 723.578C1141.61 711.484 1138.97 701.11 1138.75 700.527Z" fill="black"/>
<path d="M1023.74 849.722C1024.08 846.564 1035.22 825.085 1036.92 824.286C1038.03 823.77 1038.34 825.995 1037.61 829.223C1034.76 841.968 1032.04 865.731 1031.23 885.223C1029.85 918.256 1025.06 925.068 1011.99 912.596C999.647 900.81 973.244 885.325 944.649 873.103C919.979 862.558 962.986 872.524 992.573 884.204L1013.59 892.508L1018.61 871.647C1021.37 860.179 1023.68 850.311 1023.74 849.722Z" fill="black"/>
<path d="M587.973 910.52C590.769 909.042 613.983 906.926 615.464 908.013C616.42 908.716 614.714 910.254 611.676 911.424C599.686 916.055 578.577 927.042 561.933 937.326C533.728 954.753 525.765 954.29 529.943 935.476C533.89 917.696 534.224 885.167 530.795 852.509C527.835 824.333 540.014 868.695 544.368 901.94L547.456 925.561L567.243 918.289C578.123 914.295 587.452 910.795 587.973 910.52Z" fill="black"/>
<path d="M751.674 931.735C750.386 928.615 733.86 912.266 732.104 912.373C730.971 912.443 731.392 914.945 733.043 917.925C739.547 929.698 749.374 953.09 756.192 973.059C767.747 1006.9 774.097 1011.39 781.7 991.106C788.885 971.938 807.294 941.13 828.653 912.529C847.082 887.854 812.322 922.053 789.919 950.635L774.006 970.945L763.057 951.866C757.035 941.379 751.915 932.317 751.674 931.735Z" fill="black"/>
<path d="M1177.49 530.071C1175.29 528.135 1165.88 510.132 1166.34 508.751C1166.64 507.86 1168.54 508.92 1170.55 511.106C1178.49 519.731 1194.94 534.377 1209.33 545.617C1233.7 564.664 1235.89 571.065 1218.15 571.332C1201.38 571.584 1172.94 577.507 1145.62 586.439C1122.05 594.145 1156.71 576.051 1184.24 566.275L1203.8 559.333L1191.02 545.028C1183.99 537.162 1177.9 530.432 1177.49 530.071Z" fill="black"/>
<path d="M963.654 625.145C962.587 622.266 961.621 601.671 962.021 590.302C962.289 582.669 965.318 584.852 965.318 592.679C965.318 599.29 971.602 619.398 978.39 634.514C984.32 647.726 978.905 652.993 967.952 644.667C961.664 639.891 937.542 632.236 925.04 631.053C914.265 630.031 911.569 628.621 916.782 626.731C921.883 624.882 951.804 627.618 957.84 630.485C964.17 633.493 966.094 631.727 963.654 625.145Z" fill="black"/>
<path d="M1086.43 623.519C1083.25 617.292 1080.28 605.751 1079.06 594.785C1078.63 590.958 1078.89 587.826 1079.64 587.826C1080.39 587.826 1081.92 590.958 1083.04 594.785C1085.33 602.645 1089.96 611.524 1099.89 627.072C1108.38 640.364 1108.18 642.906 1098.72 642.386C1094.89 642.177 1080.95 641.862 1067.72 641.686C1054.49 641.514 1045.24 641.144 1047.16 640.869C1049.08 640.591 1050.65 639.84 1050.65 639.203C1050.65 637.086 1064.24 633.093 1071.08 633.199C1087.49 633.452 1090.53 631.533 1086.43 623.519Z" fill="black"/>
<path d="M839.926 680.126C840.625 680.126 841.249 678.972 841.319 677.562C841.397 675.94 841.734 675.691 842.242 676.885C842.684 677.925 842.231 683.188 841.234 688.583C840.241 693.982 839.608 707.52 839.83 718.669C840.159 735.03 839.806 739.202 837.999 740.279C834.71 742.246 833.658 742 829.791 738.363C825.455 734.287 796.782 709.691 785.378 700.271C780.747 696.443 777.865 693.312 778.97 693.312C783.4 693.312 797.717 701.758 825.819 720.951C829.364 723.368 829.31 723.493 831.75 707.248C833.701 694.279 837.968 680.126 839.926 680.126Z" fill="black"/>
<path d="M1000.53 750.45C1000.09 748.289 1002.83 731.631 1003.77 730.723C1004.38 730.137 1005.05 731.536 1005.25 733.829C1006.06 742.879 1009.26 759.171 1012.8 772.221C1018.8 794.337 1017.11 799.9 1006.03 794.575C995.55 789.542 975.174 785.198 954.058 783.495C935.839 782.026 965.841 779.03 987.489 780.155L1002.87 780.957L1001.77 766.068C1001.17 757.882 1000.61 750.853 1000.53 750.45Z" fill="black"/>
<path d="M704.989 799.659C706.087 798.574 708.732 795.706 710.866 793.285C716.102 787.341 716.54 789.663 711.816 798.307C706.351 808.31 699.784 824.58 693.198 844.435C686.002 866.118 679.179 869.005 675.762 851.808C673.718 841.523 660.216 821.529 644.204 805.076C642.466 803.292 641.047 801.204 641.047 800.439C641.047 799.67 640.174 798.71 639.107 798.303C638.04 797.897 637.866 797.52 638.719 797.461C642.113 797.241 661.728 812.797 669.381 821.781C673.85 827.026 679.04 833.066 680.913 835.202L684.319 839.088L686.204 833.96C688.652 827.316 702.398 802.215 704.989 799.659Z" fill="black"/>
<path d="M879.882 842.75C880.837 833.484 882.039 823.712 882.547 821.03C884.401 811.295 886.139 819.199 887.985 845.772C890.472 881.527 889.615 883.102 873.653 872.133C869.03 868.95 858.96 862.617 851.28 858.057C829.873 845.344 822.701 840.597 824.151 840.095C827.014 839.11 847.265 846.783 867.086 856.361C878.789 862.016 877.784 863.086 879.882 842.75Z" fill="black"/>
<path d="M500.832 533.479C512.77 534.991 522.318 540.068 528.025 551.976C529.377 561.721 527.446 574.814 522.842 589.166C518.2 603.64 510.916 619.161 501.891 633.414C492.861 647.676 482.146 660.578 470.685 669.888C459.265 679.164 447.31 684.712 435.664 684.773C385.643 676.819 353.83 639.412 344.854 603.043C340.472 585.285 338.303 569.864 338.147 557.182C337.992 544.456 339.866 534.701 343.368 528.11C346.801 521.647 351.755 518.255 358.168 517.86C364.698 517.457 373.134 520.135 383.441 526.843C390.741 538.063 402.471 541.772 415.641 542.124C427.641 542.446 441.337 539.995 454.821 537.583C456.235 537.33 457.647 537.078 459.053 536.829C474.066 534.174 488.584 531.928 500.832 533.479Z" fill="#E15C5C" stroke="black" stroke-width="5"/>
<path d="M482.917 618.988C485.113 628.842 486.129 639.918 482.329 650.193C478.53 660.463 469.907 669.964 452.753 676.643C432.541 680.79 417.228 679.342 405.31 675.055C393.389 670.767 384.848 663.632 378.191 656.382C371.808 649.43 369.179 643.385 369.347 638.067C369.516 632.751 372.479 628.11 377.4 623.97C382.322 619.829 389.183 616.207 397.098 612.933C405.008 609.661 413.958 606.742 423.055 604.001C442.324 600.233 455.188 599.37 464.286 601.752C473.351 604.126 478.698 609.729 482.917 618.988Z" fill="url(#paint2_linear)" stroke="black" stroke-width="0.4"/>
<path d="M1016.56 94.7618C1017.42 94.7618 1019 93.7458 1020.08 92.5041C1022.28 89.953 1026.34 89.4676 1026.34 91.7516C1026.34 92.5794 1025.67 93.2567 1024.85 93.2567C1019.86 93.2567 967.041 144.565 921.406 193.188L910.736 195.359C943.156 153.637 1005.09 94.7618 1016.56 94.7618Z" fill="#060B1E"/>
<path d="M1054.77 130.884C1055.5 130.884 1056.1 130.207 1056.1 129.379C1056.1 128.551 1057.51 127.874 1059.23 127.874C1060.95 127.874 1062.36 128.246 1062.36 128.698C1062.36 129.876 1054 136.799 1052.5 136.856C1051.82 136.882 1047.12 140.122 1042.05 144.054C1036.99 147.986 1029.44 153.57 1025.28 156.459C1021.13 159.353 1017.37 162.062 1016.94 162.48C1016.11 163.293 984.261 187.675 966.042 201.451C960.012 206.007 950.145 213.54 944.116 218.187C925.505 232.527 921.406 235.225 921.406 233.125C921.406 229.502 959.398 195.298 985.62 175.315C992.08 170.393 998.161 165.663 999.132 164.805C1006.2 158.567 1051.6 130.884 1054.77 130.884Z" fill="#060B1E"/>
<path d="M1069.82 188.078C1071.65 188.078 1073.58 187.4 1074.11 186.573C1074.64 185.745 1076.97 185.098 1079.29 185.135C1082.4 185.184 1079.2 187.291 1067.06 193.188C1047.25 202.813 1027.27 212.976 1020.86 216.69C1018.27 218.187 1009.82 222.763 1002.06 226.857C994.312 230.95 978.54 239.481 967.017 245.806C947.142 256.721 943.332 258.433 943.332 256.462C943.332 254.904 960.145 242.205 972.311 234.574C995.103 220.279 1002.69 216.012 1020.86 207.287C1052.05 192.303 1062.82 188.078 1069.82 188.078Z" fill="#060B1E"/>
<path d="M983.27 269.338C1009.59 258.787 1061.96 247.187 1098.38 243.838C1104.85 243.247 1111.07 242.649 1112.22 242.51C1115.79 242.084 1113.22 245.967 1109.22 247.051C1107.14 247.616 1100.15 249.143 1093.69 250.441C1081.13 252.962 1071.9 254.848 1056.88 257.963C1051.71 259.032 1036.56 262.67 1023.21 266.045C1009.86 269.421 992.237 273.861 984.053 275.911C975.87 277.962 965.76 280.758 961.586 282.127C945.145 287.527 950.889 282.045 969.175 274.884C975.204 272.525 981.547 270.026 983.27 269.338Z" fill="#060B1E"/>
<path d="M1005.85 311.699C1013.7 311.834 1020.6 311.499 1021.16 310.95C1021.74 310.404 1024.37 310.276 1027.01 310.664C1029.66 311.055 1037.46 311.785 1044.35 312.286C1074.96 314.506 1111.78 321.132 1113.2 324.677C1113.75 326.061 1112.39 326.374 1108.13 325.843C1085.07 322.964 1055.08 320.985 1016.16 319.774C978.63 318.607 959.875 317.253 962.405 315.89C966.289 313.802 990.803 311.435 1005.85 311.699Z" fill="#060B1E"/>
<path d="M971.214 364.223C965.537 364.671 964.288 364.242 966.813 362.71C968.098 361.928 970.564 361.559 972.295 361.886C974.026 362.217 985.659 362.887 998.149 363.38C1039.76 365.021 1103.2 375.88 1118.75 384.022L1124.23 386.893L1114.05 385.968C1108.45 385.46 1100.69 384.44 1096.82 383.706C1092.94 382.969 1084.84 381.686 1078.81 380.858C1072.78 380.026 1058.33 377.946 1046.7 376.234C1035.07 374.518 1020.27 372.49 1013.81 371.726C991.015 369.024 978.552 366.91 976.696 365.431C975.666 364.61 973.2 364.065 971.214 364.223Z" fill="#060B1E"/>
<path d="M478.881 113.283C475.737 110.199 473.163 106.997 473.166 106.162C473.172 103.724 474.861 104.423 481.453 109.589C484.869 112.264 490.458 116.456 493.874 118.907C497.29 121.357 501.446 124.697 503.112 126.325C504.78 127.957 513.275 135.307 521.991 142.661C530.707 150.015 537.88 156.81 537.925 157.758C538.083 160.831 531.585 161.4 528.526 158.586C526.981 157.164 523.074 153.783 519.842 151.074C513.495 145.75 488.166 122.382 478.881 113.283Z" fill="#060B1E"/>
<path d="M454.798 147.667C452.764 145.743 450.283 143.835 449.289 143.429C448.022 142.91 447.981 142.657 449.156 142.583C451.228 142.452 466.258 148.047 468.356 149.733C469.201 150.409 475.104 153.564 481.474 156.744C507.333 169.646 515.709 176.238 508.975 178.389C504.94 179.676 464.253 156.605 454.798 147.667Z" fill="#060B1E"/>
<path d="M463.732 204.775C447.06 203.851 444.53 203.238 446.674 200.637C449.578 197.102 483.171 197.768 481.284 201.32C479.247 205.156 477.341 205.53 463.732 204.775Z" fill="#060B1E"/>
<defs>
<linearGradient id="paint0_linear" x1="720.57" y1="470.281" x2="921.847" y2="937.567" gradientUnits="userSpaceOnUse">
<stop offset="0.0267148" stop-color="white"/>
<stop offset="0.984415" stop-color="#FBFF30" stop-opacity="0"/>
</linearGradient>
<linearGradient id="paint1_linear" x1="714.101" y1="543.756" x2="872.206" y2="953.874" gradientUnits="userSpaceOnUse">
<stop offset="0.0267148" stop-color="#FEFEFE"/>
<stop offset="0.984415" stop-color="#FBFF30" stop-opacity="0"/>
</linearGradient>
<linearGradient id="paint2_linear" x1="425.157" y1="608.7" x2="443.417" y2="677.082" gradientUnits="userSpaceOnUse">
<stop stop-color="#E2A0A0"/>
<stop offset="1" stop-color="#E2A0A0" stop-opacity="0"/>
</linearGradient>
</defs>
</svg>
