<svg viewBox="0 0 908 1195" fill="none" xmlns="http://www.w3.org/2000/svg">
<ellipse cx="467.5" cy="1129.66" rx="394.5" ry="64.5" fill="black" fill-opacity="0.19"/>
<path d="M652.418 123.462L804.244 234.411C804.905 234.894 805.834 234.422 805.834 233.604L805.834 89.9121C805.834 81.3377 803.792 72.8866 799.878 65.258L796.137 57.969C789.165 44.3831 775.179 35.8397 759.908 35.8397C749.533 35.8397 739.548 39.8003 731.994 46.9128L652.323 121.926C651.867 122.355 651.913 123.092 652.418 123.462Z" fill="#50CBE5" stroke="black" stroke-width="6"/>
<path d="M49.3412 499.011C49.3412 727.015 240.787 912.027 477.171 912.027C713.554 912.027 905 727.015 905 499.011C905 271.007 713.554 85.9961 477.171 85.9961C240.787 85.9961 49.3412 271.007 49.3412 499.011Z" fill="#30A8FF" stroke="black" stroke-width="6"/>
<ellipse rx="162.758" ry="157.161" transform="matrix(-1 0 0 1 593.962 351.128)" fill="#7ECEF0"/>
<path d="M451.362 351.109C451.362 427.111 515.178 488.781 593.972 488.781C672.767 488.781 736.582 427.111 736.582 351.109C736.582 275.108 672.767 213.438 593.972 213.438C515.178 213.438 451.362 275.108 451.362 351.109Z" fill="white" stroke="black" stroke-width="2"/>
<ellipse rx="124.462" ry="120.182" transform="matrix(-1 0 0 1 593.973 351.118)" fill="#B6B4B1"/>
<ellipse rx="95.7399" ry="92.4478" transform="matrix(-1 0 0 1 593.966 351.108)" fill="black"/>
<ellipse rx="28.722" ry="27.7344" transform="matrix(-1 0 0 1 666.733 314.121)" fill="white"/>
<ellipse rx="19.148" ry="18.4896" transform="matrix(-1 0 0 1 523.129 402.911)" fill="white"/>
<path d="M54.9233 461.706C35.8899 635.086 157.923 909 475.5 909C706.734 909 902 728.517 902 502C786.834 815.227 671.454 707.792 618.16 667.71C564.867 627.628 505.863 568.901 401.179 473.822C296.495 378.744 176.737 405.778 54.9233 461.706Z" fill="url(#paint0_linear)" fill-opacity="0.52"/>
<path d="M54.4169 512.225C44.8981 649.309 198.818 911 486.344 911C706.23 911 889.637 724.339 900 535.623C775.411 836.241 673.643 727.608 623.009 693.524C572.375 659.441 516.316 609.503 416.857 528.655C317.397 447.807 155.317 423.635 54.4169 512.225Z" fill="url(#paint1_linear)" fill-opacity="0.52"/>
<path d="M93.3902 656.527C94.5717 653.398 95.157 627.877 94.0849 626.303C93.3919 625.288 92.0931 627.225 91.2062 630.605C87.6905 643.944 78.9289 667.553 70.5487 686.241C56.3485 717.91 57.2269 726.611 74.0687 721.199C89.9852 716.084 119.501 714.272 149.351 716.577C175.104 718.566 134.125 707.199 103.688 703.908L82.0643 701.575L87.5282 679.578C90.5292 667.484 93.1703 657.11 93.3902 656.527Z" fill="black"/>
<path d="M208.4 805.724C208.059 802.565 196.928 781.087 195.219 780.288C194.115 779.772 193.803 781.997 194.53 785.224C197.387 797.97 200.1 821.733 200.915 841.225C202.296 874.258 207.085 881.07 220.149 868.598C232.496 856.812 258.9 841.327 287.494 829.105C312.164 818.56 269.157 828.526 239.57 840.206L218.552 848.509L213.534 827.649C210.771 816.181 208.464 806.313 208.4 805.724Z" fill="black"/>
<path d="M644.17 866.522C641.374 865.044 618.16 862.928 616.679 864.015C615.723 864.718 617.429 866.256 620.468 867.426C632.457 872.057 653.566 883.044 670.21 893.328C698.415 910.755 706.378 910.292 702.2 891.478C698.253 873.698 697.919 841.169 701.348 808.511C704.308 780.335 692.13 824.697 687.776 857.942L684.687 881.563L664.9 874.291C654.02 870.297 644.692 866.797 644.17 866.522Z" fill="black"/>
<path d="M480.469 887.735C481.757 884.615 498.283 868.266 500.039 868.373C501.172 868.443 500.751 870.945 499.1 873.925C492.595 885.698 482.769 909.09 475.951 929.059C464.396 962.898 458.046 967.388 450.443 947.106C443.258 927.938 424.849 897.13 403.49 868.529C385.061 843.854 419.821 878.053 442.224 906.635L458.137 926.945L469.086 907.866C475.107 897.379 480.228 888.317 480.469 887.735Z" fill="black"/>
<path d="M54.6522 486.071C56.8515 484.135 66.2642 466.132 65.8006 464.751C65.5003 463.86 63.604 464.92 61.5949 467.106C53.6514 475.731 37.1995 490.377 22.8159 501.617C-1.55803 520.664 -3.75153 527.065 13.9947 527.332C30.7656 527.584 59.2025 533.507 86.5243 542.439C110.097 550.145 75.4357 532.051 47.9036 522.275L28.341 515.333L41.1259 501.028C48.1524 493.162 54.2425 486.432 54.6522 486.071Z" fill="black"/>
<path d="M268.489 581.145C269.556 578.266 270.522 557.671 270.122 546.302C269.855 538.669 266.825 540.852 266.825 548.679C266.825 555.29 260.542 575.398 253.754 590.514C247.823 603.726 253.238 608.993 264.191 600.667C270.479 595.891 294.602 588.236 307.103 587.053C317.878 586.031 320.574 584.621 315.361 582.731C310.26 580.882 280.339 583.618 274.304 586.485C267.973 589.493 266.049 587.727 268.489 581.145Z" fill="black"/>
<path d="M145.708 579.519C148.897 573.292 151.86 561.751 153.086 550.785C153.512 546.958 153.249 543.826 152.5 543.826C151.752 543.826 150.223 546.958 149.106 550.785C146.814 558.645 142.182 567.524 132.249 583.072C123.762 596.364 123.96 598.906 133.428 598.386C137.249 598.177 151.197 597.862 164.424 597.686C177.651 597.514 186.902 597.144 184.982 596.869C183.061 596.591 181.491 595.84 181.491 595.203C181.491 593.086 167.907 589.093 161.065 589.199C144.653 589.452 141.612 587.533 145.708 579.519Z" fill="black"/>
<path d="M392.217 636.126C391.518 636.126 390.894 634.972 390.824 633.562C390.746 631.94 390.409 631.691 389.901 632.885C389.459 633.925 389.912 639.188 390.909 644.583C391.902 649.982 392.535 663.52 392.314 674.669C391.984 691.03 392.337 695.202 394.144 696.279C397.434 698.246 398.485 698 402.352 694.363C406.688 690.287 435.361 665.691 446.765 656.271C451.396 652.443 454.278 649.312 453.173 649.312C448.743 649.312 434.426 657.758 406.324 676.951C402.779 679.368 402.833 679.493 400.393 663.248C398.442 650.279 394.175 636.126 392.217 636.126Z" fill="black"/>
<path d="M231.617 706.45C232.055 704.289 229.313 687.631 228.37 686.723C227.761 686.137 227.094 687.536 226.892 689.829C226.086 698.879 222.886 715.171 219.344 728.221C213.344 750.337 215.031 755.9 226.117 750.575C236.594 745.542 256.969 741.198 278.085 739.495C296.304 738.026 266.302 735.03 244.654 736.155L229.274 736.957L230.372 722.068C230.973 713.882 231.535 706.853 231.617 706.45Z" fill="black"/>
<path d="M527.154 755.659C526.056 754.574 523.411 751.706 521.277 749.285C516.041 743.341 515.603 745.663 520.327 754.307C525.792 764.31 532.359 780.58 538.946 800.435C546.141 822.118 552.964 825.005 556.381 807.808C558.425 797.523 571.927 777.529 587.939 761.076C589.677 759.292 591.097 757.204 591.097 756.439C591.097 755.67 591.969 754.71 593.036 754.303C594.103 753.897 594.277 753.52 593.424 753.461C590.03 753.241 570.415 768.797 562.762 777.781C558.293 783.026 553.103 789.066 551.23 791.202L547.824 795.088L545.939 789.96C543.492 783.316 529.745 758.215 527.154 755.659Z" fill="black"/>
<path d="M352.261 798.75C351.306 789.484 350.104 779.712 349.596 777.03C347.742 767.295 346.004 775.199 344.158 801.772C341.671 837.527 342.529 839.102 358.49 828.133C363.114 824.95 373.183 818.617 380.863 814.057C402.271 801.344 409.443 796.597 407.992 796.095C405.129 795.11 384.878 802.783 365.057 812.361C353.354 818.016 354.359 819.086 352.261 798.75Z" fill="black"/>
<path d="M731.311 489.479C719.372 490.991 709.825 496.068 704.118 507.976C702.765 517.721 704.697 530.814 709.3 545.166C713.943 559.64 721.227 575.161 730.251 589.414C739.281 603.676 749.997 616.578 761.458 625.888C772.878 635.164 784.833 640.712 796.479 640.773C846.5 632.819 878.313 595.412 887.288 559.043C891.671 541.285 893.84 525.864 893.995 513.182C894.151 500.456 892.277 490.701 888.775 484.11C885.342 477.647 880.388 474.255 873.975 473.86C867.445 473.457 859.008 476.135 848.702 482.843C841.401 494.063 829.672 497.772 816.502 498.124C804.502 498.446 790.806 495.995 777.321 493.583C775.908 493.33 774.496 493.078 773.089 492.829C758.076 490.174 743.559 487.928 731.311 489.479Z" fill="#E15C5C" stroke="black" stroke-width="5"/>
<path d="M749.226 574.988C747.03 584.842 746.014 595.918 749.815 606.193C753.613 616.463 762.236 625.964 779.39 632.643C799.602 636.79 814.915 635.342 826.833 631.055C838.754 626.767 847.295 619.632 853.952 612.382C860.335 605.43 862.964 599.385 862.796 594.067C862.628 588.751 859.664 584.11 854.743 579.97C849.821 575.829 842.96 572.207 835.045 568.933C827.135 565.661 818.185 562.742 809.088 560.001C789.819 556.233 776.955 555.37 767.857 557.752C758.792 560.126 753.445 565.729 749.226 574.988Z" fill="url(#paint2_linear)" stroke="black" stroke-width="0.4"/>
<path d="M104.732 249.73C101.954 272.204 94.8997 300.072 89.1212 322.898L89.1049 322.962C86.2089 334.402 83.6405 344.548 82.049 352.225C81.2504 356.077 80.7185 359.212 80.5059 361.53C80.3992 362.693 80.3819 363.56 80.4268 364.164C80.44 364.341 80.4571 364.472 80.4721 364.564C80.6013 364.646 80.8453 364.783 81.2652 364.95C82.1116 365.287 83.3516 365.622 85.0298 365.922C88.3744 366.519 93.0524 366.903 98.9014 367.046C110.573 367.332 126.53 366.651 144.99 364.992C181.903 361.675 228.556 354.475 270.492 343.46C326.794 328.671 354.162 303.397 371.425 287.455C373.027 285.975 374.542 284.576 375.985 283.273C380.817 278.911 383.508 271.976 383.939 262.558C384.37 253.147 382.519 241.604 378.642 228.562C370.893 202.497 355.24 171.067 334.817 139.966C314.406 108.883 289.325 78.2709 262.824 53.8128C236.275 29.3095 208.537 11.2007 182.83 4.75666C170.689 1.71322 163.113 2.85322 157.879 6.40569C152.516 10.0452 148.884 16.6804 145.767 26.3662C143.607 33.0828 141.805 40.8673 139.78 49.6138C138.886 53.4779 137.948 57.5298 136.917 61.7604C133.58 75.4466 129.324 90.699 122.51 106.546C109.26 137.367 106.187 161.844 105.739 184.172C105.581 192.07 105.75 199.654 105.919 207.214C105.99 210.418 106.062 213.617 106.108 216.834C106.263 227.584 106.132 238.401 104.732 249.73Z" fill="#50CBE5" stroke="black" stroke-width="6"/>
<path d="M323.972 151.358C291.552 109.637 221.332 49.2559 209.86 49.2559C211.5 53 267.667 100.565 313.302 149.187L323.972 151.358Z" fill="#060B1E"/>
<path d="M313.302 189.124C313.302 185.501 198 90.5 172.345 84.6971C174 95.5 245.5 141.652 291.375 177C309.986 191.34 313.302 191.224 313.302 189.124Z" fill="#060B1E"/>
<path d="M260.757 190.573C237.965 176.278 228.031 171.726 209.86 163C209.86 163 157.733 141.097 155.415 141.134C155.415 141.134 155.505 143.29 167.647 149.187C187.459 158.812 207.436 168.975 213.849 172.689C216.434 174.186 224.891 178.762 232.644 182.856C240.396 186.95 256.168 195.48 267.691 201.805C287.566 212.721 291.375 214.433 291.375 212.461C291.375 210.903 272.922 198.204 260.757 190.573Z" fill="#060B1E"/>
<path d="M251.438 225.337C225.118 214.786 154 201.805 136.323 199.837C136.323 207 201.238 220.702 207.698 222C215.881 224.051 268.948 236.757 273.122 238.127C289.563 243.526 283.819 238.044 265.533 230.883C259.504 228.524 253.16 226.026 251.438 225.337Z" fill="#060B1E"/>
<path d="M272.303 271.89C268.419 269.801 248.5 266.5 190.356 268.285C159.749 270.505 122.925 277.131 121.507 280.676C120.955 282.06 156.712 279.263 161 279C185.5 277.5 179.624 276.984 218.548 275.773C256.078 274.606 274.833 273.252 272.303 271.89Z" fill="#060B1E"/>
<path d="M176.5 336C182.099 335.492 260.757 326 267.894 318.709C263.5 314.5 106 333.5 112.5 339C119 344.5 176.5 336 176.5 336Z" fill="#060B1E"/>
<path d="M754.5 68.0337C757.055 65.3777 758.979 62.8848 758.977 62.1628C758.971 59.7249 757.282 60.4238 750.689 65.5904C749.021 67.2223 718.868 91.308 710.152 98.662C701.436 106.016 694.263 112.812 694.218 113.759C694.06 116.832 751.438 70.8505 754.5 68.0337Z" fill="#060B1E"/>
<path d="M787 94.4999C812 82.9998 727.203 135.677 723.168 134.39C716.434 132.239 762 106 787 94.4999Z" fill="#060B1E"/>
<path d="M768.411 160.776C785.083 159.853 790.144 160.601 788 158C785.856 155.399 767.5 156 744.5 158C749.5 160.776 754.5 160.776 768.411 160.776Z" fill="#060B1E"/>
<defs>
<linearGradient id="paint0_linear" x1="511.573" y1="426.281" x2="310.296" y2="893.567" gradientUnits="userSpaceOnUse">
<stop offset="0.0267148" stop-color="white"/>
<stop offset="0.984415" stop-color="#FBFF30" stop-opacity="0"/>
</linearGradient>
<linearGradient id="paint1_linear" x1="518.042" y1="499.756" x2="359.937" y2="909.874" gradientUnits="userSpaceOnUse">
<stop offset="0.0267148" stop-color="#FEFEFE"/>
<stop offset="0.984415" stop-color="#FBFF30" stop-opacity="0"/>
</linearGradient>
<linearGradient id="paint2_linear" x1="806.986" y1="564.7" x2="788.726" y2="633.082" gradientUnits="userSpaceOnUse">
<stop stop-color="#E2A0A0"/>
<stop offset="1" stop-color="#E2A0A0" stop-opacity="0"/>
</linearGradient>
</defs>
</svg>
