<?xml version="1.0" encoding="iso-8859-1"?>
<!-- Generator: Adobe Illustrator 19.0.0, SVG Export Plug-In . SVG Version: 6.00 Build 0)  -->
<svg version="1.1" id="Capa_1" xmlns="http://www.w3.org/2000/svg" xmlns:xlink="http://www.w3.org/1999/xlink" x="0px" y="0px"
	 viewBox="0 0 490 490" style="enable-background:new 0 0 490 490;" xml:space="preserve">
<path id="XMLID_447_" d="M445,230c-21.377,0-39.32,14.984-43.88,35H340v-86.12c20.016-4.56,35-22.503,35-43.88
	c0-24.813-20.187-45-45-45h-70V30h55c8.284,0,15-6.716,15-15s-6.716-15-15-15H175c-8.284,0-15,6.716-15,15s6.716,15,15,15h55v60h-70
	c-24.813,0-45,20.187-45,45c0,21.377,14.984,39.32,35,43.88V265H88.88c-4.56-20.016-22.503-35-43.88-35c-24.813,0-45,20.187-45,45
	v170c0,24.813,20.187,45,45,45c21.377,0,39.32-14.984,43.88-35h312.24c4.56,20.016,22.503,35,43.88,35c24.813,0,45-20.187,45-45V275
	C490,250.187,469.813,230,445,230z M60,445c0,8.271-6.729,15-15,15s-15-6.729-15-15V275c0-8.271,6.729-15,15-15s15,6.729,15,15V445z
	 M145,135c0-8.271,6.729-15,15-15h170c8.271,0,15,6.729,15,15s-6.729,15-15,15H160C151.729,150,145,143.271,145,135z M400,425H90
	V295h75c8.284,0,15-6.716,15-15V180h130v100c0,8.284,6.716,15,15,15h75V425z M460,445c0,8.271-6.729,15-15,15s-15-6.729-15-15V275
	c0-8.271,6.729-15,15-15s15,6.729,15,15V445z"/>
<g>
</g>
<g>
</g>
<g>
</g>
<g>
</g>
<g>
</g>
<g>
</g>
<g>
</g>
<g>
</g>
<g>
</g>
<g>
</g>
<g>
</g>
<g>
</g>
<g>
</g>
<g>
</g>
<g>
</g>
</svg>
