<svg xmlns="http://www.w3.org/2000/svg" height="143pt" version="1.1" viewBox="0 0 143 143.74776" width="143pt">
<g id="surface1">
<path d="M 8.890625 36.957031 L 5.867188 36.957031 C 2.855469 36.957031 0.414062 39.378906 0.375 42.386719 L 0.375 101.316406 C 0.375 104.351562 2.832031 106.8125 5.867188 106.8125 L 8.890625 106.8125 C 11.925781 106.8125 14.382812 104.351562 14.382812 101.316406 L 14.382812 99.769531 L 52.566406 99.769531 C 64.339844 108.109375 80.097656 108.109375 91.878906 99.769531 L 97.929688 99.769531 L 97.929688 142.199219 C 97.929688 143.058594 98.625 143.746094 99.476562 143.746094 L 122.929688 143.746094 C 123.785156 143.746094 124.476562 143.058594 124.476562 142.199219 L 124.476562 99.769531 L 130.0625 99.769531 L 130.0625 101.316406 C 130.0625 104.351562 132.519531 106.8125 135.550781 106.8125 L 138.65625 106.8125 C 141.660156 106.773438 144.082031 104.328125 144.082031 101.316406 L 144.082031 42.386719 C 144.082031 39.355469 141.625 36.898438 138.589844 36.898438 L 135.488281 36.898438 C 132.484375 36.941406 130.078125 39.386719 130.078125 42.386719 L 130.078125 43.941406 L 91.890625 43.941406 C 80.117188 35.59375 64.359375 35.59375 52.578125 43.941406 L 46.527344 43.941406 L 46.527344 1.550781 C 46.527344 0.695312 45.832031 0 44.980469 0 L 21.535156 0 C 20.671875 0 19.980469 0.695312 19.980469 1.550781 L 19.980469 43.941406 L 14.382812 43.941406 L 14.382812 42.386719 C 14.347656 39.378906 11.902344 36.957031 8.890625 36.957031 Z M 11.28125 101.316406 C 11.28125 102.640625 10.210938 103.707031 8.890625 103.707031 L 5.867188 103.707031 C 4.550781 103.707031 3.480469 102.640625 3.480469 101.316406 L 3.480469 42.386719 C 3.480469 41.0625 4.550781 39.992188 5.867188 39.992188 L 8.890625 39.992188 C 10.210938 39.992188 11.28125 41.0625 11.28125 42.386719 Z M 133.175781 42.386719 C 133.175781 41.0625 134.246094 39.992188 135.5625 39.992188 L 138.667969 39.992188 C 139.960938 40.035156 140.976562 41.09375 140.976562 42.386719 L 140.976562 101.316406 C 140.976562 102.640625 139.910156 103.707031 138.589844 103.707031 L 135.488281 103.707031 C 134.199219 103.660156 133.175781 102.605469 133.175781 101.316406 Z M 130.078125 47.035156 L 130.078125 96.667969 L 122.941406 96.667969 C 122.085938 96.667969 121.390625 97.359375 121.390625 98.214844 L 121.390625 140.648438 L 101.027344 140.648438 L 101.027344 98.214844 C 101.027344 97.359375 100.332031 96.667969 99.476562 96.667969 L 95.675781 96.667969 C 109.355469 83.703125 109.925781 62.105469 96.964844 48.433594 C 96.546875 47.988281 96.117188 47.5625 95.675781 47.140625 Z M 72.222656 40.835938 C 89.363281 40.835938 103.246094 54.71875 103.246094 71.847656 C 103.246094 88.980469 89.363281 102.867188 72.222656 102.867188 C 55.097656 102.867188 41.210938 88.980469 41.210938 71.847656 C 41.210938 54.71875 55.097656 40.835938 72.222656 40.835938 Z M 21.535156 47.035156 C 22.390625 47.035156 23.082031 46.339844 23.082031 45.488281 L 23.082031 3.105469 L 43.433594 3.105469 L 43.433594 45.488281 C 43.433594 46.339844 44.125 47.035156 44.980469 47.035156 L 48.792969 47.035156 C 35.121094 60.003906 34.542969 81.597656 47.511719 95.273438 C 47.929688 95.710938 48.359375 96.144531 48.792969 96.558594 L 14.382812 96.558594 L 14.382812 47.035156 Z M 21.535156 47.035156 " style=" stroke:none;fill-rule:nonzero;fill:rgb(0%,0%,0%);fill-opacity:1;" />
<path d="M 75.53125 65.648438 C 76.769531 66.300781 77.78125 67.320312 78.433594 68.550781 C 78.699219 69.054688 79.222656 69.367188 79.796875 69.367188 L 94.945312 69.367188 C 95.800781 69.382812 96.511719 68.699219 96.523438 67.839844 C 96.523438 67.746094 96.515625 67.648438 96.496094 67.558594 C 94.683594 57.390625 86.710938 49.4375 76.542969 47.644531 C 75.699219 47.492188 74.894531 48.0625 74.75 48.910156 C 74.730469 49 74.726562 49.097656 74.726562 49.191406 L 74.726562 64.34375 C 74.746094 64.890625 75.050781 65.382812 75.53125 65.648438 Z M 77.808594 51.054688 C 85.207031 53.054688 90.980469 58.828125 92.980469 66.222656 L 80.570312 66.222656 C 79.835938 65.105469 78.878906 64.144531 77.761719 63.394531 Z M 77.808594 51.054688 " style=" stroke:none;fill-rule:nonzero;fill:rgb(0%,0%,0%);fill-opacity:1;" />
<path d="M 76.257812 96.09375 L 76.527344 96.09375 C 86.683594 94.273438 94.632812 86.324219 96.4375 76.160156 C 96.582031 75.316406 96.015625 74.511719 95.175781 74.371094 C 95.082031 74.351562 94.984375 74.347656 94.886719 74.351562 L 79.746094 74.351562 C 79.175781 74.351562 78.65625 74.664062 78.382812 75.171875 C 77.738281 76.390625 76.75 77.390625 75.53125 78.058594 C 75.027344 78.320312 74.714844 78.847656 74.707031 79.421875 L 74.707031 94.570312 C 74.707031 95.429688 75.40625 96.125 76.257812 96.125 Z M 77.808594 80.253906 C 78.929688 79.519531 79.882812 78.566406 80.617188 77.445312 L 93.027344 77.445312 C 91.027344 84.84375 85.25 90.613281 77.859375 92.613281 Z M 77.808594 80.253906 " style=" stroke:none;fill-rule:nonzero;fill:rgb(0%,0%,0%);fill-opacity:1;" />
<path d="M 49.539062 69.367188 L 64.691406 69.367188 C 65.265625 69.367188 65.789062 69.054688 66.058594 68.550781 C 66.699219 67.320312 67.703125 66.304688 68.925781 65.648438 C 69.429688 65.378906 69.746094 64.851562 69.75 64.285156 L 69.75 49.160156 C 69.761719 48.308594 69.074219 47.605469 68.222656 47.589844 C 68.125 47.589844 68.027344 47.59375 67.929688 47.609375 C 57.78125 49.433594 49.832031 57.386719 48.023438 67.539062 C 47.875 68.382812 48.441406 69.1875 49.28125 69.332031 C 49.378906 69.351562 49.476562 69.359375 49.570312 69.359375 Z M 66.597656 51.097656 L 66.597656 63.507812 C 65.484375 64.246094 64.519531 65.203125 63.78125 66.316406 L 51.371094 66.316406 C 53.375 58.875 59.199219 53.078125 66.644531 51.097656 Z M 66.597656 51.097656 " style=" stroke:none;fill-rule:nonzero;fill:rgb(0%,0%,0%);fill-opacity:1;" />
<path d="M 68.925781 78.058594 C 67.691406 77.398438 66.683594 76.390625 66.023438 75.152344 C 65.761719 74.652344 65.234375 74.332031 64.660156 74.332031 L 49.539062 74.332031 C 48.683594 74.320312 47.976562 75.003906 47.964844 75.859375 C 47.964844 75.957031 47.972656 76.054688 47.988281 76.152344 C 49.808594 86.304688 57.761719 94.25 67.917969 96.0625 L 68.179688 96.0625 C 69.035156 96.0625 69.730469 95.371094 69.730469 94.511719 L 69.730469 79.375 C 69.710938 78.820312 69.410156 78.316406 68.925781 78.058594 Z M 66.644531 92.605469 C 59.25 90.605469 53.476562 84.828125 51.476562 77.4375 L 63.886719 77.4375 C 64.621094 78.546875 65.574219 79.5 66.695312 80.246094 Z M 66.644531 92.605469 " style=" stroke:none;fill-rule:nonzero;fill:rgb(0%,0%,0%);fill-opacity:1;" />
</g>
</svg>