<svg viewBox="-3 0 70 70" xmlns="http://www.w3.org/2000/svg" width="70" height="79">

  <rect stroke="#888" rx="2" id="svg_1" height="4" width="43" y="10" x="3" stroke-width="0" />
  <rect stroke="#888" rx="2" id="svg_18" height="4" width="43" y="64" x="3" stroke-width="0" />
  <path id="svg_22" d="m48.85674,47.09669c-0.52083,-0.45494 -0.4525,-0.73042 0.81379,-3.28063c0.63941,-1.28772 1.16257,-2.37873 1.16257,-2.42447c0,-0.04573 -1.76564,-0.08315 -3.92366,-0.08315l-3.92366,0l0,-2.41177l0,-2.41177l3.95475,0c3.04934,0 3.92071,-0.07265 3.80608,-0.31734c-0.08177,-0.17454 -0.63956,-1.33273 -1.23953,-2.57375c-1.13095,-2.33937 -1.1306,-2.96673 0.00175,-3.16119c0.56353,-0.09677 9.33696,7.33867 9.63852,8.16861c-2.92235,2.96333 -6.41556,6.06517 -9.63337,8.80011c-0.16967,0 -0.46543,-0.13709 -0.65725,-0.30465l0,0z" stroke-width="0" stroke="#888" />
  <rect stroke="#888" rx="2" id="svg_25" height="4" width="41" y="36" x="3" stroke-width="0" />


</svg>
