<svg height="496pt" viewBox="-48 0 496 496" width="496pt" xmlns="http://www.w3.org/2000/svg"><path d="m207.496094 157.183594c-1.167969-3.128906-4.15625-5.203125-7.496094-5.203125s-6.328125 2.074219-7.496094 5.203125l-48 128c-1.546875 4.140625.554688 8.75 4.695313 10.296875s8.75-.554688 10.296875-4.695313l16.046875-42.785156h48.914062l16.046875 42.816406c1.175782 3.121094 4.160156 5.1875 7.496094 5.183594.960938-.003906 1.914062-.175781 2.816406-.503906 1.988282-.746094 3.601563-2.25 4.476563-4.1875.878906-1.933594.953125-4.136719.203125-6.125zm-25.953125 74.816406 18.457031-49.214844 18.457031 49.214844zm0 0"/><path d="m360.992188 152.0625c-4.382813-.546875-8.378907 2.5625-8.929688 6.945312l-12.160156 97.222657-20.46875-51.199219c-1.214844-3.042969-4.160156-5.039062-7.433594-5.039062s-6.21875 1.996093-7.433594 5.039062l-20.46875 51.199219-12.160156-97.222657c-.640625-4.296874-4.59375-7.296874-8.90625-6.757812s-7.402344 4.417969-6.96875 8.742188l16 128c.453125 3.621093 3.296875 6.476562 6.914062 6.945312 3.613282.429688 7.074219-1.601562 8.457032-4.96875l24.566406-61.433594 24.566406 61.433594c1.214844 3.039062 4.160156 5.03125 7.433594 5.03125.34375 0 .691406-.023438 1.03125-.0625 3.617188-.46875 6.460938-3.324219 6.914062-6.945312l16-128c.546876-4.386719-2.566406-8.382813-6.953124-8.929688zm0 0"/><path d="m128 192c-.027344-22.082031-17.917969-39.972656-40-40h-48c-4.417969 0-8 3.582031-8 8v128c0 4.417969 3.582031 8 8 8s8-3.582031 8-8v-56h24c22.082031.027344 39.972656 17.917969 40 40v16c0 4.417969 3.582031 8 8 8s8-3.582031 8-8v-16c-.015625-17.445312-8.175781-33.882812-22.0625-44.441406 13.476562-6.738282 22.011719-20.492188 22.0625-35.558594zm-40 24h-40v-48h40c13.253906 0 24 10.746094 24 24s-10.746094 24-24 24zm0 0"/><path d="m399.902344 95.503906c-.042969-.707031-.183594-1.402344-.414063-2.070312-.089843-.257813-.152343-.496094-.265625-.746094-.386718-.871094-.929687-1.664062-1.597656-2.34375l-88-88c-.679688-.667969-1.472656-1.210938-2.34375-1.601562-.25-.109376-.496094-.175782-.753906-.261719-.660156-.230469-1.347656-.371094-2.046875-.4101565-.144531.0195313-.304688-.0703125-.480469-.0703125h-296c-4.417969 0-8 3.582031-8 8v480c0 4.417969 3.582031 8 8 8h384c4.417969 0 8-3.582031 8-8v-392c0-.167969-.089844-.320312-.097656-.496094zm-27.214844-7.503906h-60.6875v-60.6875zm-356.6875 392v-464h280v80c0 4.417969 3.582031 8 8 8h80v376zm0 0"/></svg>