<svg class="textTitleHkube"  viewBox="0 0 1830 750" fill="none" xmlns="http://www.w3.org/2000/svg">
<path d="M295.496 48.958C295.496 31.614 306.155 22.942 327.474 22.942C349.154 22.942 359.994 31.614 359.994 48.958V433.236C359.994 450.58 349.154 459.252 327.474 459.252C306.155 459.252 295.496 450.58 295.496 433.236V48.958ZM130.728 433.236C130.728 450.58 119.888 459.252 98.2081 459.252C76.8895 459.252 66.2301 450.58 66.2301 433.236V48.958C66.2301 31.614 76.8895 22.942 98.2081 22.942C119.888 22.942 130.728 31.614 130.728 48.958V433.236ZM257.556 232.154C257.556 244.801 253.22 255.46 244.548 264.132C235.876 272.804 225.217 277.14 212.57 277.14C200.285 277.14 189.806 272.804 181.134 264.132C172.462 255.46 168.126 244.801 168.126 232.154C168.126 219.507 172.462 208.848 181.134 200.176C189.806 191.504 200.285 187.168 212.57 187.168C225.217 187.168 235.876 191.504 244.548 200.176C253.22 208.848 257.556 219.507 257.556 232.154ZM668.65 32.156C674.07 25.652 680.213 22.4 687.078 22.4C694.666 22.4 702.435 25.8327 710.384 32.698C714.359 36.6726 717.611 40.6473 720.14 44.622C723.031 48.5966 724.476 52.5713 724.476 56.546C724.476 63.05 722.128 68.6506 717.43 73.348L644.802 157.9L503.34 324.294V433.236C503.34 450.58 492.5 459.252 470.82 459.252C449.502 459.252 438.842 450.58 438.842 433.236V48.958C438.842 31.614 449.502 22.942 470.82 22.942C492.5 22.942 503.34 31.614 503.34 48.958V226.192L668.65 32.156ZM591.686 289.606C588.073 284.547 586.266 278.405 586.266 271.178C586.266 260.338 590.783 251.666 599.816 245.162H599.274C606.501 240.103 613.728 237.574 620.954 237.574C627.82 237.574 633.601 241.549 638.298 249.498L742.904 402.342L742.362 401.8C745.614 406.859 747.24 412.279 747.24 418.06C747.24 427.455 742.543 435.765 733.148 442.992H733.69C729.716 445.521 725.922 447.509 722.308 448.954C718.695 450.399 715.443 451.122 712.552 451.122C709.662 451.122 706.59 450.038 703.338 447.87C700.448 445.702 697.557 442.992 694.666 439.74L591.686 289.606ZM1084.56 369.28C1084.56 398.548 1074.81 420.409 1055.3 434.862C1045.9 441.727 1036.14 447.147 1026.03 451.122C1016.27 454.735 1006.7 456.542 997.301 456.542H879.145C869.751 456.542 859.995 454.735 849.877 451.122C840.121 447.147 830.546 441.727 821.151 434.862C811.757 427.635 804.53 418.783 799.471 408.304C794.413 397.464 791.883 384.456 791.883 369.28V48.958C791.883 31.614 802.543 22.942 823.861 22.942C845.541 22.942 856.381 31.614 856.381 48.958V364.944C856.381 374.339 859.091 382.83 864.511 390.418C869.931 398.006 879.326 401.8 892.695 401.8H983.751C997.121 401.8 1006.52 398.006 1011.94 390.418C1017.36 382.83 1020.07 374.339 1020.07 364.944V48.958C1020.07 31.614 1030.72 22.942 1052.04 22.942C1073.72 22.942 1084.56 31.614 1084.56 48.958V369.28ZM1392.63 296.11C1392.63 287.799 1389.56 279.85 1383.41 272.262C1377.27 264.313 1366.43 259.796 1350.89 258.712C1340.78 270.997 1328.49 277.14 1314.04 277.14C1301.75 277.14 1291.27 272.804 1282.6 264.132C1273.93 255.46 1269.59 244.801 1269.59 232.154C1269.59 219.507 1273.93 208.848 1282.6 200.176C1291.27 191.504 1301.75 187.168 1314.04 187.168C1320.54 187.168 1326.86 188.975 1333.01 192.588C1339.51 196.201 1345.29 200.537 1350.35 205.596C1358.3 205.235 1364.44 203.97 1368.78 201.802C1373.11 199.634 1376.19 197.105 1377.99 194.214C1380.16 190.962 1381.43 187.349 1381.79 183.374C1382.15 179.399 1382.33 175.425 1382.33 171.45V116.708C1382.33 107.675 1379.44 99.364 1373.66 91.776C1368.24 84.188 1358.84 80.394 1345.47 80.394H1232.19L1231.65 438.114C1231.65 445.341 1228.22 450.941 1221.35 454.916C1214.85 458.529 1207.62 460.336 1199.67 460.336C1178.36 460.336 1167.7 451.664 1167.7 434.32V58.172C1167.7 45.164 1170.95 36.492 1177.45 32.156C1184.32 27.82 1192.45 25.652 1201.84 25.652H1359.02C1368.42 25.652 1378.35 27.4586 1388.83 31.072C1399.67 34.6853 1409.79 39.5633 1419.18 45.706H1418.64C1428.04 52.5713 1434.9 61.6047 1439.24 72.806C1443.94 84.0073 1446.28 97.0153 1446.28 111.83V173.076C1446.28 187.529 1443.21 199.453 1437.07 208.848C1430.93 217.881 1424.42 225.108 1417.56 230.528C1422.26 233.419 1426.77 236.49 1431.11 239.742C1435.44 242.633 1439.06 245.885 1441.95 249.498C1446.65 254.557 1450.26 260.519 1452.79 267.384C1455.68 274.249 1457.12 282.379 1457.12 291.774V369.28C1457.12 398.909 1445.56 420.77 1422.44 434.862C1410.87 442.089 1399.85 447.509 1389.37 451.122C1379.26 454.735 1369.14 456.542 1359.02 456.542H1278.81C1272.66 456.542 1267.79 454.013 1264.17 448.954C1260.92 443.895 1259.29 437.211 1259.29 428.9C1259.29 410.833 1266.88 401.8 1282.06 401.8H1356.31C1369.68 401.8 1379.08 398.006 1384.5 390.418C1389.92 382.83 1392.63 374.339 1392.63 364.944V296.11ZM1572.89 456.542C1559.52 456.542 1550.49 453.109 1545.79 446.244C1541.1 439.379 1538.75 431.791 1538.75 423.48V58.172C1538.75 49.8613 1541.1 42.454 1545.79 35.95C1550.49 29.0846 1559.52 25.652 1572.89 25.652H1761.51C1774.88 25.652 1781.92 34.6853 1782.65 52.752C1783.37 71.18 1776.32 80.394 1761.51 80.394H1602.7V401.8H1771.26C1784.63 401.8 1791.5 410.653 1791.86 428.358C1792.58 447.147 1785.72 456.542 1771.26 456.542H1572.89ZM1741.45 232.154C1741.45 244.801 1736.94 255.46 1727.9 264.132C1719.23 272.804 1708.57 277.14 1695.93 277.14C1683.64 277.14 1673.16 272.804 1664.49 264.132C1655.82 255.46 1651.48 244.801 1651.48 232.154C1651.48 219.507 1655.82 208.848 1664.49 200.176C1673.16 191.504 1683.64 187.168 1695.93 187.168C1708.57 187.168 1719.23 191.504 1727.9 200.176C1736.94 208.848 1741.45 219.507 1741.45 232.154Z" fill="#30A8FF"/>
<path d="M216.635 547.852C216.635 543.116 219.546 540.748 225.367 540.748C231.287 540.748 234.247 543.116 234.247 547.852V652.784C234.247 657.52 231.287 659.888 225.367 659.888C219.546 659.888 216.635 657.52 216.635 652.784V547.852ZM171.643 652.784C171.643 657.52 168.683 659.888 162.763 659.888C156.942 659.888 154.031 657.52 154.031 652.784V547.852C154.031 543.116 156.942 540.748 162.763 540.748C168.683 540.748 171.643 543.116 171.643 547.852V652.784ZM206.275 597.876C206.275 601.329 205.091 604.24 202.723 606.608C200.355 608.976 197.445 610.16 193.991 610.16C190.637 610.16 187.775 608.976 185.407 606.608C183.039 604.24 181.855 601.329 181.855 597.876C181.855 594.423 183.039 591.512 185.407 589.144C187.775 586.776 190.637 585.592 193.991 585.592C197.445 585.592 200.355 586.776 202.723 589.144C205.091 591.512 206.275 594.423 206.275 597.876ZM288.042 615.488C286.365 615.488 285.033 614.847 284.046 613.564C283.158 612.183 282.714 610.357 282.714 608.088C282.714 603.056 284.786 600.54 288.93 600.54H304.618C308.269 600.54 310.834 599.504 312.314 597.432C313.893 595.36 314.682 593.091 314.682 590.624V566.352C314.682 563.885 313.893 561.616 312.314 559.544C310.834 557.472 308.269 556.436 304.618 556.436H273.538V653.08C273.538 657.816 270.578 660.184 264.658 660.184C258.935 660.184 256.074 657.816 256.074 653.08V550.368C256.074 546.816 256.962 544.448 258.738 543.264C260.514 542.08 262.685 541.488 265.25 541.488H308.466C310.933 541.488 313.547 542.031 316.31 543.116C319.073 544.201 321.737 545.583 324.302 547.26H324.154C326.719 549.135 328.693 551.601 330.074 554.66C331.455 557.62 332.146 561.073 332.146 565.02V591.808C332.146 599.8 329.482 605.769 324.154 609.716C321.589 611.591 318.974 613.021 316.31 614.008C313.646 614.995 311.031 615.488 308.466 615.488H288.042ZM434.413 635.32C434.413 643.312 431.749 649.281 426.421 653.228C423.855 655.103 421.191 656.583 418.429 657.668C415.765 658.655 413.15 659.148 410.585 659.148H378.321C375.755 659.148 373.091 658.655 370.329 657.668C367.665 656.583 365.05 655.103 362.485 653.228C359.919 651.255 357.946 648.837 356.565 645.976C355.183 643.016 354.493 639.464 354.493 635.32V565.02C354.493 561.073 355.183 557.62 356.565 554.66C357.946 551.601 359.919 549.135 362.485 547.26H362.337C364.902 545.583 367.566 544.201 370.329 543.116C373.091 542.031 375.755 541.488 378.321 541.488H410.585C413.15 541.488 415.814 542.031 418.577 543.116C421.339 544.201 424.003 545.583 426.569 547.26H426.421C428.986 549.135 430.959 551.601 432.341 554.66C433.722 557.62 434.413 561.073 434.413 565.02V575.232C434.413 579.968 431.453 582.336 425.533 582.336C419.711 582.336 416.801 579.968 416.801 575.232V566.352C416.801 563.885 416.061 561.616 414.581 559.544C413.101 557.472 410.535 556.436 406.885 556.436H382.021C378.37 556.436 375.805 557.472 374.325 559.544C372.845 561.616 372.105 563.885 372.105 566.352V634.136C372.105 636.701 372.845 639.02 374.325 641.092C375.805 643.164 378.37 644.2 382.021 644.2H406.885C410.535 644.2 413.101 643.164 414.581 641.092C416.061 639.02 416.801 636.701 416.801 634.136V625.552C416.801 620.915 419.711 618.596 425.533 618.596C431.453 618.596 434.413 620.915 434.413 625.552V635.32ZM546.212 569.904C548.777 569.904 551.392 570.447 554.056 571.532C556.818 572.617 559.482 573.999 562.048 575.676H561.9C564.465 577.551 566.438 580.017 567.82 583.076C569.201 586.036 569.892 589.489 569.892 593.436V635.468C569.892 643.559 567.228 649.528 561.9 653.376C556.67 657.125 551.441 659 546.212 659H522.532C519.966 659 517.352 658.556 514.688 657.668C512.024 656.78 509.409 655.349 506.844 653.376C501.516 649.627 498.852 643.657 498.852 635.468V593.436C498.852 589.489 499.542 586.036 500.924 583.076C502.305 580.017 504.278 577.551 506.844 575.676H506.696C509.162 573.999 511.777 572.617 514.54 571.532C517.302 570.447 519.966 569.904 522.532 569.904H546.212ZM543.548 645.088C547.198 645.088 549.764 644.052 551.244 641.98C552.822 639.908 553.612 637.688 553.612 635.32V593.584C553.612 591.117 552.822 588.897 551.244 586.924C549.764 584.852 547.198 583.816 543.548 583.816H525.196C521.545 583.816 518.93 584.852 517.352 586.924C515.872 588.897 515.132 591.117 515.132 593.584V635.32C515.132 637.688 515.872 639.908 517.352 641.98C518.93 644.052 521.545 645.088 525.196 645.088H543.548ZM618.798 659.888C618.6 659.888 618.354 659.839 618.058 659.74C617.762 659.74 617.466 659.74 617.17 659.74C616.676 659.74 615.986 659.74 615.098 659.74C614.21 659.74 613.371 659.691 612.582 659.592C610.904 659.493 609.474 659.049 608.29 658.26C607.106 657.372 606.267 656.336 605.774 655.152L580.91 578.784C580.416 576.712 580.663 574.887 581.65 573.308C582.735 571.631 584.412 570.397 586.682 569.608C587.372 569.411 588.063 569.263 588.754 569.164C589.444 569.065 590.036 569.016 590.53 569.016C593.588 569.016 595.71 570.693 596.894 574.048L607.698 607.644L619.094 642.868L641.294 574.048C642.379 570.595 644.352 568.868 647.214 568.868C648.299 568.868 649.68 569.115 651.358 569.608C653.923 570.299 655.699 571.483 656.686 573.16C657.672 574.739 657.82 576.613 657.13 578.784L632.414 655.152C631.526 657.915 629.207 659.395 625.458 659.592C625.26 659.592 625.014 659.592 624.718 659.592C624.52 659.691 624.323 659.74 624.126 659.74C623.336 659.839 622.646 659.888 622.054 659.888C621.462 659.888 620.919 659.888 620.426 659.888H618.798ZM686.546 635.32C686.546 637.688 687.286 639.908 688.766 641.98C690.344 644.052 692.959 645.088 696.61 645.088H715.11C718.76 645.088 721.326 644.2 722.806 642.424C724.384 640.549 725.174 638.428 725.174 636.06V634.432C725.174 629.795 727.887 627.476 733.314 627.476C738.74 627.476 741.454 629.795 741.454 634.432V636.208C741.454 640.352 740.763 643.756 739.382 646.42C738.099 649.084 736.126 651.403 733.462 653.376C728.232 657.125 723.003 659 717.774 659H692.91C687.68 659 682.599 657.125 677.666 653.376C675.298 651.403 673.472 648.936 672.19 645.976C670.907 642.917 670.266 639.415 670.266 635.468V593.288C670.266 585.296 672.732 579.376 677.666 575.528C680.132 573.752 682.648 572.371 685.214 571.384C687.878 570.299 690.443 569.756 692.91 569.756H717.774C720.142 569.756 722.756 570.249 725.618 571.236C728.479 572.124 731.143 573.357 733.61 574.936C735.978 576.613 737.852 578.932 739.234 581.892C740.714 584.852 741.454 588.355 741.454 592.4V612.38C741.454 614.649 740.763 616.672 739.382 618.448C738.099 620.224 735.682 621.112 732.13 621.112H700.162C696.61 621.112 694.735 618.793 694.538 614.156C694.538 609.519 696.412 607.2 700.162 607.2H725.322L725.174 593.436C725.174 590.969 724.384 588.749 722.806 586.776C721.326 584.704 718.76 583.668 715.11 583.668H696.61C692.959 583.668 690.344 584.704 688.766 586.776C687.286 588.749 686.546 590.969 686.546 593.436V635.32ZM776.293 652.784C776.293 657.52 773.579 659.888 768.153 659.888C762.529 659.888 759.717 657.52 759.717 652.784V591.512C759.717 583.421 762.134 577.797 766.969 574.64C771.803 571.483 777.378 569.904 783.693 569.904H800.565C804.215 569.904 806.041 572.223 806.041 576.86C806.238 581.497 804.413 583.816 800.565 583.816H784.877C781.325 583.816 779.006 584.507 777.921 585.888C776.835 587.269 776.293 589.193 776.293 591.66V652.784ZM926.862 543.264C928.342 541.488 930.019 540.6 931.894 540.6C933.966 540.6 936.087 541.537 938.258 543.412C939.343 544.497 940.231 545.583 940.922 546.668C941.711 547.753 942.106 548.839 942.106 549.924C942.106 551.7 941.465 553.229 940.182 554.512L920.35 577.6L881.722 623.036V652.784C881.722 657.52 878.762 659.888 872.842 659.888C867.021 659.888 864.11 657.52 864.11 652.784V547.852C864.11 543.116 867.021 540.748 872.842 540.748C878.762 540.748 881.722 543.116 881.722 547.852V596.248L926.862 543.264ZM905.846 613.564C904.859 612.183 904.366 610.505 904.366 608.532C904.366 605.572 905.599 603.204 908.066 601.428H907.918C909.891 600.047 911.865 599.356 913.838 599.356C915.713 599.356 917.291 600.441 918.574 602.612L947.138 644.348L946.99 644.2C947.878 645.581 948.322 647.061 948.322 648.64C948.322 651.205 947.039 653.475 944.474 655.448H944.622C943.537 656.139 942.501 656.681 941.514 657.076C940.527 657.471 939.639 657.668 938.85 657.668C938.061 657.668 937.222 657.372 936.334 656.78C935.545 656.188 934.755 655.448 933.966 654.56L905.846 613.564ZM1030.52 635.468C1030.52 639.415 1029.83 642.917 1028.44 645.976C1027.06 649.035 1025.09 651.501 1022.52 653.376H1022.67C1020.21 655.053 1017.59 656.435 1014.83 657.52C1012.07 658.507 1009.4 659 1006.84 659H983.008C980.542 659 977.878 658.507 975.016 657.52C972.254 656.435 969.639 655.053 967.172 653.376H967.32C964.755 651.501 962.782 649.035 961.4 645.976C960.019 642.917 959.328 639.415 959.328 635.468V576.12C959.328 571.384 962.042 569.016 967.468 569.016C972.895 569.016 975.608 571.384 975.608 576.12V634.284C975.608 637.047 976.299 639.464 977.68 641.536C978.963 643.904 981.627 645.088 985.672 645.088H1004.17C1008.12 645.088 1010.73 643.904 1012.02 641.536L1011.87 641.684C1013.45 639.316 1014.24 636.849 1014.24 634.284V576.12C1014.24 571.384 1016.95 569.016 1022.38 569.016C1027.8 569.016 1030.52 571.384 1030.52 576.12V635.468ZM1065.21 652.784C1065.21 655.152 1064.38 656.928 1062.7 658.112C1061.02 659.296 1059.2 659.888 1057.22 659.888C1051.8 659.888 1049.08 657.52 1049.08 652.784V547.704C1049.08 542.968 1051.8 540.6 1057.22 540.6C1062.65 540.6 1065.36 542.968 1065.36 547.704V569.904H1096.59C1101.62 569.904 1106.85 571.779 1112.28 575.528C1117.61 579.277 1120.27 585.197 1120.27 593.288V637.392C1120.27 645.581 1117.85 651.205 1113.02 654.264C1108.18 657.421 1102.66 659 1096.44 659H1078.98C1075.43 659 1073.55 656.681 1073.35 652.044C1073.35 647.407 1075.23 645.088 1078.98 645.088H1093.78C1097.43 645.088 1100.04 644.447 1101.62 643.164C1103.2 641.783 1103.99 639.809 1103.99 637.244V594.62C1103.99 592.055 1103.2 589.588 1101.62 587.22L1101.77 587.368C1100.49 585 1097.87 583.816 1093.93 583.816H1065.36L1065.21 652.784ZM1154.68 635.32C1154.68 637.688 1155.42 639.908 1156.9 641.98C1158.48 644.052 1161.1 645.088 1164.75 645.088H1183.25C1186.9 645.088 1189.46 644.2 1190.94 642.424C1192.52 640.549 1193.31 638.428 1193.31 636.06V634.432C1193.31 629.795 1196.02 627.476 1201.45 627.476C1206.88 627.476 1209.59 629.795 1209.59 634.432V636.208C1209.59 640.352 1208.9 643.756 1207.52 646.42C1206.24 649.084 1204.26 651.403 1201.6 653.376C1196.37 657.125 1191.14 659 1185.91 659H1161.05C1155.82 659 1150.74 657.125 1145.8 653.376C1143.43 651.403 1141.61 648.936 1140.33 645.976C1139.04 642.917 1138.4 639.415 1138.4 635.468V593.288C1138.4 585.296 1140.87 579.376 1145.8 575.528C1148.27 573.752 1150.79 572.371 1153.35 571.384C1156.01 570.299 1158.58 569.756 1161.05 569.756H1185.91C1188.28 569.756 1190.89 570.249 1193.75 571.236C1196.62 572.124 1199.28 573.357 1201.75 574.936C1204.11 576.613 1205.99 578.932 1207.37 581.892C1208.85 584.852 1209.59 588.355 1209.59 592.4V612.38C1209.59 614.649 1208.9 616.672 1207.52 618.448C1206.24 620.224 1203.82 621.112 1200.27 621.112H1168.3C1164.75 621.112 1162.87 618.793 1162.67 614.156C1162.67 609.519 1164.55 607.2 1168.3 607.2H1193.46L1193.31 593.436C1193.31 590.969 1192.52 588.749 1190.94 586.776C1189.46 584.704 1186.9 583.668 1183.25 583.668H1164.75C1161.1 583.668 1158.48 584.704 1156.9 586.776C1155.42 588.749 1154.68 590.969 1154.68 593.436V635.32ZM1244.43 652.784C1244.43 657.52 1241.72 659.888 1236.29 659.888C1230.67 659.888 1227.85 657.52 1227.85 652.784V591.512C1227.85 583.421 1230.27 577.797 1235.11 574.64C1239.94 571.483 1245.51 569.904 1251.83 569.904H1268.7C1272.35 569.904 1274.18 572.223 1274.18 576.86C1274.37 581.497 1272.55 583.816 1268.7 583.816H1253.01C1249.46 583.816 1247.14 584.507 1246.06 585.888C1244.97 587.269 1244.43 589.193 1244.43 591.66V652.784ZM1302.97 652.784C1302.97 657.52 1300.26 659.888 1294.83 659.888C1289.4 659.888 1286.69 657.52 1286.69 652.784V593.288C1286.69 589.243 1287.33 585.74 1288.62 582.78C1289.9 579.82 1291.92 577.403 1294.68 575.528C1299.91 571.779 1305.14 569.904 1310.37 569.904H1334.2C1339.23 569.904 1344.46 571.779 1349.89 575.528C1355.22 579.277 1357.88 585.197 1357.88 593.288V652.784C1357.88 657.52 1355.17 659.888 1349.74 659.888C1344.31 659.888 1341.6 657.52 1341.6 652.784V594.62C1341.6 592.055 1340.81 589.588 1339.23 587.22L1339.38 587.368C1338.1 585 1335.48 583.816 1331.54 583.816H1313.04C1308.99 583.816 1306.33 585 1305.04 587.368C1303.66 589.44 1302.97 591.857 1302.97 594.62V652.784ZM1393.3 635.32C1393.3 637.688 1394.04 639.908 1395.52 641.98C1397.1 644.052 1399.72 645.088 1403.37 645.088H1421.87C1425.52 645.088 1428.08 644.2 1429.56 642.424C1431.14 640.549 1431.93 638.428 1431.93 636.06V634.432C1431.93 629.795 1434.64 627.476 1440.07 627.476C1445.5 627.476 1448.21 629.795 1448.21 634.432V636.208C1448.21 640.352 1447.52 643.756 1446.14 646.42C1444.86 649.084 1442.88 651.403 1440.22 653.376C1434.99 657.125 1429.76 659 1424.53 659H1399.67C1394.44 659 1389.36 657.125 1384.42 653.376C1382.06 651.403 1380.23 648.936 1378.95 645.976C1377.66 642.917 1377.02 639.415 1377.02 635.468V593.288C1377.02 585.296 1379.49 579.376 1384.42 575.528C1386.89 573.752 1389.41 572.371 1391.97 571.384C1394.64 570.299 1397.2 569.756 1399.67 569.756H1424.53C1426.9 569.756 1429.51 570.249 1432.38 571.236C1435.24 572.124 1437.9 573.357 1440.37 574.936C1442.74 576.613 1444.61 578.932 1445.99 581.892C1447.47 584.852 1448.21 588.355 1448.21 592.4V612.38C1448.21 614.649 1447.52 616.672 1446.14 618.448C1444.86 620.224 1442.44 621.112 1438.89 621.112H1406.92C1403.37 621.112 1401.49 618.793 1401.3 614.156C1401.3 609.519 1403.17 607.2 1406.92 607.2H1432.08L1431.93 593.436C1431.93 590.969 1431.14 588.749 1429.56 586.776C1428.08 584.704 1425.52 583.668 1421.87 583.668H1403.37C1399.72 583.668 1397.1 584.704 1395.52 586.776C1394.04 588.749 1393.3 590.969 1393.3 593.436V635.32ZM1486.45 583.816V637.688C1486.45 640.253 1487 642.227 1488.08 643.608C1489.17 644.989 1491.49 645.68 1495.04 645.68H1498.89C1502.73 645.68 1504.56 647.949 1504.36 652.488C1504.36 657.125 1502.54 659.444 1498.89 659.444H1494C1490.85 659.444 1487.89 659.049 1485.12 658.26C1482.36 657.372 1479.7 656.139 1477.13 654.56V654.708C1472.3 651.551 1469.88 645.927 1469.88 637.836V583.816H1464.11C1460.55 583.816 1458.68 581.497 1458.48 576.86C1458.48 572.223 1460.36 569.904 1464.11 569.904H1469.88V554.068C1469.88 549.332 1472.69 546.964 1478.31 546.964C1483.74 546.964 1486.45 549.332 1486.45 554.068V569.904H1498.74C1502.59 569.904 1504.41 572.223 1504.21 576.86C1504.21 581.497 1502.39 583.816 1498.74 583.816H1486.45ZM1533.5 635.32C1533.5 637.688 1534.24 639.908 1535.72 641.98C1537.3 644.052 1539.91 645.088 1543.56 645.088H1562.06C1565.71 645.088 1568.28 644.2 1569.76 642.424C1571.34 640.549 1572.13 638.428 1572.13 636.06V634.432C1572.13 629.795 1574.84 627.476 1580.27 627.476C1585.69 627.476 1588.41 629.795 1588.41 634.432V636.208C1588.41 640.352 1587.72 643.756 1586.33 646.42C1585.05 649.084 1583.08 651.403 1580.41 653.376C1575.19 657.125 1569.96 659 1564.73 659H1539.86C1534.63 659 1529.55 657.125 1524.62 653.376C1522.25 651.403 1520.43 648.936 1519.14 645.976C1517.86 642.917 1517.22 639.415 1517.22 635.468V593.288C1517.22 585.296 1519.69 579.376 1524.62 575.528C1527.09 573.752 1529.6 572.371 1532.17 571.384C1534.83 570.299 1537.4 569.756 1539.86 569.756H1564.73C1567.09 569.756 1569.71 570.249 1572.57 571.236C1575.43 572.124 1578.1 573.357 1580.56 574.936C1582.93 576.613 1584.81 578.932 1586.19 581.892C1587.67 584.852 1588.41 588.355 1588.41 592.4V612.38C1588.41 614.649 1587.72 616.672 1586.33 618.448C1585.05 620.224 1582.63 621.112 1579.08 621.112H1547.11C1543.56 621.112 1541.69 618.793 1541.49 614.156C1541.49 609.519 1543.37 607.2 1547.11 607.2H1572.27L1572.13 593.436C1572.13 590.969 1571.34 588.749 1569.76 586.776C1568.28 584.704 1565.71 583.668 1562.06 583.668H1543.56C1539.91 583.668 1537.3 584.704 1535.72 586.776C1534.24 588.749 1533.5 590.969 1533.5 593.436V635.32ZM1655.36 607.2C1657.83 607.2 1660.44 607.792 1663.21 608.976C1666.07 610.061 1668.73 611.443 1671.2 613.12H1671.05C1673.62 614.995 1675.59 617.412 1676.97 620.372C1678.35 623.332 1679.04 626.884 1679.04 631.028V635.468C1679.04 643.559 1676.38 649.528 1671.05 653.376C1668.48 655.349 1665.87 656.78 1663.21 657.668C1660.54 658.556 1657.93 659 1655.36 659H1630.2C1627.64 659 1625.02 658.556 1622.36 657.668C1619.69 656.78 1617.08 655.349 1614.51 653.376C1609.19 649.627 1606.52 643.657 1606.52 635.468V633.692C1606.52 629.449 1609.24 627.377 1614.66 627.476C1620.19 627.476 1622.95 629.548 1622.95 633.692V635.32C1622.95 637.688 1623.69 639.908 1625.17 641.98C1626.65 644.052 1629.26 645.088 1633.01 645.088H1652.55C1656.3 645.088 1658.91 644.052 1660.39 641.98C1661.87 639.908 1662.61 637.688 1662.61 635.32V631.176C1662.61 629.893 1662.42 628.66 1662.02 627.476C1661.73 626.292 1661.18 625.256 1660.39 624.368C1659.6 623.381 1658.57 622.592 1657.29 622C1656 621.408 1654.42 621.112 1652.55 621.112H1630.94C1625.91 621.112 1620.63 619.336 1615.11 615.784C1609.88 612.429 1607.26 606.657 1607.26 598.468V593.436C1607.26 589.489 1607.95 586.036 1609.33 583.076C1610.72 580.017 1612.69 577.551 1615.25 575.676H1615.11C1617.57 573.999 1620.19 572.617 1622.95 571.532C1625.71 570.447 1628.38 569.904 1630.94 569.904H1654.62C1657.19 569.904 1659.8 570.447 1662.47 571.532C1665.23 572.617 1667.89 573.999 1670.46 575.676H1670.31C1672.88 577.551 1674.85 580.017 1676.23 583.076C1677.61 586.036 1678.3 589.489 1678.3 593.436V594.768C1678.3 596.84 1677.61 598.369 1676.23 599.356C1674.85 600.244 1672.83 600.737 1670.16 600.836C1664.74 600.935 1662.02 598.912 1662.02 594.768V593.584C1662.02 591.117 1661.23 588.897 1659.65 586.924C1658.17 584.852 1655.61 583.816 1651.96 583.816H1633.61C1629.96 583.816 1627.34 584.852 1625.76 586.924C1624.28 588.897 1623.54 591.117 1623.54 593.584V597.136C1623.54 599.701 1624.28 602.02 1625.76 604.092C1627.34 606.164 1629.96 607.2 1633.61 607.2H1655.36Z" />
</svg>
