<?xml version="1.0" encoding="iso-8859-1"?>
<!-- Generator: Adobe Illustrator 19.0.0, SVG Export Plug-In . SVG Version: 6.00 Build 0)  -->
<svg version="1.1" id="Layer_1" xmlns="http://www.w3.org/2000/svg" xmlns:xlink="http://www.w3.org/1999/xlink" x="0px" y="0px"
	 viewBox="0 0 503.607 503.607" style="enable-background:new 0 0 503.607 503.607;" xml:space="preserve">
<g transform="translate(1 1)">
	<g>
		<path d="M477.426,416.993c-50.095-26.565-88.52-41.461-122.727-47.172l3.54-4.867c1.679-1.679,2.518-4.197,1.679-6.715
			l-7.866-31.463c20.804-29.41,33.046-66.178,33.046-101.153v-33.574h8.393h16.787c5.036,0,8.393-3.357,8.393-8.393
			s-3.357-8.393-8.393-8.393h-8.393v-8.393c0-66.308-43.646-122.544-109.115-141.01V24.18c0-13.43-10.911-25.18-25.18-25.18h-33.574
			c-13.43,0-25.18,10.911-25.18,25.18v1.679c-65.469,18.466-109.115,74.702-109.115,141.01v8.393h-8.393
			c-5.036,0-8.393,3.357-8.393,8.393s3.357,8.393,8.393,8.393h16.787h8.393v33.574c0,34.975,12.242,71.743,33.046,101.154
			l-7.866,31.463c0,1.679,0,5.036,1.679,6.715l3.54,4.867c-34.206,5.712-72.632,20.607-122.727,47.172
			C8.233,424.548-1,440.495-1,458.121v36.092c0,5.036,3.357,8.393,8.393,8.393h201.443h3.357h77.22h3.357h201.443
			c5.036,0,8.393-3.357,8.393-8.393v-36.092C502.607,441.334,492.534,425.387,477.426,416.993z M245.77,409.224l5.081-11.432
			l12.545,27.6l8.205,18.46h-40.941L245.77,409.224z M224.28,460.639h52.983l4.796,25.18h-62.815L224.28,460.639z M338.934,343.131
			l3.357,15.108l-8.574,11.773c-0.547,0.447-1.053,0.989-1.498,1.656l-34.912,48.34l-11.078,15.211l-22.628-50.913
			c27.048-3.299,51.193-16.877,70.694-36.39c0.216-0.214,0.433-0.426,0.648-0.642c0.052-0.053,0.104-0.106,0.156-0.159
			C336.392,345.818,337.671,344.492,338.934,343.131z M327.999,60.389c0.932,0.62,1.856,1.25,2.77,1.892
			c10.699,7.973,20.575,17.313,28.31,27.368l-38.61,7.554L327.999,60.389z M181.138,97.203l-38.61-7.554
			c7.735-10.056,17.612-19.396,28.311-27.369c0.913-0.641,1.837-1.271,2.769-1.891L181.138,97.203z M116.508,166.869
			c0-22.335,5.623-43.406,15.8-61.82l58.063,11.46c0.839,0,0.839,0,1.679,0c2.518,0,4.197-0.839,6.715-1.679
			c2.518-1.679,3.357-5.036,2.518-7.554l-11.523-56.08c6.069-2.92,12.438-5.428,19.077-7.49v22.442c0,5.036,3.357,8.393,8.393,8.393
			s8.393-3.357,8.393-8.393V32.574V24.18c0-4.197,3.357-8.393,8.393-8.393h33.574c4.197,0,8.393,3.357,8.393,8.393v8.393v33.574
			c0,5.036,3.357,8.393,8.393,8.393c5.036,0,8.393-3.357,8.393-8.393V43.706c6.86,2.13,13.435,4.734,19.685,7.779l-11.291,54.952
			c0,2.518,0.839,5.875,2.518,7.554s3.357,2.518,5.875,2.518c0.839,0,0.839,0,1.679,0l57.687-12.145
			c10.416,18.576,16.175,39.894,16.175,62.505v8.393h-8.393H124.902h-8.393V166.869z M133.295,192.049h235.016v33.574
			c0,36.599-12.555,69.122-31.405,93.843l-0.49,0.163c-0.839,0.839-1.679,1.679-2.518,2.518c-4.223,5.631-8.68,10.765-13.337,15.394
			c-19.763,18.412-43.336,29.564-66.05,30.669c-1.143-0.491-2.425-0.738-3.708-0.738c-1.29,0-2.453,0.253-3.496,0.749
			c-13.904-0.638-28.134-5.045-41.623-12.584c-13.665-7.851-26.52-19.169-37.977-33.49c-0.839-0.839-1.679-1.679-2.518-2.518
			l-0.49-0.163c-18.85-24.722-31.405-57.245-31.405-93.843V192.049z M238.005,384.308l-22.628,50.913l-11.078-15.211l-34.912-48.34
			c-0.267-0.267-0.563-0.532-0.869-0.793l-9.203-12.637l3.357-15.108c1.138,1.225,2.292,2.419,3.457,3.594
			C185.833,366.877,210.408,380.942,238.005,384.308z M15.787,458.121c0-10.911,5.875-20.984,15.948-26.02
			c53.501-28.423,92.015-42.688,126.323-46.949l50.088,68.87l-6.359,31.796H15.787V458.121z M485.82,485.82H299.821l-6.359-31.796
			l50.63-69.616c34.188,5.159,73.391,19.413,125.78,46.855c10.072,5.875,15.948,15.948,15.948,26.859V485.82z"/>
	</g>
</g>
<g>
</g>
<g>
</g>
<g>
</g>
<g>
</g>
<g>
</g>
<g>
</g>
<g>
</g>
<g>
</g>
<g>
</g>
<g>
</g>
<g>
</g>
<g>
</g>
<g>
</g>
<g>
</g>
<g>
</g>
</svg>
