<svg width="742" height="720" viewBox="0 0 742 720" fill="none" xmlns="http://www.w3.org/2000/svg">
<path d="M368.986 19.0601C362.773 19.3731 356.685 20.9137 351.08 23.5914L106.736 140.341C100.412 143.362 94.8554 147.756 90.4787 153.199C86.1019 158.641 83.0177 164.992 81.4552 171.779L21.1739 434.029C19.7819 440.071 19.6261 446.329 20.7158 452.432C21.8054 458.535 24.1183 464.359 27.5177 469.56C28.3419 470.832 29.2284 472.062 30.1739 473.248L199.299 683.529C203.677 688.97 209.234 693.363 215.558 696.382C221.883 699.401 228.812 700.968 235.83 700.966L507.049 700.904C514.065 700.909 520.992 699.347 527.316 696.334C533.641 693.32 539.199 688.933 543.58 683.498L712.643 473.185C717.023 467.741 720.109 461.388 721.673 454.598C723.236 447.808 723.237 440.756 721.674 433.966L661.299 171.716C659.736 164.929 656.652 158.579 652.275 153.136C647.899 147.694 642.342 143.299 636.018 140.279L391.643 23.5914C384.592 20.223 376.802 18.6649 368.986 19.0601V19.0601Z" fill="#6099E3"/>
<circle cx="368" cy="374" r="18.5" fill="white" stroke="white" stroke-width="3"/>
<path d="M186.5 235C186.5 252.376 172.194 266.5 154.5 266.5C136.806 266.5 122.5 252.376 122.5 235C122.5 217.624 136.806 203.5 154.5 203.5C172.194 203.5 186.5 217.624 186.5 235Z" fill="white" stroke="white" stroke-width="3"/>
<path d="M305.5 398.559C305.5 405.729 299.498 411.618 292 411.618C284.502 411.618 278.5 405.729 278.5 398.559C278.5 391.389 284.502 385.5 292 385.5C299.498 385.5 305.5 391.389 305.5 398.559Z" fill="white" stroke="white" stroke-width="3"/>
<circle cx="592.5" cy="181.5" r="21" fill="white" stroke="white" stroke-width="3"/>
<circle cx="597" cy="434" r="18.5" fill="white" stroke="white" stroke-width="3"/>
<circle cx="366" cy="226" r="18.5" fill="white" stroke="white" stroke-width="3"/>
<circle cx="236" cy="645" r="23.5" fill="white" stroke="white" stroke-width="3"/>
<path d="M484.5 531.552C484.5 547.024 471.761 559.604 456 559.604C440.239 559.604 427.5 547.024 427.5 531.552C427.5 516.081 440.239 503.5 456 503.5C471.761 503.5 484.5 516.081 484.5 531.552Z" fill="white" stroke="white" stroke-width="3"/>
<line x1="367.898" y1="374.591" x2="589.35" y2="180.122" stroke="white" stroke-width="5"/>
<line y1="-1.5" x2="144.715" y2="-1.5" transform="matrix(-0.0153348 -0.999882 0.999888 -0.014967 370.657 376.47)" stroke="white" stroke-width="3"/>
<line y1="-1" x2="228.047" y2="-1" transform="matrix(0.968257 0.249958 -0.255706 0.966755 370 380)" stroke="white" stroke-width="2"/>
<line x1="366.152" y1="375.197" x2="458.152" y2="530.727" stroke="white" stroke-width="5"/>
<line x1="369.827" y1="377.43" x2="292.279" y2="399.96" stroke="white" stroke-width="2"/>
<line x1="370.44" y1="376.922" x2="236.892" y2="640.452" stroke="white" stroke-width="2"/>
<line x1="375.765" y1="379.607" x2="152.34" y2="239.234" stroke="white" stroke-width="10"/>
<circle cx="371" cy="374" r="84" stroke="white" stroke-width="2"/>
<circle cx="371" cy="374" r="172.5" stroke="white" stroke-width="5"/>
<path d="M368.402 0.0645907C361.85 0.407776 355.433 2.04387 349.527 4.87709L91.558 128.096C84.882 131.284 79.016 135.924 74.3958 141.669C69.7756 147.415 66.5199 154.119 64.8705 161.283L1.24545 438.127C-0.228466 444.509 -0.396026 451.118 0.752695 457.565C1.90142 464.012 4.34305 470.165 7.93295 475.658C8.8063 476.995 9.74492 478.288 10.7454 479.533L189.277 701.533C193.898 707.277 199.765 711.914 206.44 715.1C213.116 718.287 220.43 719.941 227.839 719.94L514.152 719.877C521.558 719.882 528.87 718.233 535.546 715.052C542.222 711.871 548.09 707.24 552.714 701.502L731.183 479.471C735.802 473.727 739.058 467.025 740.708 459.862C742.358 452.699 742.36 445.26 740.714 438.096L676.995 161.221C675.342 154.062 672.084 147.364 667.464 141.624C662.844 135.884 656.98 131.25 650.308 128.065L392.339 4.84584C384.89 1.2875 376.659 -0.356629 368.402 0.0645907V0.0645907ZM368.527 19.0646C376.342 18.6694 384.133 20.2275 391.183 23.5958L635.558 140.283C641.882 143.304 647.439 147.698 651.816 153.141C656.192 158.583 659.277 164.934 660.839 171.721L721.214 433.971C722.777 440.761 722.777 447.813 721.213 454.603C719.649 461.393 716.563 467.746 712.183 473.19L543.12 683.502C538.74 688.938 533.181 693.325 526.857 696.338C520.532 699.351 513.605 700.913 506.589 700.908L235.37 700.971C228.352 700.972 221.423 699.405 215.099 696.386C208.774 693.368 203.217 688.975 198.839 683.533L29.7142 473.252C28.7687 472.067 27.8822 470.836 27.0579 469.565C23.6586 464.364 21.3457 458.54 20.2561 452.437C19.1664 446.333 19.3222 440.076 20.7142 434.033L80.9955 171.783C82.558 164.996 85.6422 158.646 90.019 153.203C94.3957 147.761 99.9525 143.366 106.277 140.346L350.62 23.5958C356.226 20.9181 362.313 19.3776 368.527 19.0646V19.0646Z" fill="white"/>
</svg>
