<svg width="706" height="686" viewBox="0 0 706 686" fill="none" xmlns="http://www.w3.org/2000/svg">
<path d="M331.784 6.04883L331.784 6.04897L87.2845 123.049C80.8813 126.107 75.5255 130.696 71.1104 136.187C66.6739 141.703 64.0003 148.214 62.4259 155.052L62.4259 155.052L2.14468 417.302C0.737563 423.41 0.580083 429.736 1.68157 435.906C2.78295 442.074 5.12063 447.961 8.55612 453.218C9.38927 454.503 10.2853 455.747 11.241 456.945L11.2423 456.947L180.367 667.228L180.757 666.914L180.367 667.228C184.792 672.728 190.409 677.168 196.801 680.219C203.193 683.27 210.195 684.853 217.288 684.852L488.507 684.789C495.597 684.795 502.598 683.216 508.989 680.171C515.381 677.125 520.999 672.691 525.427 667.197L525.428 667.197L694.49 456.884C698.917 451.382 702.037 444.96 703.618 438.096C705.19 431.268 705.88 424.135 703.985 416.88C703.985 416.878 703.984 416.876 703.984 416.874L643.487 154.887C641.913 148.05 639.285 141.59 634.848 136.072C630.449 130.602 625.788 125.809 617.702 122.542L374.716 6.04913L374.716 6.04884C367.577 2.6382 357.857 1.10208 349.975 1.50062C343.698 1.8168 337.452 3.34134 331.784 6.04883Z" fill="#6099E3" stroke="black" stroke-linecap="round"/>
<circle cx="350" cy="357" r="18.5" fill="white" stroke="white" stroke-width="3"/>
<path d="M168.5 218C168.5 235.376 154.194 249.5 136.5 249.5C118.806 249.5 104.5 235.376 104.5 218C104.5 200.624 118.806 186.5 136.5 186.5C154.194 186.5 168.5 200.624 168.5 218Z" fill="white" stroke="white" stroke-width="3"/>
<path d="M287.5 381.559C287.5 388.729 281.498 394.618 274 394.618C266.502 394.618 260.5 388.729 260.5 381.559C260.5 374.389 266.502 368.5 274 368.5C281.498 368.5 287.5 374.389 287.5 381.559Z" fill="white" stroke="white" stroke-width="3"/>
<circle cx="574.5" cy="164.5" r="21" fill="white" stroke="white" stroke-width="3"/>
<circle cx="579" cy="417" r="18.5" fill="white" stroke="white" stroke-width="3"/>
<circle cx="348" cy="209" r="18.5" fill="white" stroke="white" stroke-width="3"/>
<circle cx="218" cy="628" r="23.5" fill="white" stroke="white" stroke-width="3"/>
<path d="M466.5 514.552C466.5 530.024 453.761 542.604 438 542.604C422.239 542.604 409.5 530.024 409.5 514.552C409.5 499.081 422.239 486.5 438 486.5C453.761 486.5 466.5 499.081 466.5 514.552Z" fill="white" stroke="white" stroke-width="3"/>
<line x1="349.898" y1="357.591" x2="571.35" y2="163.122" stroke="white" stroke-width="5"/>
<line y1="-1.5" x2="144.715" y2="-1.5" transform="matrix(-0.0153348 -0.999882 0.999888 -0.014967 352.658 359.47)" stroke="white" stroke-width="3"/>
<line y1="-1" x2="228.047" y2="-1" transform="matrix(0.968257 0.249958 -0.255706 0.966755 352 363)" stroke="white" stroke-width="2"/>
<line x1="348.152" y1="358.197" x2="440.152" y2="513.727" stroke="white" stroke-width="5"/>
<line x1="351.827" y1="360.43" x2="274.279" y2="382.96" stroke="white" stroke-width="2"/>
<line x1="352.443" y1="359.915" x2="218.895" y2="628.445" stroke="white" stroke-width="2"/>
<line x1="357.765" y1="361.607" x2="134.34" y2="221.234" stroke="white" stroke-width="10"/>
<circle cx="353" cy="357" r="84" stroke="white" stroke-width="2"/>
<circle cx="353" cy="357" r="172.5" stroke="white" stroke-width="5"/>
</svg>
