<svg width="780" height="757" viewBox="0 0 780 757" fill="none" xmlns="http://www.w3.org/2000/svg">
<path d="M387.296 0.0667107C380.401 0.414069 373.645 2.12372 367.424 5.09537L96.2578 134.662C89.2394 138.013 83.0726 142.89 78.2154 148.93C73.3582 154.97 69.9354 162.018 68.2013 169.55L1.30277 460.588C-0.242015 467.294 -0.414898 474.239 0.794355 481.012C2.00361 487.785 4.57042 494.248 8.3429 500.02C9.25764 501.431 10.2414 502.797 11.2907 504.112L198.981 737.477C203.84 743.515 210.007 748.391 217.026 751.741C224.044 755.091 231.734 756.83 239.523 756.829L540.514 756.759C548.301 756.765 555.988 755.031 563.007 751.687C570.025 748.343 576.194 743.474 581.056 737.442L768.677 504.043C773.538 498.001 776.963 490.951 778.698 483.416C780.433 475.881 780.434 468.054 778.7 460.519L711.697 169.481C709.963 161.949 706.54 154.901 701.683 148.861C696.826 142.821 690.659 137.944 683.64 134.592L412.439 5.09537C404.615 1.35727 395.97 -0.371846 387.296 0.0667107V0.0667107Z" fill="white"/>
<path d="M387.986 44.0601C381.773 44.3731 375.685 45.9137 370.08 48.5914L125.736 165.341C119.412 168.362 113.855 172.756 109.479 178.199C105.102 183.641 102.018 189.992 100.455 196.779L40.1739 459.029C38.7819 465.071 38.6261 471.329 39.7158 477.432C40.8054 483.535 43.1183 489.359 46.5177 494.56C47.3419 495.832 48.2284 497.062 49.1739 498.248L218.299 708.529C222.677 713.97 228.234 718.363 234.558 721.382C240.883 724.401 247.812 725.968 254.83 725.966L526.049 725.904C533.065 725.909 539.992 724.347 546.316 721.334C552.641 718.32 558.199 713.933 562.58 708.498L731.643 498.185C736.023 492.741 739.109 486.388 740.673 479.598C742.236 472.808 742.237 465.756 740.674 458.966L680.299 196.716C678.736 189.929 675.652 183.579 671.275 178.136C666.899 172.694 661.342 168.299 655.018 165.279L410.643 48.5914C403.592 45.223 395.802 43.6649 387.986 44.0601V44.0601Z" fill="#2F8EE6"/>
<circle cx="389" cy="392" r="18.5" fill="white" stroke="white" stroke-width="3"/>
<path d="M207.5 253C207.5 270.376 193.194 284.5 175.5 284.5C157.806 284.5 143.5 270.376 143.5 253C143.5 235.624 157.806 221.5 175.5 221.5C193.194 221.5 207.5 235.624 207.5 253Z" fill="white" stroke="white" stroke-width="3"/>
<path d="M316.5 426.559C316.5 433.729 310.498 439.618 303 439.618C295.502 439.618 289.5 433.729 289.5 426.559C289.5 419.389 295.502 413.5 303 413.5C310.498 413.5 316.5 419.389 316.5 426.559Z" fill="white" stroke="white" stroke-width="3"/>
<circle cx="613.5" cy="199.5" r="21" fill="white" stroke="white" stroke-width="3"/>
<circle cx="618" cy="452" r="18.5" fill="white" stroke="white" stroke-width="3"/>
<circle cx="387" cy="244" r="18.5" fill="white" stroke="white" stroke-width="3"/>
<circle cx="269" cy="637" r="23.5" fill="white" stroke="white" stroke-width="3"/>
<path d="M505.5 549.552C505.5 565.024 492.761 577.604 477 577.604C461.239 577.604 448.5 565.024 448.5 549.552C448.5 534.081 461.239 521.5 477 521.5C492.761 521.5 505.5 534.081 505.5 549.552Z" fill="white" stroke="white" stroke-width="3"/>
<line x1="387.922" y1="391.452" x2="611.374" y2="196.983" stroke="white" stroke-width="8"/>
<line x1="388.659" y1="394.563" x2="384.001" y2="244.093" stroke="white" stroke-width="6"/>
<line x1="391.231" y1="397.027" x2="618.231" y2="451.027" stroke="white" stroke-width="2"/>
<line x1="389.303" y1="391.924" x2="481.303" y2="547.454" stroke="white" stroke-width="10"/>
<line x1="390.896" y1="395.407" x2="303.348" y2="427.937" stroke="white" stroke-width="2"/>
<line x1="392.336" y1="395.366" x2="270.788" y2="637.896" stroke="white" stroke-width="4"/>
<line x1="395.967" y1="398.877" x2="172.542" y2="258.504" stroke="white" stroke-width="13"/>
<circle cx="389" cy="392" r="91.5" stroke="white" stroke-width="7"/>
<circle cx="392" cy="392" r="173.5" stroke="white" stroke-width="3"/>
</svg>
